<?xml version="1.0" encoding="utf-8"?>
<!-- Generator: Adobe Illustrator 18.0.0, SVG Export Plug-In . SVG Version: 6.00 Build 0)  -->
<!DOCTYPE svg PUBLIC "-//W3C//DTD SVG 1.1//EN" "http://www.w3.org/Graphics/SVG/1.1/DTD/svg11.dtd">
<svg version="1.1" id="Calque_1" xmlns="http://www.w3.org/2000/svg" xmlns:xlink="http://www.w3.org/1999/xlink" x="0px" y="0px"
	 viewBox="198.5 -38.7 555.9 449.6" enable-background="new 198.5 -38.7 555.9 449.6" xml:space="preserve">
<g id="done" display="none">
	<g display="inline">
		<path fill="#FFFFFF" d="M684.6,178.8c-28.5,0-51.3-23.2-51.3-51.3c0-17,8.5-32,21.2-41.7l22,45.5c1.6,3.5,5,5,8.5,5
			c1.2,0,2.7-0.4,3.9-0.8c4.6-2.3,6.5-7.7,4.2-12.3l-22-45.5c4.2-1.2,8.9-1.9,13.5-1.9c28.5,0,51.3,23.2,51.3,51.3
			C736.3,155.7,713.1,178.8,684.6,178.8 M268.3,178.8c-28.5,0-51.3-23.2-51.3-51.3c0-28.5,23.2-51.3,51.3-51.3
			c11.6,0,22.4,3.9,30.9,10.4L262.2,121c-2.7,2.7-3.9,6.5-2.3,10c1.6,3.5,4.6,5.8,8.5,5.8h50.6C314.6,160.7,293.4,178.8,268.3,178.8
			 M312,99.7c3.5,5.4,5.8,11.6,6.9,18.1h-27L312,99.7z M369,109c-2.3,2.7-4.2,5.8-5.4,9.3h-26.2c-1.6-11.2-5.8-22-12-30.9l22-20
			L369,109z M495.9,46.9l10.4,21.2L408.8,109c-5-5.4-12-8.9-19.7-8.9c-1.2,0-2.3,0.4-3.5,0.4l-20.4-39.4L495.9,46.9z M578.1,38
			l-54.8,23.2L515.6,45L578.1,38z M544.9,100.1c-0.8,0-1.9,0-2.7,0.4L531,77.8l68.7-29L554.2,102C551.5,100.9,548,100.1,544.9,100.1
			 M525.6,108.2c-2.7,2.7-4.6,6.2-6.2,9.7h-84.8L514,84.7L525.6,108.2z M684.6,57.3c-7.7,0-15.1,1.2-21.6,3.5L635.6,4.1l17-13.9
			c2.3-1.9,3.9-5,3.5-8.1s-1.9-5.8-4.6-7.4l-22.8-12.3c-4.6-2.3-10-0.8-12.3,3.9s-0.8,10,3.9,12.3l10.4,5.8l-12,9.7
			c-3.5,2.7-4.2,7.4-2.7,11.2l4.6,9.3L506.7,27.2L495.6,3.7h23.2c5,0,9.3-4.2,9.3-9.3s-4.2-9.3-9.3-9.3h-62.1c-5,0-9.3,4.2-9.3,9.3
			s4.2,9.3,9.3,9.3h18.5c0,0.8,0.4,1.2,0.8,1.9l1.6,2.7h-35.5l-13.9-19.3c-3.1-4.2-8.9-5-12.7-1.9c-4.2,3.1-5,8.9-1.9,12.7L430,23
			c1.6,2.3,4.6,3.9,7.4,3.9h49l1.2,2.3L355.9,43.4L335.1,3.7h24.3c5,0,9.3-4.2,9.3-9.3s-4.2-9.3-9.3-9.3h-62.1c-5,0-9.3,4.2-9.3,9.3
			s4.2,9.3,9.3,9.3h17.4c0,0.8,0.4,1.6,0.8,1.9l23.2,44.8l-25.5,23.2c-12-10-27.8-16.2-44.8-16.2c-38.5,0-69.8,31.6-69.8,69.8
			s31.3,69.8,69.8,69.8c35.5,0,64.8-26.6,69.1-60.6h25.8c3.9,10.4,13.5,17.7,25.5,17.7s21.6-7.4,25.5-17.7h105.3
			c3.9,10.4,13.5,17.7,25.5,17.7c15.1,0,27-12.3,27-27c0-5-1.6-9.3-3.5-13.1l63.6-74.8l14.2,29.7c-18.9,12.3-31.6,33.9-31.6,58.3
			c0,38.6,31.3,69.8,69.8,69.8c38.6,0,69.8-31.3,69.8-69.8C754.8,88.9,723.1,57.3,684.6,57.3"/>
	</g>
</g>
<g id="Calque_1_1_">
	<g>
		<g>
			<path fill="#FFFFFF" d="M501.4,76.5h-49.6c-1.1,0-1.7-0.6-1.7-1.7s0.6-1.7,1.7-1.7h49.6c1.1,0,1.7,0.6,1.7,1.7
				S502.3,76.5,501.4,76.5"/>
		</g>
		<g>
			<path fill="none" stroke="#FFFFFF" stroke-width="0.8" stroke-miterlimit="10" d="M501.4,76.5h-49.6c-1.1,0-1.7-0.6-1.7-1.7
				s0.6-1.7,1.7-1.7h49.6c1.1,0,1.7,0.6,1.7,1.7S502.3,76.5,501.4,76.5z"/>
		</g>
		<g>
			<path fill="#FFFFFF" d="M515.1,90.5h-77.7c-1.1,0-1.7-0.6-1.7-1.7s0.6-1.7,1.7-1.7h77.7c1.1,0,1.7,0.6,1.7,1.7
				C517.1,89.7,516.3,90.5,515.1,90.5"/>
		</g>
		<g>
			<path fill="none" stroke="#FFFFFF" stroke-width="0.8" stroke-miterlimit="10" d="M515.1,90.5h-77.7c-1.1,0-1.7-0.6-1.7-1.7
				s0.6-1.7,1.7-1.7h77.7c1.1,0,1.7,0.6,1.7,1.7C517.1,89.7,516.3,90.5,515.1,90.5z"/>
		</g>
		<g>
			<path fill="#FFFFFF" d="M467.5,124.1c0-4.5,3.6-8.1,8.1-8.1c4.5,0,8.1,3.6,8.1,8.1c0,4.5-3.6,8.1-8.1,8.1
				C471.1,132.3,467.5,128.7,467.5,124.1 M477.3,247.9v-72.4c19.6-0.6,37-13.5,43.2-32.5c0.3-1.1-0.3-2-1.1-2.3
				c-1.1-0.3-2,0.3-2.3,1.1c-5.9,18-22.5,30.3-41.5,30.3c-24.1,0-43.5-19.3-43.5-43.5v-2.8h32.5c1.1,5,5.3,9.3,10.9,9.3
				c6.2,0,11.2-5,11.2-11.2s-5-11.2-11.2-11.2c-5.3,0-10.1,4.2-10.9,9.6H429v1.4c0,1.7-0.3,3.1-0.3,4.7c0,25.5,19.9,46.3,45.2,46.8
				v72.4h-34.5v-17.4c0-11.5-7.9-18-16.9-24.1C392,184.7,376,155.2,376,121c0-54.7,44.9-99.6,99.6-99.6S575.2,66,575.2,121
				c0,34.2-16,63.7-46.6,85.3c-8.7,6.2-16.9,12.9-16.9,24.1v17.4L477.3,247.9L477.3,247.9z M521,251.5c3.6,0,6.4,3.1,6.4,6.4
				c0,3.4-2.8,5.9-6.4,5.9h-5.9v-12.3L521,251.5L521,251.5z M511.5,279.9h-72v-12.3h72.1L511.5,279.9L511.5,279.9z M521,283.5
				c3.6,0,6.4,3.1,6.4,6.4s-2.8,5.9-6.4,5.9h-5.9v-12.3H521L521,283.5z M511.5,302.6c0,3.4-0.6,6.4-1.7,9.3h-69
				c-1.1-2.8-1.7-6.2-1.7-9.3v-3.1h72.1v3.1H511.5z M485.7,329h-20.5c-10.1,0-18.8-5.3-23-14h65.9C503.9,323.6,495.5,329,485.7,329
				 M475.6,337.1c-2.8,0-5.3-2-6.2-4.5h12.3C480.9,335.1,478.1,337.1,475.6,337.1 M429.9,311.8c-3.6,0-6.4-2.3-6.4-5.9
				c0-3.6,3.1-6.4,6.4-6.4h5.9v3.1c0,3.1,0.3,6.4,1.4,9.3L429.9,311.8L429.9,311.8z M439.4,283.5h72.1v12.3h-72.1V283.5z
				 M429.9,279.9c-3.6,0-6.4-2.3-6.4-5.9c0-3.6,3.1-6.4,6.4-6.4h5.9v12.3L429.9,279.9L429.9,279.9z M439.4,251.5h72.1v12.3h-72.1
				V251.5z M530.6,209.2c31.2-22.2,47.9-52.8,47.9-88.4c0-56.7-46.3-103-103-103S372.7,64.4,372.7,121.1c0,35.6,16.6,66.2,47.9,88.4
				c8.4,5.9,15.2,11.5,15.2,21.3v33.1h-6.2c-5.3,0.3-9.6,4.7-9.6,9.8c0,5.3,4.5,9.6,10.1,9.6h5.9v12.3h-6.2
				c-5.3,0.3-9.6,4.7-9.6,9.8c0,5.3,4.5,9.6,10.1,9.6h8.4c4.7,10.1,14.9,17.4,26.9,17.4h0.3c1.1,4.5,5,8.1,9.8,8.1
				c4.8,0,8.7-3.4,9.8-8.1h-0.3c16.6,0,29.5-13.2,29.5-30.3V299h5.9c5.9,0,10.1-4.2,10.1-9.6s-4.2-9.8-9.6-9.8h-6.2v-11.8h5.9
				c5.9,0,10.1-4.2,10.1-9.6c0-5.3-4.5-10.1-10.1-10.1h-5.9v-17.4C515.1,220.7,521.9,215.4,530.6,209.2"/>
		</g>
		<g>
			<path fill="none" stroke="#FFFFFF" stroke-width="0.8" stroke-miterlimit="10" d="M467.5,124.1c0-4.5,3.6-8.1,8.1-8.1
				c4.5,0,8.1,3.6,8.1,8.1c0,4.5-3.6,8.1-8.1,8.1C471.1,132.3,467.5,128.7,467.5,124.1z M477.3,247.9v-72.4
				c19.6-0.6,37-13.5,43.2-32.5c0.3-1.1-0.3-2-1.1-2.3c-1.1-0.3-2,0.3-2.3,1.1c-5.9,18-22.5,30.3-41.5,30.3
				c-24.1,0-43.5-19.3-43.5-43.5v-2.8h32.5c1.1,5,5.3,9.3,10.9,9.3c6.2,0,11.2-5,11.2-11.2s-5-11.2-11.2-11.2
				c-5.3,0-10.1,4.2-10.9,9.6H429v1.4c0,1.7-0.3,3.1-0.3,4.7c0,25.5,19.9,46.3,45.2,46.8v72.4h-34.5v-17.4c0-11.5-7.9-18-16.9-24.1
				C392,184.7,376,155.2,376,121c0-54.7,44.9-99.6,99.6-99.6S575.2,66,575.2,121c0,34.2-16,63.7-46.6,85.3
				c-8.7,6.2-16.9,12.9-16.9,24.1v17.4L477.3,247.9L477.3,247.9z M521,251.5c3.6,0,6.4,3.1,6.4,6.4c0,3.4-2.8,5.9-6.4,5.9h-5.9
				v-12.3L521,251.5L521,251.5z M511.5,279.9h-72v-12.3h72.1L511.5,279.9L511.5,279.9z M521,283.5c3.6,0,6.4,3.1,6.4,6.4
				s-2.8,5.9-6.4,5.9h-5.9v-12.3H521L521,283.5z M511.5,302.6c0,3.4-0.6,6.4-1.7,9.3h-69c-1.1-2.8-1.7-6.2-1.7-9.3v-3.1h72.1v3.1
				H511.5z M485.7,329h-20.5c-10.1,0-18.8-5.3-23-14h65.9C503.9,323.6,495.5,329,485.7,329z M475.6,337.1c-2.8,0-5.3-2-6.2-4.5h12.3
				C480.9,335.1,478.1,337.1,475.6,337.1z M429.9,311.8c-3.6,0-6.4-2.3-6.4-5.9c0-3.6,3.1-6.4,6.4-6.4h5.9v3.1
				c0,3.1,0.3,6.4,1.4,9.3L429.9,311.8L429.9,311.8z M439.4,283.5h72.1v12.3h-72.1V283.5z M429.9,279.9c-3.6,0-6.4-2.3-6.4-5.9
				c0-3.6,3.1-6.4,6.4-6.4h5.9v12.3L429.9,279.9L429.9,279.9z M439.4,251.5h72.1v12.3h-72.1V251.5z M530.6,209.2
				c31.2-22.2,47.9-52.8,47.9-88.4c0-56.7-46.3-103-103-103S372.7,64.4,372.7,121.1c0,35.6,16.6,66.2,47.9,88.4
				c8.4,5.9,15.2,11.5,15.2,21.3v33.1h-6.2c-5.3,0.3-9.6,4.7-9.6,9.8c0,5.3,4.5,9.6,10.1,9.6h5.9v12.3h-6.2
				c-5.3,0.3-9.6,4.7-9.6,9.8c0,5.3,4.5,9.6,10.1,9.6h8.4c4.7,10.1,14.9,17.4,26.9,17.4h0.3c1.1,4.5,5,8.1,9.8,8.1
				c4.8,0,8.7-3.4,9.8-8.1h-0.3c16.6,0,29.5-13.2,29.5-30.3V299h5.9c5.9,0,10.1-4.2,10.1-9.6s-4.2-9.8-9.6-9.8h-6.2v-11.8h5.9
				c5.9,0,10.1-4.2,10.1-9.6c0-5.3-4.5-10.1-10.1-10.1h-5.9v-17.4C515.1,220.7,521.9,215.4,530.6,209.2z"/>
		</g>
	</g>
</g>
</svg>
