<?xml version="1.0" encoding="utf-8"?>
<!-- Generator: Adobe Illustrator 18.0.0, SVG Export Plug-In . SVG Version: 6.00 Build 0)  -->
<!DOCTYPE svg PUBLIC "-//W3C//DTD SVG 1.1//EN" "http://www.w3.org/Graphics/SVG/1.1/DTD/svg11.dtd">
<svg version="1.1" xmlns="http://www.w3.org/2000/svg" xmlns:xlink="http://www.w3.org/1999/xlink" x="0px" y="0px"
	 viewBox="-2.7 -196.7 967.1 967.1" enable-background="new -2.7 -196.7 967.1 967.1" xml:space="preserve">
<g id="done" display="none">
	<g display="inline">
		<path fill="#FFFFFF" d="M838.8,451.8c-49.3,0-88.6-40-88.6-88.6c0-29.3,14.7-55.3,36.6-72l38,78.6c2.7,6,8.7,8.7,14.7,8.7
			c2,0,4.7-0.7,6.7-1.3c8-4,11.3-13.3,7.3-21.3l-38-78.6c7.3-2,15.3-3.3,23.3-3.3c49.3,0,88.6,40,88.6,88.6
			C928.1,411.8,888.1,451.8,838.8,451.8 M120,451.8c-49.3,0-88.6-40-88.6-88.6c0-49.3,40-88.6,88.6-88.6c20,0,38.6,6.7,53.3,18
			l-64,59.3c-4.7,4.7-6.7,11.3-4,17.3c2.7,6,8,10,14.7,10h87.3C199.9,420.5,163.3,451.8,120,451.8 M195.3,315.2c6,9.3,10,20,12,31.3
			h-46.6L195.3,315.2z M293.9,331.2c-4,4.7-7.3,10-9.3,16h-45.3c-2.7-19.3-10-38-20.7-53.3l38-34.6L293.9,331.2z M513,224l18,36.6
			l-168.5,70.6c-8.7-9.3-20.7-15.3-34-15.3c-2,0-4,0.7-6,0.7l-35.3-68L513,224z M654.9,208.7l-94.6,40l-13.3-28L654.9,208.7z
			 M597.6,315.9c-1.3,0-3.3,0-4.7,0.7l-19.3-39.3l118.6-50l-78.6,91.9C609,317.2,603,315.9,597.6,315.9 M564.3,329.9
			c-4.7,4.7-8,10.7-10.7,16.7H407.1l137.2-57.3L564.3,329.9z M838.8,242c-13.3,0-26,2-37.3,6L754.2,150l29.3-24c4-3.3,6.7-8.7,6-14
			s-3.3-10-8-12.7l-39.3-21.3c-8-4-17.3-1.3-21.3,6.7c-4,8-1.3,17.3,6.7,21.3l18,10l-20.7,16.7c-6,4.7-7.3,12.7-4.7,19.3l8,16
			l-196.5,22l-19.3-40.6h40c8.7,0,16-7.3,16-16c0-8.7-7.3-16-16-16H445.1c-8.7,0-16,7.3-16,16c0,8.7,7.3,16,16,16h32
			c0,1.3,0.7,2,1.3,3.3l2.7,4.7h-61.3l-24-33.3c-5.3-7.3-15.3-8.7-22-3.3c-7.3,5.3-8.7,15.3-3.3,22l28.6,40c2.7,4,8,6.7,12.7,6.7
			h84.6l2,4L271.2,218l-36-68.6h42c8.7,0,16-7.3,16-16c0-8.7-7.3-16-16-16H169.9c-8.7,0-16,7.3-16,16c0,8.7,7.3,16,16,16h30
			c0,1.3,0.7,2.7,1.3,3.3l40,77.3l-44,40c-20.7-17.3-48-28-77.3-28C53.4,242-0.6,296.6-0.6,362.5s54,120.6,120.6,120.6
			c61.3,0,111.9-46,119.3-104.6h44.6c6.7,18,23.3,30.6,44,30.6s37.3-12.7,44-30.6h181.9c6.7,18,23.3,30.6,44,30.6
			c26,0,46.6-21.3,46.6-46.6c0-8.7-2.7-16-6-22.7l109.9-129.2l24.6,51.3c-32.6,21.3-54.6,58.6-54.6,100.6
			c0,66.6,54,120.6,120.6,120.6c66.6,0,120.6-54,120.6-120.6C960.1,296.6,905.4,242,838.8,242"/>
	</g>
	<g display="inline">
		<g>
			<path fill="#FFFFFF" d="M524.2,102.4h-85.7c-1.9,0-2.9-1-2.9-2.9s1-2.9,2.9-2.9h85.7c1.9,0,2.9,1,2.9,2.9
				S525.7,102.4,524.2,102.4"/>
		</g>
		<g>
			<path fill="none" stroke="#FFFFFF" stroke-width="0.8" stroke-miterlimit="10" d="M524.2,102.4h-85.7c-1.9,0-2.9-1-2.9-2.9
				s1-2.9,2.9-2.9h85.7c1.9,0,2.9,1,2.9,2.9S525.7,102.4,524.2,102.4z"/>
		</g>
		<g>
			<path fill="#FFFFFF" d="M547.9,126.6H413.8c-1.9,0-2.9-1-2.9-2.9s1-2.9,2.9-2.9h134.2c1.9,0,2.9,1,2.9,2.9
				C551.3,125.2,549.9,126.6,547.9,126.6"/>
		</g>
		<g>
			<path fill="none" stroke="#FFFFFF" stroke-width="0.8" stroke-miterlimit="10" d="M547.9,126.6H413.8c-1.9,0-2.9-1-2.9-2.9
				s1-2.9,2.9-2.9h134.2c1.9,0,2.9,1,2.9,2.9C551.3,125.2,549.9,126.6,547.9,126.6z"/>
		</g>
		<g>
			<path fill="#FFFFFF" d="M465.6,184.7c0-7.8,6.3-14,14-14c7.8,0,14,6.3,14,14c0,7.8-6.3,14-14,14
				C471.9,198.8,465.6,192.5,465.6,184.7 M482.5,398.4v-125c33.9-1,63.9-23.3,74.6-56.2c0.5-1.9-0.5-3.4-1.9-3.9
				c-1.9-0.5-3.4,0.5-3.9,1.9c-10.2,31-38.8,52.3-71.7,52.3c-41.7,0-75.1-33.4-75.1-75.1v-4.8h56.2c1.9,8.7,9.2,16,18.9,16
				c10.7,0,19.4-8.7,19.4-19.4c0-10.7-8.7-19.4-19.4-19.4c-9.2,0-17.4,7.3-18.9,16.5h-61.5v2.4c0,2.9-0.5,5.3-0.5,8.2
				c0,44.1,34.4,79.9,78,80.9v125h-59.6v-30c0-19.9-13.6-31-29.1-41.7c-52.8-36.8-80.4-87.7-80.4-146.8c0-94.5,77.5-172,172-172
				s172,77,172,172c0,59.1-27.6,110-80.4,147.3c-15,10.7-29.1,22.3-29.1,41.7v30L482.5,398.4L482.5,398.4z M558.1,404.7
				c6.3,0,11.1,5.3,11.1,11.1s-4.8,10.2-11.1,10.2h-10.2v-21.3H558.1z M541.6,453.6H417.2v-21.3h124.5V453.6z M558.1,459.9
				c6.3,0,11.1,5.3,11.1,11.1c0,5.8-4.8,10.2-11.1,10.2h-10.2v-21.3H558.1z M541.6,492.8c0,5.8-1,11.1-2.9,16H419.6
				c-1.9-4.8-2.9-10.7-2.9-16v-5.3h124.5v5.3H541.6z M497.1,538.4h-35.4c-17.4,0-32.5-9.2-39.7-24.2h113.8
				C528.6,529.2,514,538.4,497.1,538.4 M479.6,552.4c-4.8,0-9.2-3.4-10.7-7.8h21.3C488.8,549,484,552.4,479.6,552.4 M400.7,508.8
				c-6.3,0-11.1-3.9-11.1-10.2c0-6.3,5.3-11.1,11.1-11.1h10.2v5.3c0,5.3,0.5,11.1,2.4,16H400.7z M417.2,459.9h124.5v21.3H417.2
				V459.9z M400.7,453.6c-6.3,0-11.1-3.9-11.1-10.2c0-6.3,5.3-11.1,11.1-11.1h10.2v21.3H400.7z M417.2,404.7h124.5V426H417.2V404.7z
				 M574.6,331.5c53.8-38.3,82.8-91.1,82.8-152.6c0-97.9-79.9-177.8-177.8-177.8S301.9,81.6,301.9,179.4
				c0,61.5,28.6,114.3,82.8,152.6c14.5,10.2,26.2,19.9,26.2,36.8V426h-10.7c-9.2,0.5-16.5,8.2-16.5,17c0,9.2,7.8,16.5,17.4,16.5
				h10.2v21.3h-10.7c-9.2,0.5-16.5,8.2-16.5,17c0,9.2,7.8,16.5,17.4,16.5h14.5c8.2,17.4,25.7,30,46.5,30h0.5c1.9,7.8,8.7,14,17,14
				s15-5.8,17-14h-0.5c28.6,0,50.9-22.8,50.9-52.3v-5.3h10.2c10.2,0,17.4-7.3,17.4-16.5s-7.3-17-16.5-17h-10.7v-20.3h10.2
				c10.2,0,17.4-7.3,17.4-16.5c0-9.2-7.8-17.4-17.4-17.4h-10.2v-30C547.9,351.4,559.6,342.2,574.6,331.5"/>
		</g>
		<g>
			<path fill="none" stroke="#FFFFFF" stroke-width="0.8" stroke-miterlimit="10" d="M465.6,184.7c0-7.8,6.3-14,14-14
				c7.8,0,14,6.3,14,14c0,7.8-6.3,14-14,14C471.9,198.8,465.6,192.5,465.6,184.7z M482.5,398.4v-125c33.9-1,63.9-23.3,74.6-56.2
				c0.5-1.9-0.5-3.4-1.9-3.9c-1.9-0.5-3.4,0.5-3.9,1.9c-10.2,31-38.8,52.3-71.7,52.3c-41.7,0-75.1-33.4-75.1-75.1v-4.8h56.2
				c1.9,8.7,9.2,16,18.9,16c10.7,0,19.4-8.7,19.4-19.4c0-10.7-8.7-19.4-19.4-19.4c-9.2,0-17.4,7.3-18.9,16.5h-61.5v2.4
				c0,2.9-0.5,5.3-0.5,8.2c0,44.1,34.4,79.9,78,80.9v125h-59.6v-30c0-19.9-13.6-31-29.1-41.7c-52.8-36.8-80.4-87.7-80.4-146.8
				c0-94.5,77.5-172,172-172s172,77,172,172c0,59.1-27.6,110-80.4,147.3c-15,10.7-29.1,22.3-29.1,41.7v30L482.5,398.4L482.5,398.4z
				 M558.1,404.7c6.3,0,11.1,5.3,11.1,11.1s-4.8,10.2-11.1,10.2h-10.2v-21.3H558.1z M541.6,453.6H417.2v-21.3h124.5V453.6z
				 M558.1,459.9c6.3,0,11.1,5.3,11.1,11.1c0,5.8-4.8,10.2-11.1,10.2h-10.2v-21.3H558.1z M541.6,492.8c0,5.8-1,11.1-2.9,16H419.6
				c-1.9-4.8-2.9-10.7-2.9-16v-5.3h124.5v5.3H541.6z M497.1,538.4h-35.4c-17.4,0-32.5-9.2-39.7-24.2h113.8
				C528.6,529.2,514,538.4,497.1,538.4z M479.6,552.4c-4.8,0-9.2-3.4-10.7-7.8h21.3C488.8,549,484,552.4,479.6,552.4z M400.7,508.8
				c-6.3,0-11.1-3.9-11.1-10.2c0-6.3,5.3-11.1,11.1-11.1h10.2v5.3c0,5.3,0.5,11.1,2.4,16H400.7z M417.2,459.9h124.5v21.3H417.2
				V459.9z M400.7,453.6c-6.3,0-11.1-3.9-11.1-10.2c0-6.3,5.3-11.1,11.1-11.1h10.2v21.3H400.7z M417.2,404.7h124.5V426H417.2V404.7z
				 M574.6,331.5c53.8-38.3,82.8-91.1,82.8-152.6c0-97.9-79.9-177.8-177.8-177.8S301.9,81.6,301.9,179.4
				c0,61.5,28.6,114.3,82.8,152.6c14.5,10.2,26.2,19.9,26.2,36.8V426h-10.7c-9.2,0.5-16.5,8.2-16.5,17c0,9.2,7.8,16.5,17.4,16.5
				h10.2v21.3h-10.7c-9.2,0.5-16.5,8.2-16.5,17c0,9.2,7.8,16.5,17.4,16.5h14.5c8.2,17.4,25.7,30,46.5,30h0.5c1.9,7.8,8.7,14,17,14
				s15-5.8,17-14h-0.5c28.6,0,50.9-22.8,50.9-52.3v-5.3h10.2c10.2,0,17.4-7.3,17.4-16.5s-7.3-17-16.5-17h-10.7v-20.3h10.2
				c10.2,0,17.4-7.3,17.4-16.5c0-9.2-7.8-17.4-17.4-17.4h-10.2v-30C547.9,351.4,559.6,342.2,574.6,331.5z"/>
		</g>
	</g>
</g>
<g id="Calque_1">
	<g>
		<g>
			<path fill="#FFFFFF" d="M485.6,518.9v-24.2c0-3.5-2.8-6.9-6.2-6.9s-6.2,2.8-6.2,6.9v24.2c-124.4-3.5-229.5-108.5-233-233h24.2
				c3.5,0,6.9-2.8,6.9-6.2s-2.8-6.2-6.9-6.2h-24.2c3.5-124.4,108.5-229.5,233-233v28.3c0,3.5,2.8,6.9,6.2,6.9c3.5,0,6.2-2.8,6.2-6.9
				V40.5c124.4,3.5,229.5,108.5,233,233h-24.2c-3.5,0-6.9,2.8-6.9,6.2s2.8,6.2,6.9,6.2h24.2C715.2,410.3,610.1,515.4,485.6,518.9
				 M731.7,281.8c0-0.7,0.7-1.4,0.7-2.1s0-1.4-0.7-2.1C731.1,139.3,619.7,28,481.5,27.3c-0.7,0-1.4-0.7-2.1-0.7s-1.4,0-2.1,0.7
				c-138.3,0.7-249.6,112-250.3,250.3c0,0.7-0.7,1.4-0.7,2.1s0,1.4,0.7,2.1c1.4,137.6,112.7,248.9,250.3,250.3
				c0.7,0,1.4,0.7,2.1,0.7s1.4,0,2.1-0.7C619.7,531.3,731.1,420,731.7,281.8"/>
		</g>
		<g>
			<path fill="#FFFFFF" d="M540.2,115.1c-1.4,0-2.8,0.7-3.5,2.1L435.8,234.7c-12.4,14.5-19.4,33.9-19.4,53.2v154.9
				c0,2.8,2.8,4.8,4.8,4.8c1.4,0,2.8-0.7,3.5-2.1L525,328.1c12.4-14.5,19.4-33.9,19.4-53.2V120C545.1,117.2,542.3,115.1,540.2,115.1
				 M531.9,142.1v132c0,16.6-5.5,31.8-16.6,44.2L429.6,420V288c0-16.6,5.5-31.8,16.6-44.2L531.9,142.1z"/>
		</g>
		<g>
			<path fill="#FFFFFF" d="M480.8,254.1c-11.1,0-21.4,6.9-25.6,18c-4.8,13.8,2.1,29.7,15.9,34.6c2.8,1.4,6.2,1.4,9.7,1.4
				c11.1,0,21.4-6.9,25.6-18c4.8-13.8-2.1-29.7-15.9-34.6C487,254.8,483.5,254.1,480.8,254.1 M480.8,267.2L480.8,267.2
				c1.4,0,3.5,0,4.8,0.7c6.9,2.8,11.1,10.4,8.3,18c-2.1,5.5-7.6,9-13.1,9c-1.4,0-3.5,0-4.8-0.7c-6.9-2.8-11.1-10.4-8.3-18
				C469.7,270.7,475.3,267.2,480.8,267.2"/>
		</g>
		<g>
			<path fill="#FFFFFF" d="M363.9,171.1c-1.4,0-3.5-0.7-4.8-2.1L348,158c-2.8-2.8-2.8-6.9,0-9.7c2.8-2.8,6.9-2.8,9.7,0l11.1,11.1
				c2.8,2.8,2.8,6.9,0,9.7C367.4,170.4,366,171.1,363.9,171.1"/>
		</g>
		<g>
			<path fill="#FFFFFF" d="M605.9,412.4c-1.4,0-3.5-0.7-4.8-2.1L590,399.3c-2.8-2.8-2.8-6.9,0-9.7s6.9-2.8,9.7,0l11.1,11.1
				c2.8,2.8,2.8,6.9,0,9.7C609.4,411.7,607.3,412.4,605.9,412.4"/>
		</g>
		<g>
			<path fill="#FFFFFF" d="M592.8,173.2c-1.4,0-3.5-0.7-4.8-2.1c-2.8-2.8-2.8-6.9,0-9.7l13.1-13.1c2.8-2.8,6.9-2.8,9.7,0
				s2.8,6.9,0,9.7l-13.1,13.1C596.2,172.5,594.2,173.2,592.8,173.2"/>
		</g>
		<g>
			<path fill="#FFFFFF" d="M352.9,412.4c-1.4,0-3.5-0.7-4.8-2.1c-2.8-2.8-2.8-6.9,0-9.7l11.1-11.1c2.8-2.8,6.9-2.8,9.7,0
				c2.8,2.8,2.8,6.9,0,9.7l-11.1,11.1C356.3,411.7,355,412.4,352.9,412.4"/>
		</g>
		<g>
			<path fill="#FFFFFF" d="M479.4-0.3c-154.9,0-280,125.1-280,280s125.1,280,280,280s280-125.1,280-280S634.3-0.3,479.4-0.3
				 M479.4,12.8c147.3,0,266.9,119.6,266.9,266.9S626.7,546.5,479.4,546.5S212.5,426.9,212.5,279.7S332.1,12.8,479.4,12.8"/>
		</g>
	</g>
</g>
<g id="masque" display="none">
	<g display="inline">
		<g>
			<defs>
				<rect id="SVGID_1_" x="211.3" y="-0.3" width="536.2" height="560"/>
			</defs>
			<clipPath id="SVGID_2_">
				<use xlink:href="#SVGID_1_"  overflow="visible"/>
			</clipPath>
			<path clip-path="url(#SVGID_2_)" fill="#FFFFFF" d="M364.6,535.9H618L551,22.7H431.5L364.6,535.9z M631.6,559.7L631.6,559.7
				H350.9c-3.6,0-6.5-1.4-8.6-4.3c-2.2-2.2-3.6-5.8-2.9-9.4L409.2,9.8C410.7,4,415-0.3,421.5-0.3h139.6c5.8,0,10.8,4.3,11.5,10.1
				l69.8,533.4c0.7,1.4,0.7,2.9,0.7,5C643.2,553.9,638.1,559.7,631.6,559.7"/>
		</g>
		<g>
			<defs>
				<rect id="SVGID_3_" x="211.3" y="-0.3" width="536.2" height="560"/>
			</defs>
			<clipPath id="SVGID_4_">
				<use xlink:href="#SVGID_3_"  overflow="visible"/>
			</clipPath>
			<path clip-path="url(#SVGID_4_)" fill="#FFFFFF" d="M491.3,46.5c-6.5,0-11.5-5-11.5-11.5V22.7c0-6.5,5-11.5,11.5-11.5
				s11.5,5,11.5,11.5v11.5C502.8,41.4,497.8,46.5,491.3,46.5"/>
		</g>
		<g>
			<defs>
				<rect id="SVGID_5_" x="211.3" y="-0.3" width="536.2" height="560"/>
			</defs>
			<clipPath id="SVGID_6_">
				<use xlink:href="#SVGID_5_"  overflow="visible"/>
			</clipPath>
			<path clip-path="url(#SVGID_6_)" fill="#FFFFFF" d="M491.3,116.3c-6.5,0-11.5-5-11.5-11.5v-23c0-6.5,5-11.5,11.5-11.5
				s11.5,5,11.5,11.5v23C502.8,111.3,497.8,116.3,491.3,116.3 M491.3,186.1c-6.5,0-11.5-5-11.5-11.5v-23c0-6.5,5-11.5,11.5-11.5
				s11.5,5,11.5,11.5v23C502.8,181.1,497.8,186.1,491.3,186.1"/>
		</g>
		<g>
			<defs>
				<rect id="SVGID_7_" x="211.3" y="-0.3" width="536.2" height="560"/>
			</defs>
			<clipPath id="SVGID_8_">
				<use xlink:href="#SVGID_7_"  overflow="visible"/>
			</clipPath>
			<path clip-path="url(#SVGID_8_)" fill="#FFFFFF" d="M491.3,244.4c-6.5,0-11.5-5-11.5-11.5v-11.5c0-6.5,5-11.5,11.5-11.5
				s11.5,5,11.5,11.5v11.5C502.8,239.4,497.8,244.4,491.3,244.4"/>
		</g>
		<g>
			<defs>
				<rect id="SVGID_9_" x="211.3" y="-0.3" width="536.2" height="560"/>
			</defs>
			<clipPath id="SVGID_10_">
				<use xlink:href="#SVGID_9_"  overflow="visible"/>
			</clipPath>
			<path clip-path="url(#SVGID_10_)" fill="#FFFFFF" d="M491.3,338c-6.5,0-11.5-5-11.5-11.5v-23c0-6.5,5-11.5,11.5-11.5
				s11.5,5,11.5,11.5v23C502.8,332.9,497.8,338,491.3,338 M491.3,407.8c-6.5,0-11.5-5-11.5-11.5v-23c0-6.5,5-11.5,11.5-11.5
				s11.5,5,11.5,11.5v23C502.8,402.8,497.8,407.8,491.3,407.8 M491.3,477.6c-6.5,0-11.5-5-11.5-11.5v-23c0-6.5,5-11.5,11.5-11.5
				s11.5,5,11.5,11.5v23C502.8,472.6,497.8,477.6,491.3,477.6 M491.3,547.4c-6.5,0-11.5-5-11.5-11.5v-23c0-6.5,5-11.5,11.5-11.5
				s11.5,5,11.5,11.5v23C502.8,542.4,497.8,547.4,491.3,547.4"/>
		</g>
		<g>
			<defs>
				<rect id="SVGID_11_" x="211.3" y="-0.3" width="536.2" height="560"/>
			</defs>
			<clipPath id="SVGID_12_">
				<use xlink:href="#SVGID_11_"  overflow="visible"/>
			</clipPath>
			<path clip-path="url(#SVGID_12_)" fill="#FFFFFF" d="M736,302.7H222.8c-6.5,0-11.5-5-11.5-11.5c0-6.5,5-11.5,11.5-11.5H736
				c6.5,0,11.5,5,11.5,11.5C747.5,297.7,742.5,302.7,736,302.7"/>
		</g>
		<g>
			<defs>
				<rect id="SVGID_13_" x="211.3" y="-0.3" width="536.2" height="560"/>
			</defs>
			<clipPath id="SVGID_14_">
				<use xlink:href="#SVGID_13_"  overflow="visible"/>
			</clipPath>
			<path clip-path="url(#SVGID_14_)" fill="#FFFFFF" d="M736,255.9H222.8c-6.5,0-11.5-5-11.5-11.5c0-6.5,5-11.5,11.5-11.5H736
				c6.5,0,11.5,5,11.5,11.5S742.5,255.9,736,255.9"/>
		</g>
		<g>
			<defs>
				<rect id="SVGID_15_" x="211.3" y="-0.3" width="536.2" height="560"/>
			</defs>
			<clipPath id="SVGID_16_">
				<use xlink:href="#SVGID_15_"  overflow="visible"/>
			</clipPath>
			<path clip-path="url(#SVGID_16_)" fill="#FFFFFF" d="M314.9,384.8c-1.4,0-2.2,0-3.6-0.7c-5.8-2.2-9.4-8.6-7.2-15.1l23.8-72
				c2.2-5.8,8.6-9.4,14.4-7.2c5.8,2.2,9.4,8.6,7.2,15.1l-23.8,72C324.3,381.2,320,384.8,314.9,384.8"/>
		</g>
		<g>
			<defs>
				<rect id="SVGID_17_" x="211.3" y="-0.3" width="536.2" height="560"/>
			</defs>
			<clipPath id="SVGID_18_">
				<use xlink:href="#SVGID_17_"  overflow="visible"/>
			</clipPath>
			<path clip-path="url(#SVGID_18_)" fill="#FFFFFF" d="M665.5,384.8c-5,0-9.4-2.9-10.8-7.9l-23.8-72c-2.2-6.5,1.4-13,7.2-15.1
				c6.5-2.2,13,1.4,15.1,7.2l23.8,72c2.2,5.8-1.4,13-7.2,15.1C667.6,384.1,666.2,384.8,665.5,384.8"/>
		</g>
	</g>
	<g display="inline">
		<g>
			<defs>
				<rect id="SVGID_19_" x="154.7" y="-0.3" width="649.3" height="560"/>
			</defs>
			<clipPath id="SVGID_20_">
				<use xlink:href="#SVGID_19_"  overflow="visible"/>
			</clipPath>
			<path clip-path="url(#SVGID_20_)" fill="#FFFFFF" d="M627.5,515.4c2,0,3.4-0.7,4.7-2.7l76.5-102.7l83.9,102.7
				c2.7,2.7,6.7,3.4,8.7,0.7c2.7-2.7,2.7-7.4,0.7-10.1l-93.3-115.5l-85.9,115.5c-2,3.4-2,7.4,0.7,10.1
				C624.8,514.7,626.1,515.4,627.5,515.4"/>
		</g>
		<g>
			<defs>
				<rect id="SVGID_21_" x="154.7" y="-0.3" width="649.3" height="560"/>
			</defs>
			<clipPath id="SVGID_22_">
				<use xlink:href="#SVGID_21_"  overflow="visible"/>
			</clipPath>
			<path clip-path="url(#SVGID_22_)" fill="#FFFFFF" d="M690.6,400.5c3.4,0,6-3.4,6-7.4V286.4h-91.3c-3.4,0-6.7,3.4-6.7,7.4
				c0,4,2.7,7.4,6.7,7.4h78.6v92.7C683.9,397.2,687.2,400.5,690.6,400.5"/>
		</g>
		<g>
			<defs>
				<rect id="SVGID_23_" x="154.7" y="-0.3" width="649.3" height="560"/>
			</defs>
			<clipPath id="SVGID_24_">
				<use xlink:href="#SVGID_23_"  overflow="visible"/>
			</clipPath>
			<path clip-path="url(#SVGID_24_)" fill="#FFFFFF" d="M161.5,548.3c3.4,0,6.7-3.4,6.7-7.4V282.4l61.8-73.9l59.8,73.9v107.4
				c0,4,2.7,7.4,6.7,7.4c3.4,0,6.7-3.4,6.7-7.4V277L230,187.7L154.7,277v264.6C154.7,544.9,157.4,548.3,161.5,548.3"/>
		</g>
		<g>
			<defs>
				<rect id="SVGID_25_" x="154.7" y="-0.3" width="649.3" height="560"/>
			</defs>
			<clipPath id="SVGID_26_">
				<use xlink:href="#SVGID_25_"  overflow="visible"/>
			</clipPath>
			<path clip-path="url(#SVGID_26_)" fill="#FFFFFF" d="M462.3,536.9c3.4,0,6.7-3.4,6.7-7.4V350.9h24.2V209.2h13.4V13.8h59.1v195.4
				h13.4v141.7h24.2v179.3c0,4,2.7,7.4,6.7,7.4c3.4,0,6.7-3.4,6.7-7.4V336.8h-25.5V195.1h-13.4V-0.3h-83.9v195.4h-13.4v141.7h-24.2
				v193.4C455.6,533.5,458.9,536.9,462.3,536.9"/>
		</g>
		<g>
			<defs>
				<rect id="SVGID_27_" x="154.7" y="-0.3" width="649.3" height="560"/>
			</defs>
			<clipPath id="SVGID_28_">
				<use xlink:href="#SVGID_27_"  overflow="visible"/>
			</clipPath>
			<path clip-path="url(#SVGID_28_)" fill="#FFFFFF" d="M352.8,504.6c3.4,0,6.7-3.4,6.7-7.4V249.5c9.4-12.8,36.9-22.8,63.1-22.8
				c15.4,0,30.2,3.4,41.6,8.7c3.4,1.3,6.7,0,8.7-3.4c1.3-3.4,0-8.1-3.4-9.4c-13.4-6.7-29.5-10.1-47-10.1
				c-33.6,0-64.5,12.8-75.2,30.9l-1.3,2v252.5C346.1,501.3,348.8,504.6,352.8,504.6"/>
		</g>
		<g>
			<defs>
				<rect id="SVGID_29_" x="154.7" y="-0.3" width="649.3" height="560"/>
			</defs>
			<clipPath id="SVGID_30_">
				<use xlink:href="#SVGID_29_"  overflow="visible"/>
			</clipPath>
			<path clip-path="url(#SVGID_30_)" fill="#FFFFFF" d="M250.8,559.7h49V423.4H324V321.3h26.9c3.4,0,6.7-3.4,6.7-7.4
				c0-4-2.7-7.4-6.7-7.4h-39.6v102.7H287v135.6h-36.3c-3.4,0-6.7,3.4-6.7,7.4C244.7,556.3,247.4,559.7,250.8,559.7"/>
		</g>
	</g>
</g>
</svg>
