<?xml version="1.0" encoding="utf-8"?>
<!-- Generator: Adobe Illustrator 18.0.0, SVG Export Plug-In . SVG Version: 6.00 Build 0)  -->
<!DOCTYPE svg PUBLIC "-//W3C//DTD SVG 1.1//EN" "http://www.w3.org/Graphics/SVG/1.1/DTD/svg11.dtd">
<svg version="1.1" id="Calque_1" xmlns="http://www.w3.org/2000/svg" xmlns:xlink="http://www.w3.org/1999/xlink" x="0px" y="0px"
	 viewBox="0 0 26.4 26.8" enable-background="new 0 0 26.4 26.8" xml:space="preserve">
<g>
	<defs>
		<rect id="SVGID_1_" x="0" y="0" width="26.4" height="26.8"/>
	</defs>
	<clipPath id="SVGID_2_">
		<use xlink:href="#SVGID_1_"  overflow="visible"/>
	</clipPath>
	<path clip-path="url(#SVGID_2_)" fill="#5e5e60" d="M10.1,2.1c2,0,4.1,0.8,5.7,2.4c3.1,3.1,3.1,8.1,0.1,11.3c0,0,0,0,0,0
		c0,0-0.1,0-0.1,0.1c-3.1,3.1-8.2,3.1-11.3,0c-3.1-3.1-3.1-8.2,0-11.3C6,2.9,8.1,2.1,10.1,2.1z M10.1,0C7.5,0,4.9,1,3,3
		C-1,6.9-1,13.3,3,17.2c3.7,3.7,9.5,3.9,13.5,0.7h0l8.1,8.5c0.4,0.4,1.1,0.4,1.5,0c0.4-0.4,0.4-1.1,0-1.5l-8.2-8.5
		c3.2-4,3-9.8-0.7-13.5C15.3,1,12.7,0,10.1,0"/>
</g>
</svg>
