<?xml version="1.0" encoding="utf-8"?>
<!-- Generator: Adobe Illustrator 18.0.0, SVG Export Plug-In . SVG Version: 6.00 Build 0)  -->
<!DOCTYPE svg PUBLIC "-//W3C//DTD SVG 1.1//EN" "http://www.w3.org/Graphics/SVG/1.1/DTD/svg11.dtd">
<svg version="1.1" id="Calque_1" xmlns="http://www.w3.org/2000/svg" xmlns:xlink="http://www.w3.org/1999/xlink" x="0px" y="0px"
	 viewBox="0 0 26 26" enable-background="new 0 0 26 26" xml:space="preserve">
<g>
	<path fill="#FFFFFF" d="M21.3,24.9c-2,0-3.6-1.6-3.6-3.6s1.6-3.6,3.6-3.6s3.6,1.6,3.6,3.6S23.3,24.9,21.3,24.9 M4.7,16.6
		c-2,0-3.6-1.6-3.6-3.6s1.6-3.6,3.6-3.6S8.3,11,8.3,13S6.7,16.6,4.7,16.6 M21.3,1.1c2,0,3.6,1.6,3.6,3.6s-1.6,3.6-3.6,3.6
		s-3.6-1.6-3.6-3.6S19.3,1.1,21.3,1.1 M21.3,16.6c-1.6,0-3.1,0.8-3.9,2.1l-8.2-4.1c0.2-0.5,0.3-1,0.3-1.6c0-0.6-0.1-1.1-0.3-1.6
		l8.2-4.1c0.8,1.3,2.3,2.1,3.9,2.1c2.6,0,4.7-2.1,4.7-4.7C26,2.1,23.9,0,21.3,0s-4.7,2.1-4.7,4.7c0,0.6,0.1,1.1,0.3,1.6l-8.2,4.1
		C7.8,9.1,6.3,8.3,4.7,8.3C2.1,8.3,0,10.4,0,13c0,2.6,2.1,4.7,4.7,4.7c1.6,0,3.1-0.8,3.9-2.1l8.2,4.1c-0.2,0.5-0.3,1-0.3,1.6
		c0,2.6,2.1,4.7,4.7,4.7s4.7-2.1,4.7-4.7S23.9,16.6,21.3,16.6"/>
</g>
</svg>
