<?xml version="1.0" encoding="utf-8"?>
<!-- Generator: Adobe Illustrator 18.0.0, SVG Export Plug-In . SVG Version: 6.00 Build 0)  -->
<!DOCTYPE svg PUBLIC "-//W3C//DTD SVG 1.1//EN" "http://www.w3.org/Graphics/SVG/1.1/DTD/svg11.dtd">
<svg version="1.1" id="Calque_1" xmlns="http://www.w3.org/2000/svg" xmlns:xlink="http://www.w3.org/1999/xlink" x="0px" y="0px"
	 viewBox="0 0 35.5 35.3" enable-background="new 0 0 35.5 35.3" xml:space="preserve">
<g>
	<defs>
		<rect id="SVGID_1_" x="0" y="0" width="35.5" height="35.3"/>
	</defs>
	<clipPath id="SVGID_2_">
		<use xlink:href="#SVGID_1_"  overflow="visible"/>
	</clipPath>
	<path clip-path="url(#SVGID_2_)" fill="#5e5e60" d="M6.1,28.7l10.7,4.6l3.8-3.5c0.2-0.2,0.6-0.3,0.9-0.2l5.8,2l3.3-2.4
		c-1.2-3.3-3-8.1-3.2-8.7c-0.1-0.1-0.1-0.3-0.1-0.5c0-0.2,0.1-0.5,0.3-0.6c0.5-0.6,3.6-5.4,5.8-8.9l-13-8.5L14,7.7
		c-0.3,0.3-0.7,0.3-1.1,0.1l-2.7-1.6l-0.3,3c0,0.3-0.2,0.5-0.4,0.7C9.4,9.9,9.1,10,8.8,9.9L3.1,8.5l6.4,9.1c0.2,0.2,0.2,0.5,0.1,0.8
		L6.1,28.7z M17,35.3c-0.1,0-0.2,0-0.4-0.1L4.6,30c-0.4-0.2-0.7-0.7-0.5-1.1l3.7-10.7L0.2,7.5c-0.2-0.3-0.2-0.7,0-1
		c0.2-0.3,0.6-0.5,1-0.4l7.1,1.8l0.3-3.4c0-0.3,0.2-0.6,0.5-0.7c0.3-0.1,0.6-0.1,0.9,0l3.3,2l6.4-5.6c0.3-0.3,0.8-0.3,1.1-0.1
		l14.4,9.4c0.4,0.3,0.5,0.8,0.3,1.3c-3.9,6.2-5.5,8.5-6.1,9.4c0.4,0.9,1.2,3.2,3.4,9.1c0.1,0.4,0,0.8-0.3,1.1l-4.2,3.1
		c-0.2,0.2-0.6,0.2-0.8,0.1l-5.7-2L17.6,35C17.5,35.2,17.2,35.3,17,35.3"/>
</g>
</svg>
