<?xml version="1.0" encoding="UTF-8" standalone="no"?>
<!-- Created with Inkscape (http://www.inkscape.org/) -->

<svg
   xmlns:dc="http://purl.org/dc/elements/1.1/"
   xmlns:cc="http://creativecommons.org/ns#"
   xmlns:rdf="http://www.w3.org/1999/02/22-rdf-syntax-ns#"
   xmlns:svg="http://www.w3.org/2000/svg"
   xmlns="http://www.w3.org/2000/svg"
   xmlns:sodipodi="http://sodipodi.sourceforge.net/DTD/sodipodi-0.dtd"
   xmlns:inkscape="http://www.inkscape.org/namespaces/inkscape"
   width="42.344269mm"
   height="69.357872mm"
   viewBox="0 0 42.344269 69.357872"
   version="1.1"
   id="svg4267"
   inkscape:version="0.92.4 (5da689c313, 2019-01-14)"
   sodipodi:docname="logo.svg">
  <defs
     id="defs4261">
    <clipPath
       id="clipPath3731"
       clipPathUnits="userSpaceOnUse">
      <path
         inkscape:connector-curvature="0"
         id="path3729"
         d="M 0,196.605 H 120.031 V 0 H 0 Z" />
    </clipPath>
    <clipPath
       id="clipPath3925"
       clipPathUnits="userSpaceOnUse">
      <path
         inkscape:connector-curvature="0"
         id="path3923"
         d="m 17.383,151.887 h 85.034 v 28.541 H 17.383 Z" />
    </clipPath>
    <clipPath
       id="clipPath3965"
       clipPathUnits="userSpaceOnUse">
      <path
         inkscape:connector-curvature="0"
         id="path3963"
         d="M 0,196.605 H 120.031 V 0 H 0 Z" />
    </clipPath>
  </defs>
  <sodipodi:namedview
     id="base"
     pagecolor="#ffffff"
     bordercolor="#666666"
     borderopacity="1.0"
     inkscape:pageopacity="0.0"
     inkscape:pageshadow="2"
     inkscape:zoom="0.70710678"
     inkscape:cx="499.77439"
     inkscape:cy="-263.84338"
     inkscape:document-units="mm"
     inkscape:current-layer="layer1"
     showgrid="false"
     inkscape:window-width="1920"
     inkscape:window-height="1137"
     inkscape:window-x="-8"
     inkscape:window-y="-8"
     inkscape:window-maximized="1"
     fit-margin-top="0"
     fit-margin-left="0"
     fit-margin-right="0"
     fit-margin-bottom="0" />
  <metadata
     id="metadata4264">
    <rdf:RDF>
      <cc:Work
         rdf:about="">
        <dc:format>image/svg+xml</dc:format>
        <dc:type
           rdf:resource="http://purl.org/dc/dcmitype/StillImage" />
        <dc:title></dc:title>
      </cc:Work>
    </rdf:RDF>
  </metadata>
  <g
     inkscape:label="Layer 1"
     inkscape:groupmode="layer"
     id="layer1"
     transform="translate(-0.00120107,-1.4452915e-4)">
    <g
       transform="matrix(0.35277777,0,0,-0.35277777,0.00120107,69.358018)"
       inkscape:label="MCTRCT"
       id="g3721">
      <path
         inkscape:connector-curvature="0"
         id="path3723"
         style="fill:#ffffff;fill-opacity:1;fill-rule:nonzero;stroke:none"
         d="M 0.512,0 H 119.567 V 196.089 H 0.512 Z" />
      <g
         id="g3725">
        <g
           clip-path="url(#clipPath3731)"
           id="g3727">
          <path
             inkscape:connector-curvature="0"
             id="path3733"
             style="fill:none;stroke:#1a171b;stroke-width:1.12100005;stroke-linecap:butt;stroke-linejoin:miter;stroke-miterlimit:4;stroke-dasharray:none;stroke-opacity:1"
             d="M 119.566,0 H 0.511 v 196.089 h 119.055 z" />
          <g
             transform="translate(57.7012,135.8302)"
             id="g3735">
            <path
               inkscape:connector-curvature="0"
               id="path3737"
               style="fill:#1a171b;fill-opacity:1;fill-rule:nonzero;stroke:none"
               d="m 0,0 c -0.076,-0.104 -0.11,-0.244 -0.124,-0.524 -0.018,-0.3 -0.022,-0.532 -0.022,-0.967 0,-0.159 0.004,-0.642 0.004,-1.126 0,-0.488 -0.074,-0.783 -0.277,-1.077 -0.323,-0.469 -0.854,-0.707 -1.554,-0.707 -0.441,0 -0.775,0.086 -1.091,0.294 -0.489,0.316 -0.678,0.729 -0.678,1.471 0,0.754 0.013,1.083 0.013,1.331 0,0.354 0.022,0.724 -0.041,1.077 -0.044,0.249 -0.176,0.354 -0.468,0.384 V 0.35 l 0.162,-0.006 c 0.18,-0.008 0.439,-0.008 0.774,-0.008 0.337,0 0.597,0 0.778,0.008 L -2.365,0.35 V 0.156 c -0.214,-0.03 -0.321,-0.086 -0.391,-0.205 -0.06,-0.103 -0.092,-0.245 -0.098,-0.552 -0.013,-0.441 -0.019,-0.874 -0.019,-1.316 0,-1.202 0.025,-1.432 0.243,-1.686 0.168,-0.196 0.456,-0.328 0.789,-0.328 0.472,0 0.926,0.237 1.064,0.709 0.091,0.298 0.105,0.516 0.105,1.305 v 0.693 c 0,0.799 -0.021,1.043 -0.096,1.162 -0.078,0.126 -0.182,0.196 -0.365,0.218 V 0.35 c 0.279,-0.014 0.379,-0.014 0.728,-0.014 0.356,0 0.456,0 0.735,0.014 V 0.156 C 0.174,0.134 0.076,0.091 0,0" />
          </g>
          <g
             transform="translate(61.9648,131.6182)"
             id="g3739">
            <path
               inkscape:connector-curvature="0"
               id="path3741"
               style="fill:#1a171b;fill-opacity:1;fill-rule:nonzero;stroke:none"
               d="m 0,0 c -0.061,-0.104 -0.129,-0.125 -0.514,-0.125 -0.237,0 -0.47,0.014 -0.707,0.021 -0.336,0.006 -0.674,0.02 -1.008,0.02 -0.334,0 -0.673,-0.006 -1.005,-0.02 v 0.196 c 0.312,0.027 0.453,0.21 0.48,0.517 0.02,0.211 0.02,0.435 0.02,0.797 v 1.982 c 0,0.369 -0.02,0.538 -0.075,0.685 -0.064,0.182 -0.19,0.265 -0.425,0.295 V 4.562 H 0.037 C 0.037,4.36 0.031,4.149 0.031,3.947 0.031,3.779 0.023,3.619 0.037,3.45 H -0.216 C -0.261,3.99 -0.494,4.136 -1.328,4.136 -1.479,4.136 -1.682,4.13 -1.85,4.122 -1.865,3.849 -1.871,3.757 -1.871,3.353 V 2.542 c 0.103,-0.01 0.189,-0.01 0.314,-0.01 0.728,0 0.952,0.106 0.993,0.486 h 0.252 C -0.326,2.907 -0.326,2.673 -0.326,2.324 c 0,-0.358 0.008,-0.567 0.014,-0.678 h -0.252 c -0.02,0.397 -0.208,0.497 -0.931,0.497 -0.126,0 -0.254,-0.008 -0.376,-0.008 0,-0.441 0.006,-0.883 0.006,-1.323 0,-0.294 0.051,-0.391 0.219,-0.434 0.107,-0.027 0.263,-0.035 0.48,-0.035 0.758,0 1.02,0.169 1.182,0.742 L 0.289,1.031 C 0.193,0.54 0.078,0.134 0,0" />
          </g>
          <g
             transform="translate(68.4414,135.7989)"
             id="g3743">
            <path
               inkscape:connector-curvature="0"
               id="path3745"
               style="fill:#1a171b;fill-opacity:1;fill-rule:nonzero;stroke:none"
               d="m 0,0 c -0.01,0.611 -0.365,0.848 -1.32,0.848 -0.198,0 -0.386,-0.008 -0.596,-0.026 -0.018,-0.585 -0.018,-0.989 -0.018,-1.913 0.203,-0.01 0.308,-0.017 0.452,-0.017 0.787,0 1.022,0.136 1.069,0.593 h 0.299 c 0,-0.237 -0.014,-0.485 -0.014,-0.72 0,-0.314 0.014,-0.635 0.014,-0.951 h -0.299 c -0.063,0.51 -0.257,0.612 -1.147,0.612 -0.154,0 -0.211,0 -0.374,-0.01 v -0.949 c 0,-0.185 0,-0.389 0.01,-0.609 0.018,-0.466 0.049,-0.871 0.604,-0.906 v -0.236 l -0.203,0.008 c -0.214,0.007 -0.527,0.007 -0.925,0.007 -0.406,0 -0.711,0 -0.932,-0.007 l -0.2,-0.008 v 0.236 c 0.38,0.035 0.547,0.253 0.582,0.627 0.023,0.253 0.023,0.407 0.023,1.245 v 2.117 c 0,0.451 -0.023,0.653 -0.089,0.83 -0.078,0.22 -0.231,0.324 -0.516,0.354 V 1.363 H 0.313 C 0.296,1.202 0.296,0.933 0.296,0.578 0.296,0.237 0.296,0.187 0.313,0 Z" />
          </g>
          <g
             transform="translate(71.3223,135.8399)"
             id="g3747">
            <path
               inkscape:connector-curvature="0"
               id="path3749"
               style="fill:#1a171b;fill-opacity:1;fill-rule:nonzero;stroke:none"
               d="m 0,0 c -0.137,0 -0.263,-0.023 -0.416,-0.059 0,-0.413 -0.006,-1.16 -0.006,-1.741 0.073,-0.014 0.216,-0.022 0.307,-0.022 0.571,0 0.956,0.357 0.956,0.904 C 0.841,-0.386 0.485,0 0,0 m 1.803,-4.382 c -0.26,0 -0.407,0.035 -0.555,0.133 -0.231,0.154 -0.476,0.575 -0.617,0.812 -0.235,0.412 -0.505,0.852 -0.752,1.224 -0.044,-0.008 -0.079,-0.008 -0.107,-0.008 -0.07,0 -0.126,0.008 -0.194,0.008 v -0.372 c 0,-0.187 0.006,-0.376 0.006,-0.565 0.008,-0.378 0.014,-0.538 0.067,-0.686 0.073,-0.181 0.198,-0.273 0.431,-0.294 v -0.195 l -0.162,0.006 c -0.183,0.007 -0.436,0 -0.764,0 -0.321,0 -0.575,0.007 -0.756,0 l -0.167,-0.006 v 0.195 c 0.173,0.013 0.259,0.048 0.34,0.138 0.081,0.092 0.128,0.218 0.142,0.38 0.02,0.21 0.028,0.335 0.028,1.027 v 1.178 c 0,0.853 -0.028,1.062 -0.077,1.259 -0.047,0.189 -0.193,0.265 -0.433,0.294 V 0.34 c 0.138,-0.013 0.28,-0.006 0.421,-0.006 0.364,0 0.475,0 0.909,0.02 0.376,0.014 0.592,0.022 0.76,0.022 0.475,0 0.764,-0.071 1.003,-0.238 0.264,-0.189 0.442,-0.553 0.442,-0.917 0,-0.574 -0.38,-1.043 -1.024,-1.281 0.267,-0.333 0.475,-0.671 0.721,-1.055 0.223,-0.357 0.446,-0.665 0.626,-0.84 0.095,-0.105 0.157,-0.14 0.291,-0.175 V -4.325 C 2.199,-4.368 2.019,-4.382 1.803,-4.382" />
          </g>
          <g
             transform="translate(75.9023,134.9493)"
             id="g3751">
            <path
               inkscape:connector-curvature="0"
               id="path3753"
               style="fill:#1a171b;fill-opacity:1;fill-rule:nonzero;stroke:none"
               d="m 0,0 c -0.178,-0.476 -0.429,-1.092 -0.536,-1.434 h 1.034 z m 2.267,-3.429 c -0.173,0.008 -0.425,0.008 -0.746,0.008 -0.327,0 -0.581,0 -0.757,-0.008 L 0.602,-3.435 v 0.196 c 0.226,0.013 0.358,0.134 0.358,0.329 0,0.07 -0.02,0.167 -0.089,0.377 -0.086,0.26 -0.141,0.435 -0.225,0.673 h -1.343 l -0.141,-0.407 c -0.102,-0.314 -0.159,-0.546 -0.159,-0.665 0,-0.202 0.092,-0.294 0.315,-0.307 v -0.196 c -0.268,0.006 -0.364,0.014 -0.7,0.014 -0.329,0 -0.428,-0.008 -0.693,-0.014 v 0.196 c 0.103,0.013 0.138,0.027 0.219,0.097 0.129,0.119 0.262,0.364 0.474,0.896 l 0.665,1.695 c 0.181,0.454 0.454,1.188 0.643,1.782 H 0.401 C 0.465,1.015 0.611,0.672 0.709,0.418 l 0.985,-2.522 c 0.167,-0.429 0.289,-0.68 0.378,-0.841 0.098,-0.168 0.195,-0.252 0.366,-0.294 v -0.196 z" />
          </g>
          <g
             transform="translate(83.1504,135.773)"
             id="g3755">
            <path
               inkscape:connector-curvature="0"
               id="path3757"
               style="fill:#1a171b;fill-opacity:1;fill-rule:nonzero;stroke:none"
               d="m 0,0 c -0.079,-0.124 -0.091,-0.243 -0.104,-0.605 -0.022,-0.632 -0.03,-1.609 -0.03,-2.079 v -1.071 c 0,-0.162 0.02,-0.408 0.02,-0.503 h -0.475 c -0.453,0.594 -1.399,1.749 -1.399,1.749 -0.109,0.138 -0.984,1.216 -1.426,1.756 0,-0.147 -0.008,-0.055 -0.008,-0.511 V -1.72 c 0,-0.524 0.008,-1.042 0.03,-1.566 0.014,-0.295 0.041,-0.442 0.11,-0.572 0.072,-0.141 0.177,-0.197 0.38,-0.205 v -0.195 c -0.248,0.013 -0.495,0.013 -0.742,0.013 -0.253,0 -0.497,0 -0.75,-0.013 v 0.195 c 0.461,0.013 0.475,0.399 0.491,0.761 0.006,0.297 0.013,0.54 0.013,0.988 v 1.475 c 0,0.583 -0.029,0.723 -0.132,0.877 -0.069,0.11 -0.16,0.153 -0.372,0.175 v 0.194 c 0.234,-0.013 0.313,-0.013 0.612,-0.013 0.284,0 0.368,0 0.596,0.013 0.086,-0.154 0.22,-0.294 0.703,-0.882 0.685,-0.832 1.299,-1.537 1.882,-2.266 v 1.526 c 0,0.699 -0.014,0.875 -0.05,1.056 -0.051,0.226 -0.183,0.337 -0.442,0.372 v 0.194 c 0.288,-0.013 0.383,-0.013 0.741,-0.013 0.358,0 0.456,0 0.743,0.013 V 0.213 C 0.203,0.205 0.098,0.17 0,0" />
          </g>
          <g
             transform="translate(88.0313,131.6827)"
             id="g3759">
            <path
               inkscape:connector-curvature="0"
               id="path3761"
               style="fill:#1a171b;fill-opacity:1;fill-rule:nonzero;stroke:none"
               d="m 0,0 c -0.452,-0.184 -0.854,-0.254 -1.406,-0.254 l -0.063,-0.278 c 0.037,0.008 0.106,0 0.133,0 0.266,0 0.44,-0.189 0.44,-0.421 0,-0.376 -0.3,-0.643 -0.777,-0.643 -0.139,0 -0.264,0.03 -0.418,0.09 l 0.096,0.273 c 0.091,-0.036 0.177,-0.055 0.252,-0.055 0.198,0 0.331,0.097 0.331,0.273 0,0.14 -0.072,0.222 -0.174,0.222 -0.061,0 -0.106,-0.019 -0.157,-0.055 l -0.152,0.043 0.138,0.567 c -0.612,0.054 -1.062,0.258 -1.44,0.651 -0.433,0.44 -0.664,1.042 -0.664,1.75 0,1.508 0.971,2.419 2.575,2.419 0.481,0 0.95,-0.07 1.355,-0.203 C 0.054,4.217 0.054,4.058 0.054,3.904 0.054,3.785 0.063,3.531 0.069,3.372 h -0.274 c -0.109,0.497 -0.51,0.762 -1.143,0.762 -0.986,0 -1.588,-0.657 -1.588,-1.748 0,-1.26 0.706,-2.176 1.679,-2.176 0.589,0 0.986,0.292 1.143,0.852 L 0.155,1.007 C 0.089,0.769 0.029,0.37 0,0" />
          </g>
          <g
             transform="translate(90.6201,134.9493)"
             id="g3763">
            <path
               inkscape:connector-curvature="0"
               id="path3765"
               style="fill:#1a171b;fill-opacity:1;fill-rule:nonzero;stroke:none"
               d="m 0,0 c -0.181,-0.476 -0.436,-1.092 -0.54,-1.434 h 1.034 z m 2.266,-3.429 c -0.176,0.008 -0.427,0.008 -0.749,0.008 -0.328,0 -0.58,0 -0.757,-0.008 L 0.602,-3.435 v 0.196 c 0.221,0.013 0.354,0.134 0.354,0.329 0,0.07 -0.019,0.167 -0.09,0.377 -0.083,0.26 -0.139,0.435 -0.223,0.673 H -0.702 L -0.84,-2.267 c -0.105,-0.314 -0.161,-0.546 -0.161,-0.665 0,-0.202 0.089,-0.294 0.314,-0.307 v -0.196 c -0.264,0.006 -0.366,0.014 -0.701,0.014 -0.326,0 -0.424,-0.008 -0.691,-0.014 v 0.196 c 0.107,0.013 0.141,0.027 0.216,0.097 0.134,0.119 0.265,0.364 0.475,0.896 l 0.666,1.695 c 0.182,0.454 0.451,1.188 0.644,1.782 H 0.396 C 0.461,1.015 0.607,0.672 0.703,0.418 L 1.69,-2.104 c 0.168,-0.429 0.289,-0.68 0.378,-0.841 0.099,-0.168 0.198,-0.252 0.365,-0.294 v -0.196 z" />
          </g>
          <g
             transform="translate(95.1709,131.5206)"
             id="g3767">
            <path
               inkscape:connector-curvature="0"
               id="path3769"
               style="fill:#1a171b;fill-opacity:1;fill-rule:nonzero;stroke:none"
               d="m 0,0 c -0.174,0.008 -0.433,0.008 -0.76,0.008 -0.34,0 -0.589,0 -0.769,-0.008 l -0.173,-0.006 v 0.195 c 0.33,0.027 0.456,0.195 0.485,0.518 0.02,0.21 0.026,0.335 0.026,1.027 v 1.178 c 0,0.182 -0.006,0.371 -0.006,0.573 0,0.37 -0.014,0.538 -0.068,0.686 -0.064,0.182 -0.197,0.265 -0.437,0.294 V 4.66 l 0.173,-0.006 c 0.18,-0.008 0.429,-0.008 0.769,-0.008 0.327,0 0.586,0 0.76,0.008 L 0.169,4.66 V 4.465 C -0.133,4.444 -0.285,4.252 -0.314,3.939 -0.336,3.736 -0.336,3.54 -0.336,2.912 V 1.734 c 0,-0.916 0.006,-1.07 0.076,-1.251 0.067,-0.181 0.192,-0.273 0.429,-0.294 v -0.195 z" />
          </g>
          <g
             transform="translate(97.3438,131.4288)"
             id="g3771">
            <path
               inkscape:connector-curvature="0"
               id="path3773"
               style="fill:#1a171b;fill-opacity:1;fill-rule:nonzero;stroke:none"
               d="m 0,0 c -0.402,0 -0.697,0.057 -1.173,0.238 -0.02,0.267 -0.069,0.672 -0.126,1.01 l 0.265,0.043 c 0.17,-0.568 0.54,-0.864 1.077,-0.864 0.495,0 0.833,0.261 0.833,0.651 0,0.316 -0.216,0.534 -0.53,0.728 l -0.735,0.47 c -0.505,0.321 -0.798,0.658 -0.798,1.272 0,0.785 0.594,1.287 1.519,1.287 0.447,0 0.818,-0.084 1.147,-0.253 C 1.47,4.417 1.47,4.36 1.47,4.142 1.47,3.891 1.47,3.82 1.479,3.626 H 1.211 C 1.113,4.13 0.799,4.411 0.314,4.411 c -0.432,0 -0.746,-0.275 -0.746,-0.659 0,-0.336 0.23,-0.56 0.603,-0.798 L 0.764,2.57 C 1.331,2.198 1.652,1.841 1.652,1.283 1.652,0.519 0.982,0 0,0" />
          </g>
          <g
             transform="translate(102.9707,131.6182)"
             id="g3775">
            <path
               inkscape:connector-curvature="0"
               id="path3777"
               style="fill:#1a171b;fill-opacity:1;fill-rule:nonzero;stroke:none"
               d="m 0,0 c -0.064,-0.104 -0.133,-0.125 -0.516,-0.125 -0.238,0 -0.47,0.014 -0.71,0.021 -0.336,0.006 -0.671,0.02 -1.004,0.02 -0.337,0 -0.673,-0.006 -1.008,-0.02 v 0.196 c 0.315,0.027 0.45,0.21 0.481,0.517 0.021,0.211 0.021,0.435 0.021,0.797 v 1.982 c 0,0.369 -0.021,0.538 -0.077,0.685 C -2.874,4.255 -3,4.338 -3.238,4.368 V 4.562 H 0.035 C 0.035,4.36 0.025,4.149 0.025,3.947 0.025,3.779 0.02,3.619 0.035,3.45 H -0.217 C -0.268,3.99 -0.495,4.136 -1.329,4.136 -1.482,4.136 -1.686,4.13 -1.856,4.122 -1.868,3.849 -1.876,3.757 -1.876,3.353 V 2.542 c 0.106,-0.01 0.19,-0.01 0.314,-0.01 0.727,0 0.955,0.106 0.996,0.486 h 0.253 C -0.329,2.907 -0.329,2.673 -0.329,2.324 c 0,-0.358 0.006,-0.567 0.016,-0.678 h -0.253 c -0.022,0.397 -0.211,0.497 -0.932,0.497 -0.126,0 -0.252,-0.008 -0.378,-0.008 0,-0.441 0.008,-0.883 0.008,-1.323 0,-0.294 0.046,-0.391 0.216,-0.434 0.105,-0.027 0.266,-0.035 0.484,-0.035 0.753,0 1.022,0.169 1.184,0.742 L 0.288,1.031 C 0.187,0.54 0.076,0.134 0,0" />
          </g>
          <g
             transform="translate(55.0342,145.8419)"
             id="g3779">
            <path
               inkscape:connector-curvature="0"
               id="path3781"
               style="fill:#1a171b;fill-opacity:1;fill-rule:nonzero;stroke:none"
               d="m 0,0 c -0.272,0 -0.543,-0.206 -0.775,-0.586 -0.261,-0.417 -0.445,-0.969 -0.445,-1.329 0,-0.21 0.102,-0.327 0.274,-0.327 0.251,0 0.693,0.226 0.863,0.395 0.097,0.094 0.151,0.232 0.22,0.492 0.108,0.414 0.21,0.802 0.272,1.252 C 0.257,-0.035 0.114,0 0,0 m 0.313,-2.523 c -0.124,0 -0.165,0.076 -0.225,0.412 -0.503,-0.287 -0.871,-0.418 -1.234,-0.418 -0.408,0 -0.646,0.213 -0.646,0.585 0,0.36 0.176,0.873 0.45,1.295 0.366,0.573 0.824,0.933 1.52,0.933 0.305,0 0.585,-0.054 0.878,-0.128 L 1.021,0.047 C 0.776,-0.736 0.599,-1.602 0.599,-1.896 c 0,-0.183 0.041,-0.286 0.123,-0.286 0.054,0 0.198,0.041 0.367,0.103 L 1.11,-2.291 C 0.763,-2.419 0.427,-2.523 0.313,-2.523" />
          </g>
          <g
             transform="translate(58.3662,147.3262)"
             id="g3783">
            <path
               inkscape:connector-curvature="0"
               id="path3785"
               style="fill:#1a171b;fill-opacity:1;fill-rule:nonzero;stroke:none"
               d="m 0,0 c -0.227,-0.905 -0.45,-1.915 -0.671,-2.877 -0.068,-0.312 -0.1,-0.517 -0.1,-0.618 0,-0.101 0.047,-0.15 0.151,-0.15 0.068,0 0.187,0.028 0.372,0.082 l 0.016,-0.191 c -0.351,-0.136 -0.77,-0.253 -0.955,-0.253 -0.13,0 -0.205,0.076 -0.205,0.207 0,0.093 0.022,0.216 0.123,0.644 0.21,0.9 0.443,1.863 0.629,2.72 0.078,0.395 0.119,0.592 0.119,0.654 0,0.08 -0.041,0.121 -0.113,0.121 -0.068,0 -0.192,-0.027 -0.3,-0.066 l -0.015,0.205 c 0.346,0.122 0.728,0.216 0.917,0.216 0.097,0 0.144,-0.042 0.144,-0.115 C 0.112,0.51 0.087,0.353 0,0" />
          </g>
          <g
             transform="translate(59.3086,143.3267)"
             id="g3787">
            <path
               inkscape:connector-curvature="0"
               id="path3789"
               style="fill:#1a171b;fill-opacity:1;fill-rule:nonzero;stroke:none"
               d="m 0,0 c -0.137,0 -0.225,0.076 -0.225,0.199 0,0.06 0.02,0.17 0.055,0.32 0.09,0.36 0.213,0.851 0.279,1.11 0.096,0.354 0.137,0.598 0.137,0.696 0,0.087 -0.041,0.128 -0.115,0.128 -0.061,0 -0.123,-0.019 -0.268,-0.062 L -0.184,2.377 -0.205,2.568 c 0.379,0.144 0.744,0.231 0.93,0.231 0.103,0 0.14,-0.032 0.14,-0.114 0,-0.082 -0.031,-0.3 -0.156,-0.778 L 0.605,1.504 C 0.437,0.844 0.396,0.612 0.396,0.505 c 0,-0.101 0.053,-0.164 0.157,-0.164 0.06,0 0.183,0.028 0.372,0.096 L 0.94,0.246 C 0.58,0.102 0.193,0 0,0 m 0.744,3.481 c -0.211,0 -0.348,0.129 -0.348,0.328 0,0.243 0.178,0.415 0.422,0.415 0.204,0 0.335,-0.123 0.335,-0.32 0,-0.245 -0.169,-0.423 -0.409,-0.423" />
          </g>
          <g
             transform="translate(62.7324,145.7115)"
             id="g3791">
            <path
               inkscape:connector-curvature="0"
               id="path3793"
               style="fill:#1a171b;fill-opacity:1;fill-rule:nonzero;stroke:none"
               d="m 0,0 -0.562,0.012 -0.289,-1.396 c -0.075,-0.36 -0.083,-0.461 -0.083,-0.517 0,-0.094 0.052,-0.15 0.139,-0.15 0.045,0 0.15,0.027 0.311,0.076 l 0.072,0.019 0.021,-0.199 c -0.359,-0.141 -0.724,-0.238 -0.923,-0.238 -0.141,0 -0.23,0.069 -0.23,0.2 0,0.116 0.027,0.286 0.079,0.496 0.061,0.238 0.113,0.435 0.166,0.703 l 0.211,1.006 -0.361,-0.006 0.045,0.218 c 0.465,0.082 0.621,0.45 0.75,0.845 l 0.33,0.069 -0.173,-0.805 0.565,0.008 z" />
          </g>
          <g
             transform="translate(64.7715,145.8536)"
             id="g3795">
            <path
               inkscape:connector-curvature="0"
               id="path3797"
               style="fill:#1a171b;fill-opacity:1;fill-rule:nonzero;stroke:none"
               d="m 0,0 c -0.326,0 -0.675,-0.45 -0.846,-1.11 h 0.068 c 0.633,0 1.112,0.335 1.112,0.769 C 0.334,-0.15 0.181,0 0,0 m -0.702,-1.361 c -0.049,0 -0.109,0 -0.196,0.007 -0.022,-0.123 -0.03,-0.226 -0.03,-0.329 0,-0.345 0.123,-0.53 0.36,-0.53 0.221,0 0.491,0.115 0.893,0.368 l 0.077,-0.232 c -0.506,-0.313 -0.888,-0.458 -1.232,-0.458 -0.425,0 -0.654,0.254 -0.654,0.709 0,1.124 0.762,2.098 1.639,2.098 0.429,0 0.68,-0.196 0.68,-0.537 0,-0.627 -0.666,-1.096 -1.537,-1.096 m 0.755,2.057 -0.217,0.177 0.83,0.939 0.613,-0.148 z" />
          </g>
          <g
             transform="translate(77.7285,146.9581)"
             id="g3799">
            <path
               inkscape:connector-curvature="0"
               id="path3801"
               style="fill:#1a171b;fill-opacity:1;fill-rule:nonzero;stroke:none"
               d="m 0,0 h -0.196 c 0.006,0.068 0.011,0.123 0.011,0.156 0,0.136 -0.046,0.246 -0.127,0.327 -0.131,0.125 -0.369,0.172 -0.885,0.172 -0.145,0 -0.336,-0.006 -0.505,-0.014 -0.124,-0.559 -0.232,-1.097 -0.354,-1.678 0.128,0 0.256,-0.007 0.389,-0.007 0.754,0 0.904,0.07 1.049,0.513 h 0.181 C -0.546,-0.974 -0.632,-1.41 -0.695,-1.858 h -0.191 c 0.008,0.046 0.014,0.087 0.014,0.112 0,0.118 -0.047,0.227 -0.128,0.289 -0.117,0.087 -0.252,0.109 -0.661,0.109 -0.216,0 -0.278,-0.008 -0.459,-0.016 l -0.086,-0.454 c -0.131,-0.654 -0.176,-0.962 -0.176,-1.153 0,-0.278 0.123,-0.409 0.4,-0.442 l -0.026,-0.142 -0.112,0.006 c -0.051,0 -0.352,0.006 -0.608,0.006 -0.274,0 -0.78,0 -0.868,-0.006 l -0.118,-0.006 0.031,0.142 c 0.203,0.019 0.325,0.082 0.42,0.211 0.111,0.136 0.185,0.327 0.273,0.709 0.098,0.388 0.132,0.594 0.273,1.301 l 0.108,0.537 c 0.109,0.54 0.149,0.865 0.149,1.035 0,0.3 -0.106,0.423 -0.398,0.458 l 0.027,0.149 H 0.192 C 0.126,0.68 0.056,0.327 0,0" />
          </g>
          <g
             transform="translate(80.0469,145.2476)"
             id="g3803">
            <path
               inkscape:connector-curvature="0"
               id="path3805"
               style="fill:#1a171b;fill-opacity:1;fill-rule:nonzero;stroke:none"
               d="m 0,0 -0.222,0.021 c 0.012,0.08 0.02,0.176 0.02,0.266 0,0.123 -0.109,0.21 -0.278,0.21 -0.101,0 -0.205,-0.062 -0.292,-0.162 -0.259,-0.294 -0.363,-0.758 -0.512,-1.513 l -0.129,-0.66 c -0.258,-0.015 -0.33,-0.022 -0.593,-0.056 0.067,0.26 0.113,0.464 0.169,0.696 l 0.15,0.633 c 0.101,0.429 0.15,0.696 0.15,0.838 0,0.169 -0.043,0.246 -0.123,0.246 -0.04,0 -0.103,-0.014 -0.171,-0.036 L -2,0.429 -2.02,0.633 c 0.333,0.137 0.716,0.245 0.885,0.245 0.069,0 0.11,-0.026 0.125,-0.093 0.02,-0.082 0.031,-0.179 0.038,-0.294 0.307,0.253 0.581,0.395 0.77,0.395 0.13,0 0.292,-0.07 0.45,-0.183 C 0.14,0.456 0.057,0.232 0,0" />
          </g>
          <g
             transform="translate(82.4219,145.8419)"
             id="g3807">
            <path
               inkscape:connector-curvature="0"
               id="path3809"
               style="fill:#1a171b;fill-opacity:1;fill-rule:nonzero;stroke:none"
               d="m 0,0 c -0.271,0 -0.545,-0.206 -0.777,-0.586 -0.257,-0.417 -0.44,-0.969 -0.44,-1.329 0,-0.21 0.1,-0.327 0.269,-0.327 0.254,0 0.697,0.226 0.866,0.395 0.096,0.094 0.149,0.232 0.218,0.492 0.11,0.414 0.214,0.802 0.274,1.252 C 0.26,-0.035 0.115,0 0,0 m 0.314,-2.523 c -0.12,0 -0.163,0.076 -0.224,0.412 -0.505,-0.287 -0.873,-0.418 -1.235,-0.418 -0.406,0 -0.644,0.213 -0.644,0.585 0,0.36 0.177,0.873 0.45,1.295 0.365,0.573 0.823,0.933 1.516,0.933 0.308,0 0.587,-0.054 0.882,-0.128 L 1.023,0.047 C 0.775,-0.736 0.601,-1.602 0.601,-1.896 c 0,-0.183 0.039,-0.286 0.122,-0.286 0.052,0 0.197,0.041 0.367,0.103 L 1.111,-2.291 C 0.764,-2.419 0.43,-2.523 0.314,-2.523" />
          </g>
          <g
             transform="translate(85.9854,145.7115)"
             id="g3811">
            <path
               inkscape:connector-curvature="0"
               id="path3813"
               style="fill:#1a171b;fill-opacity:1;fill-rule:nonzero;stroke:none"
               d="m 0,0 -0.565,0.012 -0.288,-1.396 c -0.072,-0.36 -0.082,-0.461 -0.082,-0.517 0,-0.094 0.049,-0.15 0.138,-0.15 0.047,0 0.151,0.027 0.314,0.076 l 0.068,0.019 0.019,-0.199 c -0.354,-0.141 -0.719,-0.238 -0.916,-0.238 -0.145,0 -0.233,0.069 -0.233,0.2 0,0.116 0.024,0.286 0.082,0.496 0.059,0.238 0.108,0.435 0.162,0.703 l 0.211,1.006 -0.361,-0.006 0.047,0.218 c 0.464,0.082 0.623,0.45 0.752,0.845 l 0.325,0.069 -0.17,-0.805 0.562,0.008 z" />
          </g>
          <g
             transform="translate(88.0234,145.8536)"
             id="g3815">
            <path
               inkscape:connector-curvature="0"
               id="path3817"
               style="fill:#1a171b;fill-opacity:1;fill-rule:nonzero;stroke:none"
               d="m 0,0 c -0.328,0 -0.678,-0.45 -0.849,-1.11 h 0.07 c 0.633,0 1.111,0.335 1.111,0.769 C 0.332,-0.15 0.183,0 0,0 m -0.703,-1.361 c -0.047,0 -0.109,0 -0.197,0.007 -0.02,-0.123 -0.03,-0.226 -0.03,-0.329 0,-0.345 0.125,-0.53 0.361,-0.53 0.219,0 0.49,0.115 0.893,0.368 l 0.074,-0.232 c -0.504,-0.313 -0.883,-0.458 -1.233,-0.458 -0.42,0 -0.653,0.254 -0.653,0.709 0,1.124 0.763,2.098 1.641,2.098 0.429,0 0.683,-0.196 0.683,-0.537 0,-0.627 -0.667,-1.096 -1.539,-1.096" />
          </g>
          <g
             transform="translate(91.5918,145.2476)"
             id="g3819">
            <path
               inkscape:connector-curvature="0"
               id="path3821"
               style="fill:#1a171b;fill-opacity:1;fill-rule:nonzero;stroke:none"
               d="m 0,0 -0.226,0.021 c 0.014,0.08 0.02,0.176 0.02,0.266 0,0.123 -0.109,0.21 -0.279,0.21 -0.104,0 -0.204,-0.062 -0.294,-0.162 -0.257,-0.294 -0.36,-0.758 -0.511,-1.513 l -0.129,-0.66 c -0.257,-0.015 -0.326,-0.022 -0.594,-0.056 0.073,0.26 0.119,0.464 0.172,0.696 l 0.15,0.633 c 0.101,0.429 0.148,0.696 0.148,0.838 0,0.169 -0.041,0.246 -0.119,0.246 -0.043,0 -0.103,-0.014 -0.169,-0.036 L -2.002,0.429 -2.024,0.633 c 0.333,0.137 0.714,0.245 0.885,0.245 0.067,0 0.109,-0.026 0.124,-0.093 0.02,-0.082 0.034,-0.179 0.039,-0.294 0.306,0.253 0.581,0.395 0.77,0.395 0.13,0 0.293,-0.07 0.449,-0.183 C 0.134,0.456 0.053,0.232 0,0" />
          </g>
          <g
             transform="translate(94.3057,143.3189)"
             id="g3823">
            <path
               inkscape:connector-curvature="0"
               id="path3825"
               style="fill:#1a171b;fill-opacity:1;fill-rule:nonzero;stroke:none"
               d="m 0,0 c -0.138,0 -0.217,0.084 -0.217,0.207 0,0.08 0.028,0.23 0.109,0.571 l 0.068,0.285 c 0.206,0.852 0.255,1.139 0.255,1.254 0,0.103 -0.049,0.157 -0.146,0.157 -0.115,0 -0.305,-0.07 -0.509,-0.191 C -0.658,2.161 -0.825,2.019 -0.904,1.894 -0.969,1.792 -1.016,1.615 -1.097,1.255 -1.204,0.758 -1.274,0.417 -1.328,0.096 -1.594,0.076 -1.66,0.068 -1.928,0.035 c 0.138,0.513 0.239,0.933 0.34,1.405 0.104,0.461 0.145,0.68 0.145,0.803 0,0.155 -0.047,0.231 -0.151,0.231 -0.054,0 -0.169,-0.027 -0.334,-0.081 l -0.011,0.19 c 0.326,0.131 0.68,0.224 0.842,0.224 0.15,0 0.201,-0.087 0.201,-0.409 V 2.344 C -0.381,2.638 0.15,2.807 0.518,2.807 0.743,2.807 0.834,2.753 0.834,2.616 0.834,2.474 0.791,2.25 0.646,1.697 0.564,1.383 0.491,1.05 0.466,0.9 0.425,0.701 0.403,0.579 0.403,0.507 c 0,-0.103 0.053,-0.158 0.15,-0.158 0.062,0 0.19,0.027 0.353,0.088 L 0.926,0.238 C 0.564,0.109 0.156,0 0,0" />
          </g>
          <g
             transform="translate(96.4326,143.3267)"
             id="g3827">
            <path
               inkscape:connector-curvature="0"
               id="path3829"
               style="fill:#1a171b;fill-opacity:1;fill-rule:nonzero;stroke:none"
               d="m 0,0 c -0.139,0 -0.227,0.076 -0.227,0.199 0,0.06 0.02,0.17 0.057,0.32 0.087,0.36 0.209,0.851 0.277,1.11 0.095,0.354 0.137,0.598 0.137,0.696 0,0.087 -0.042,0.128 -0.113,0.128 -0.065,0 -0.125,-0.019 -0.27,-0.062 L -0.186,2.377 -0.207,2.568 c 0.377,0.144 0.745,0.231 0.926,0.231 0.103,0 0.143,-0.032 0.143,-0.114 0,-0.082 -0.032,-0.3 -0.155,-0.778 L 0.606,1.504 C 0.433,0.844 0.395,0.612 0.395,0.505 0.395,0.404 0.45,0.341 0.55,0.341 c 0.062,0 0.182,0.028 0.375,0.096 L 0.938,0.246 C 0.577,0.102 0.187,0 0,0 m 0.738,3.481 c -0.21,0 -0.343,0.129 -0.343,0.328 0,0.243 0.174,0.415 0.421,0.415 0.204,0 0.335,-0.123 0.335,-0.32 0,-0.245 -0.172,-0.423 -0.413,-0.423" />
          </g>
          <g
             transform="translate(99.8555,145.7115)"
             id="g3831">
            <path
               inkscape:connector-curvature="0"
               id="path3833"
               style="fill:#1a171b;fill-opacity:1;fill-rule:nonzero;stroke:none"
               d="m 0,0 -0.566,0.012 -0.286,-1.396 c -0.078,-0.36 -0.084,-0.461 -0.084,-0.517 0,-0.094 0.049,-0.15 0.138,-0.15 0.05,0 0.15,0.027 0.313,0.076 l 0.068,0.019 0.021,-0.199 c -0.352,-0.141 -0.722,-0.238 -0.918,-0.238 -0.144,0 -0.233,0.069 -0.233,0.2 0,0.116 0.03,0.286 0.083,0.496 0.06,0.238 0.109,0.435 0.163,0.703 l 0.212,1.006 -0.361,-0.006 0.046,0.218 c 0.463,0.082 0.62,0.45 0.75,0.845 l 0.329,0.069 -0.172,-0.805 0.565,0.008 z" />
          </g>
          <g
             transform="translate(101.8926,145.8536)"
             id="g3835">
            <path
               inkscape:connector-curvature="0"
               id="path3837"
               style="fill:#1a171b;fill-opacity:1;fill-rule:nonzero;stroke:none"
               d="m 0,0 c -0.328,0 -0.676,-0.45 -0.845,-1.11 h 0.067 c 0.634,0 1.11,0.335 1.11,0.769 C 0.332,-0.15 0.181,0 0,0 m -0.701,-1.361 c -0.051,0 -0.112,0 -0.2,0.007 -0.022,-0.123 -0.028,-0.226 -0.028,-0.329 0,-0.345 0.125,-0.53 0.365,-0.53 0.216,0 0.488,0.115 0.89,0.368 L 0.4,-2.077 c -0.503,-0.313 -0.884,-0.458 -1.233,-0.458 -0.42,0 -0.65,0.254 -0.65,0.709 0,1.124 0.762,2.098 1.638,2.098 0.43,0 0.681,-0.196 0.681,-0.537 0,-0.627 -0.667,-1.096 -1.537,-1.096 M 0.053,0.696 -0.165,0.873 0.667,1.812 1.28,1.664 Z" />
          </g>
          <g
             transform="translate(70.0117,144.5875)"
             id="g3839">
            <path
               inkscape:connector-curvature="0"
               id="path3841"
               style="fill:#1a171b;fill-opacity:1;fill-rule:nonzero;stroke:none"
               d="M 0,0 C 0.457,0 0.828,0.37 0.828,0.828 0.828,1.286 0.457,1.653 0,1.653 -0.456,1.653 -0.828,1.286 -0.828,0.828 -0.828,0.37 -0.456,0 0,0" />
          </g>
          <path
             inkscape:connector-curvature="0"
             id="path3843"
             style="fill:#ffffff;fill-opacity:1;fill-rule:nonzero;stroke:none"
             d="M 102.416,151.886 H 17.383 v 28.542 h 85.033 z" />
          <g
             transform="translate(19.5605,136.7496)"
             id="g3845">
            <path
               inkscape:connector-curvature="0"
               id="path3847"
               style="fill:#1a171b;fill-opacity:1;fill-rule:nonzero;stroke:none"
               d="m 0,0 c -0.168,0 -0.321,-0.027 -0.506,-0.068 0,-0.501 -0.008,-1.407 -0.008,-2.11 0.091,-0.018 0.26,-0.024 0.371,-0.024 0.694,0 1.163,0.431 1.163,1.092 C 1.02,-0.468 0.586,0 0,0 m 2.178,-5.303 c -0.314,0 -0.491,0.041 -0.668,0.16 -0.281,0.187 -0.577,0.695 -0.746,0.982 -0.289,0.5 -0.611,1.035 -0.916,1.484 -0.051,-0.01 -0.092,-0.01 -0.127,-0.01 -0.083,0 -0.152,0.01 -0.235,0.01 v -0.449 c 0,-0.231 0.008,-0.457 0.008,-0.687 0.008,-0.456 0.016,-0.652 0.083,-0.83 0.086,-0.219 0.237,-0.331 0.519,-0.356 V -5.235 L -0.1,-5.227 c -0.221,0.008 -0.525,0 -0.923,0 -0.391,0 -0.694,0.008 -0.915,0 l -0.203,-0.008 v 0.236 c 0.212,0.018 0.313,0.061 0.416,0.17 0.092,0.111 0.151,0.262 0.168,0.457 0.026,0.253 0.034,0.408 0.034,1.246 v 1.423 c 0,1.033 -0.034,1.287 -0.092,1.523 -0.061,0.228 -0.239,0.324 -0.526,0.355 v 0.238 c 0.169,-0.016 0.338,-0.008 0.508,-0.008 0.441,0 0.576,0 1.102,0.025 0.457,0.018 0.719,0.026 0.923,0.026 0.576,0 0.922,-0.084 1.212,-0.289 0.321,-0.228 0.531,-0.668 0.531,-1.108 0,-0.696 -0.455,-1.261 -1.235,-1.551 0.321,-0.406 0.575,-0.81 0.872,-1.278 0.269,-0.432 0.541,-0.805 0.752,-1.017 0.12,-0.127 0.197,-0.169 0.357,-0.212 V -5.235 C 2.661,-5.286 2.441,-5.303 2.178,-5.303" />
          </g>
          <g
             transform="translate(26.0849,131.6182)"
             id="g3849">
            <path
               inkscape:connector-curvature="0"
               id="path3851"
               style="fill:#1a171b;fill-opacity:1;fill-rule:nonzero;stroke:none"
               d="m 0,0 c -0.065,-0.104 -0.135,-0.125 -0.521,-0.125 -0.236,0 -0.467,0.014 -0.705,0.021 -0.335,0.006 -0.671,0.02 -1.006,0.02 -0.337,0 -0.673,-0.006 -1.008,-0.02 v 0.196 c 0.313,0.027 0.454,0.21 0.481,0.517 0.022,0.211 0.022,0.435 0.022,0.797 v 1.982 c 0,0.369 -0.022,0.538 -0.076,0.685 -0.065,0.182 -0.19,0.265 -0.427,0.295 V 4.562 H 0.032 C 0.032,4.36 0.026,4.149 0.026,3.947 0.026,3.779 0.02,3.619 0.032,3.45 h -0.25 C -0.267,3.99 -0.499,4.136 -1.331,4.136 -1.485,4.136 -1.687,4.13 -1.854,4.122 -1.868,3.849 -1.876,3.757 -1.876,3.353 V 2.542 c 0.105,-0.01 0.189,-0.01 0.315,-0.01 0.726,0 0.951,0.106 0.992,0.486 h 0.253 C -0.331,2.907 -0.331,2.673 -0.331,2.324 c 0,-0.358 0.01,-0.567 0.015,-0.678 h -0.253 c -0.02,0.397 -0.208,0.497 -0.93,0.497 -0.127,0 -0.251,-0.008 -0.377,-0.008 0,-0.441 0.008,-0.883 0.008,-1.323 0,-0.294 0.049,-0.391 0.215,-0.434 0.105,-0.027 0.265,-0.035 0.482,-0.035 0.756,0 1.023,0.169 1.185,0.742 L 0.284,1.031 C 0.188,0.54 0.075,0.134 0,0 m -1.561,5.019 -0.329,0.194 0.692,1.023 0.804,-0.149 z" />
          </g>
          <g
             transform="translate(29.001,133.5938)"
             id="g3853">
            <path
               inkscape:connector-curvature="0"
               id="path3855"
               style="fill:#1a171b;fill-opacity:1;fill-rule:nonzero;stroke:none"
               d="m 0,0 c -0.07,0 -0.104,0 -0.196,0.006 l -0.155,0.356 c 0.659,0.043 1.023,0.364 1.023,0.896 0,0.559 -0.386,0.959 -0.917,0.959 -0.084,0 -0.154,-0.006 -0.266,-0.03 0,-0.433 -0.013,-0.867 -0.013,-1.301 v -1.225 c 0,-0.916 0.005,-1.07 0.076,-1.251 0.064,-0.181 0.188,-0.273 0.427,-0.294 v -0.195 l -0.168,0.006 c -0.181,0.008 -0.435,0.008 -0.769,0.008 -0.33,0 -0.589,0 -0.764,-0.008 l -0.166,-0.006 v 0.195 c 0.314,0.027 0.453,0.211 0.481,0.518 0.021,0.21 0.021,0.335 0.021,1.027 v 1.751 c 0,0.37 -0.021,0.538 -0.078,0.686 -0.062,0.181 -0.186,0.265 -0.424,0.294 v 0.194 c 0.084,-0.005 0.02,-0.005 0.322,-0.005 0.118,0 0.286,0 0.51,0.005 0.356,0.015 0.713,0.036 1.07,0.036 0.993,0 1.587,-0.489 1.587,-1.302 C 1.601,0.557 0.923,0 0,0" />
          </g>
          <g
             transform="translate(35.3574,135.8302)"
             id="g3857">
            <path
               inkscape:connector-curvature="0"
               id="path3859"
               style="fill:#1a171b;fill-opacity:1;fill-rule:nonzero;stroke:none"
               d="m 0,0 c -0.076,-0.104 -0.111,-0.244 -0.125,-0.524 -0.016,-0.3 -0.021,-0.532 -0.021,-0.967 0,-0.159 0.005,-0.642 0.005,-1.126 0,-0.488 -0.076,-0.783 -0.278,-1.077 -0.321,-0.469 -0.854,-0.707 -1.553,-0.707 -0.44,0 -0.777,0.086 -1.091,0.294 -0.49,0.316 -0.679,0.729 -0.679,1.471 0,0.754 0.015,1.083 0.015,1.331 0,0.354 0.022,0.724 -0.043,1.077 -0.043,0.249 -0.175,0.354 -0.469,0.384 V 0.35 l 0.16,-0.006 c 0.183,-0.008 0.442,-0.008 0.777,-0.008 0.337,0 0.593,0 0.778,0.008 L -2.363,0.35 V 0.156 c -0.218,-0.03 -0.325,-0.086 -0.392,-0.205 -0.064,-0.103 -0.091,-0.245 -0.099,-0.552 -0.013,-0.441 -0.019,-0.874 -0.019,-1.316 0,-1.202 0.027,-1.432 0.243,-1.686 0.169,-0.196 0.454,-0.328 0.788,-0.328 0.471,0 0.926,0.237 1.067,0.709 0.091,0.298 0.105,0.516 0.105,1.305 v 0.693 c 0,0.799 -0.022,1.043 -0.1,1.162 -0.076,0.126 -0.181,0.196 -0.363,0.218 V 0.35 c 0.279,-0.014 0.377,-0.014 0.728,-0.014 0.356,0 0.454,0 0.734,0.014 V 0.156 C 0.176,0.134 0.078,0.091 0,0" />
          </g>
          <g
             transform="translate(38.1562,133.8643)"
             id="g3861">
            <path
               inkscape:connector-curvature="0"
               id="path3863"
               style="fill:#1a171b;fill-opacity:1;fill-rule:nonzero;stroke:none"
               d="M 0,0 C -0.121,0 -0.244,-0.007 -0.428,-0.019 -0.434,-0.21 -0.434,-0.245 -0.434,-0.567 v -0.411 c 0,-0.394 0.014,-0.602 0.063,-0.742 0.056,-0.176 0.224,-0.259 0.517,-0.259 0.594,0 0.93,0.329 0.93,0.916 C 1.076,-0.413 0.657,0 0,0 M -0.021,1.952 C -0.147,1.952 -0.273,1.94 -0.398,1.94 -0.406,1.484 -0.42,0.701 -0.428,0.407 c 0.076,-0.008 0.176,-0.015 0.307,-0.015 0.686,0 1.08,0.288 1.08,0.791 0,0.483 -0.366,0.769 -0.98,0.769 M 1.502,-2.021 C 1.175,-2.273 0.805,-2.357 0.09,-2.357 c -0.377,0 -0.764,0.027 -1.139,0.027 -0.154,0 -0.441,0 -0.638,-0.014 L -1.771,-2.35 v 0.196 c 0.33,0.027 0.455,0.195 0.484,0.517 0.021,0.211 0.027,0.336 0.027,1.027 v 1.325 c 0,0.65 -0.006,0.931 -0.078,1.112 -0.068,0.182 -0.195,0.265 -0.433,0.295 v 0.194 c 0.322,-0.014 0.511,-0.014 0.959,-0.014 0.406,0 1.013,0.022 1.418,0.022 C 1.252,2.324 1.84,2.017 1.84,1.288 1.84,0.75 1.502,0.386 0.838,0.218 1.58,0.07 1.972,-0.356 1.972,-1.05 c 0,-0.419 -0.154,-0.733 -0.47,-0.971" />
          </g>
          <g
             transform="translate(44.0781,131.6104)"
             id="g3865">
            <path
               inkscape:connector-curvature="0"
               id="path3867"
               style="fill:#1a171b;fill-opacity:1;fill-rule:nonzero;stroke:none"
               d="m 0,0 c -0.061,-0.096 -0.146,-0.117 -0.496,-0.117 -0.174,0 -0.358,0.006 -0.529,0.013 -0.435,0.014 -0.829,0.028 -1.304,0.028 -0.357,0 -0.593,-0.006 -0.818,-0.02 V 0.1 c 0.174,0.013 0.266,0.048 0.342,0.137 0.127,0.149 0.162,0.329 0.162,0.843 0,0.35 0.006,0.63 0.006,0.993 v 0.749 c 0,0.943 -0.006,1.068 -0.076,1.259 -0.062,0.182 -0.195,0.265 -0.434,0.294 V 4.57 l 0.174,-0.006 c 0.19,-0.008 0.449,-0.008 0.797,-0.008 0.344,0 0.61,0 0.791,0.008 L -1.209,4.57 V 4.375 C -1.566,4.375 -1.72,4.187 -1.763,3.849 -1.775,3.73 -1.781,3.619 -1.781,2.822 V 1.654 c 0,-0.972 0.006,-1.093 0.096,-1.191 0.076,-0.077 0.225,-0.112 0.527,-0.112 0.383,0 0.592,0.043 0.769,0.14 0.196,0.105 0.34,0.315 0.41,0.61 L 0.289,1.03 C 0.211,0.623 0.078,0.121 0,0" />
          </g>
          <g
             transform="translate(46.5117,131.5206)"
             id="g3869">
            <path
               inkscape:connector-curvature="0"
               id="path3871"
               style="fill:#1a171b;fill-opacity:1;fill-rule:nonzero;stroke:none"
               d="m 0,0 c -0.176,0.008 -0.435,0.008 -0.762,0.008 -0.337,0 -0.588,0 -0.769,-0.008 l -0.168,-0.006 v 0.195 c 0.33,0.027 0.456,0.195 0.483,0.518 0.022,0.21 0.028,0.335 0.028,1.027 v 1.178 c 0,0.182 -0.006,0.371 -0.006,0.573 0,0.37 -0.016,0.538 -0.073,0.686 -0.063,0.182 -0.194,0.265 -0.432,0.294 V 4.66 l 0.168,-0.006 c 0.181,-0.008 0.432,-0.008 0.769,-0.008 0.327,0 0.586,0 0.762,0.008 L 0.168,4.66 V 4.465 C -0.131,4.444 -0.284,4.252 -0.313,3.939 -0.335,3.736 -0.335,3.54 -0.335,2.912 V 1.734 c 0,-0.916 0.006,-1.07 0.077,-1.251 C -0.197,0.302 -0.07,0.21 0.168,0.189 v -0.195 z" />
          </g>
          <g
             transform="translate(49.7519,135.7887)"
             id="g3873">
            <path
               inkscape:connector-curvature="0"
               id="path3875"
               style="fill:#1a171b;fill-opacity:1;fill-rule:nonzero;stroke:none"
               d="m 0,0 c -0.855,0 -1.464,-0.712 -1.464,-1.714 0,-1.218 0.72,-2.176 1.637,-2.176 0.86,0 1.469,0.728 1.469,1.744 C 1.642,-0.944 0.921,0 0,0 m 3.299,-5.534 c -0.543,0 -1.123,0.167 -1.677,0.475 -0.315,0.176 -0.757,0.477 -1.077,0.743 -0.237,-0.036 -0.33,-0.044 -0.553,-0.044 -1.415,0 -2.351,0.926 -2.351,2.317 0,1.492 1.011,2.519 2.497,2.519 1.439,0 2.399,-0.924 2.399,-2.309 0,-0.986 -0.504,-1.86 -1.299,-2.267 0.25,-0.125 0.501,-0.266 0.746,-0.412 0.715,-0.434 1.204,-0.617 1.666,-0.617 0.287,0 0.524,0.065 0.805,0.205 L 4.546,-5.172 C 4.201,-5.41 3.777,-5.534 3.299,-5.534" />
          </g>
          <g
             transform="translate(19.8174,143.4908)"
             id="g3877">
            <path
               inkscape:connector-curvature="0"
               id="path3879"
               style="fill:#1a171b;fill-opacity:1;fill-rule:nonzero;stroke:none"
               d="m 0,0 c -0.062,-0.082 -0.163,-0.109 -0.409,-0.109 -0.334,0 -0.66,0.021 -0.995,0.027 -0.286,0.006 -0.503,0.014 -0.654,0.014 -0.204,0 -0.7,-0.008 -0.844,-0.014 l -0.096,-0.006 0.027,0.142 c 0.207,0.02 0.327,0.082 0.423,0.211 0.11,0.136 0.178,0.327 0.274,0.709 0.086,0.374 0.127,0.6 0.269,1.301 l 0.111,0.538 c 0.11,0.545 0.151,0.864 0.151,1.034 0,0.3 -0.111,0.423 -0.404,0.458 l 0.027,0.15 c 0.041,-0.006 0.076,-0.006 0.096,-0.006 0.253,0 0.498,-0.008 0.75,-0.008 0.394,0 0.653,0.008 0.769,0.008 0.02,0 0.061,0 0.109,0.006 L -0.423,4.305 C -0.633,4.292 -0.749,4.237 -0.851,4.101 -1.022,3.884 -1.118,3.59 -1.369,2.275 L -1.459,1.819 C -1.567,1.26 -1.608,1.069 -1.642,0.818 -1.655,0.736 -1.661,0.646 -1.661,0.606 c 0,-0.265 0.135,-0.349 0.57,-0.349 0.77,0 1.057,0.16 1.307,0.717 L 0.401,0.906 C 0.237,0.456 0.083,0.109 0,0" />
          </g>
          <g
             transform="translate(21.0976,143.3267)"
             id="g3881">
            <path
               inkscape:connector-curvature="0"
               id="path3883"
               style="fill:#1a171b;fill-opacity:1;fill-rule:nonzero;stroke:none"
               d="m 0,0 c -0.139,0 -0.227,0.076 -0.227,0.199 0,0.06 0.022,0.17 0.055,0.32 0.09,0.36 0.211,0.851 0.281,1.11 0.093,0.354 0.137,0.598 0.137,0.696 0,0.087 -0.044,0.128 -0.117,0.128 -0.061,0 -0.123,-0.019 -0.268,-0.062 L -0.186,2.377 -0.205,2.568 c 0.374,0.144 0.74,0.231 0.926,0.231 0.101,0 0.144,-0.032 0.144,-0.114 0,-0.082 -0.035,-0.3 -0.158,-0.778 L 0.605,1.504 C 0.434,0.844 0.395,0.612 0.395,0.505 c 0,-0.101 0.052,-0.164 0.156,-0.164 0.06,0 0.183,0.028 0.375,0.096 L 0.939,0.246 C 0.578,0.102 0.188,0 0,0 m 0.742,3.481 c -0.213,0 -0.347,0.129 -0.347,0.328 0,0.243 0.177,0.415 0.421,0.415 0.205,0 0.333,-0.123 0.333,-0.32 0,-0.245 -0.17,-0.423 -0.407,-0.423" />
          </g>
          <g
             transform="translate(24.8418,145.8341)"
             id="g3885">
            <path
               inkscape:connector-curvature="0"
               id="path3887"
               style="fill:#1a171b;fill-opacity:1;fill-rule:nonzero;stroke:none"
               d="m 0,0 c -0.123,0 -0.273,-0.048 -0.464,-0.152 -0.196,-0.099 -0.341,-0.208 -0.415,-0.312 -0.09,-0.122 -0.164,-0.333 -0.267,-0.783 -0.101,-0.422 -0.148,-0.69 -0.148,-0.783 0,-0.128 0.148,-0.204 0.421,-0.204 0.281,0 0.518,0.13 0.695,0.38 C 0.096,-1.465 0.3,-0.843 0.3,-0.401 0.3,-0.144 0.197,0 0,0 m 0.008,-2.188 c -0.268,-0.231 -0.58,-0.327 -1.065,-0.327 -0.531,0 -0.849,0.09 -0.849,0.226 0,0.055 0.006,0.123 0.073,0.409 l 0.354,1.547 c 0.116,0.497 0.205,0.89 0.327,1.449 0.068,0.327 0.095,0.505 0.095,0.594 0,0.081 -0.041,0.129 -0.117,0.129 -0.046,0 -0.195,-0.035 -0.299,-0.066 l -0.006,0.197 0.083,0.025 c 0.368,0.122 0.673,0.191 0.818,0.191 0.087,0 0.141,-0.041 0.141,-0.115 0,-0.076 -0.033,-0.245 -0.149,-0.751 l -0.203,-0.9 c -0.07,-0.292 -0.09,-0.4 -0.109,-0.494 0.428,0.251 0.802,0.366 1.142,0.366 0.416,0 0.621,-0.212 0.621,-0.641 0,-0.632 -0.361,-1.408 -0.857,-1.839" />
          </g>
          <g
             transform="translate(27.8926,145.8536)"
             id="g3889">
            <path
               inkscape:connector-curvature="0"
               id="path3891"
               style="fill:#1a171b;fill-opacity:1;fill-rule:nonzero;stroke:none"
               d="m 0,0 c -0.328,0 -0.674,-0.45 -0.844,-1.11 h 0.069 c 0.632,0 1.108,0.335 1.108,0.769 C 0.333,-0.15 0.186,0 0,0 m -0.701,-1.361 c -0.047,0 -0.11,0 -0.197,0.007 -0.022,-0.123 -0.028,-0.226 -0.028,-0.329 0,-0.345 0.123,-0.53 0.362,-0.53 0.216,0 0.49,0.115 0.891,0.368 L 0.4,-2.077 c -0.504,-0.313 -0.883,-0.458 -1.23,-0.458 -0.423,0 -0.654,0.254 -0.654,0.709 0,1.124 0.761,2.098 1.64,2.098 0.43,0 0.681,-0.196 0.681,-0.537 0,-0.627 -0.665,-1.096 -1.538,-1.096" />
          </g>
          <g
             transform="translate(31.4609,145.2476)"
             id="g3893">
            <path
               inkscape:connector-curvature="0"
               id="path3895"
               style="fill:#1a171b;fill-opacity:1;fill-rule:nonzero;stroke:none"
               d="m 0,0 -0.224,0.021 c 0.014,0.08 0.02,0.176 0.02,0.266 0,0.123 -0.109,0.21 -0.278,0.21 -0.102,0 -0.205,-0.062 -0.293,-0.162 -0.259,-0.294 -0.363,-0.758 -0.512,-1.513 l -0.129,-0.66 c -0.259,-0.015 -0.328,-0.022 -0.592,-0.056 0.068,0.26 0.116,0.464 0.169,0.696 l 0.151,0.633 c 0.1,0.429 0.151,0.696 0.151,0.838 0,0.169 -0.043,0.246 -0.124,0.246 -0.039,0 -0.102,-0.014 -0.17,-0.036 L -2.002,0.429 -2.021,0.633 c 0.333,0.137 0.714,0.245 0.883,0.245 0.071,0 0.11,-0.026 0.123,-0.093 0.022,-0.082 0.036,-0.179 0.041,-0.294 0.306,0.253 0.578,0.395 0.77,0.395 0.13,0 0.294,-0.07 0.45,-0.183 C 0.137,0.456 0.055,0.232 0,0" />
          </g>
          <g
             transform="translate(33.7695,145.7115)"
             id="g3897">
            <path
               inkscape:connector-curvature="0"
               id="path3899"
               style="fill:#1a171b;fill-opacity:1;fill-rule:nonzero;stroke:none"
               d="M 0,0 -0.564,0.012 -0.85,-1.384 c -0.075,-0.36 -0.081,-0.461 -0.081,-0.517 0,-0.094 0.046,-0.15 0.134,-0.15 0.049,0 0.151,0.027 0.315,0.076 l 0.067,0.019 0.021,-0.199 c -0.354,-0.141 -0.723,-0.238 -0.918,-0.238 -0.145,0 -0.233,0.069 -0.233,0.2 0,0.116 0.025,0.286 0.082,0.496 0.061,0.238 0.108,0.435 0.164,0.703 l 0.209,1.006 -0.359,-0.006 0.047,0.218 c 0.464,0.082 0.619,0.45 0.75,0.845 l 0.326,0.069 -0.17,-0.805 0.564,0.008 z" />
          </g>
          <g
             transform="translate(35.8066,145.8536)"
             id="g3901">
            <path
               inkscape:connector-curvature="0"
               id="path3903"
               style="fill:#1a171b;fill-opacity:1;fill-rule:nonzero;stroke:none"
               d="m 0,0 c -0.327,0 -0.674,-0.45 -0.843,-1.11 h 0.066 c 0.634,0 1.111,0.335 1.111,0.769 C 0.334,-0.15 0.184,0 0,0 m -0.703,-1.361 c -0.047,0 -0.108,0 -0.196,0.007 -0.02,-0.123 -0.025,-0.226 -0.025,-0.329 0,-0.345 0.119,-0.53 0.358,-0.53 0.217,0 0.491,0.115 0.892,0.368 l 0.076,-0.232 c -0.505,-0.313 -0.884,-0.458 -1.233,-0.458 -0.423,0 -0.655,0.254 -0.655,0.709 0,1.124 0.763,2.098 1.642,2.098 0.431,0 0.682,-0.196 0.682,-0.537 0,-0.627 -0.668,-1.096 -1.541,-1.096 M 0.055,0.696 -0.163,0.873 0.666,1.812 1.281,1.664 Z" />
          </g>
          <g
             transform="translate(48.8574,146.9503)"
             id="g3905">
            <path
               inkscape:connector-curvature="0"
               id="path3907"
               style="fill:#1a171b;fill-opacity:1;fill-rule:nonzero;stroke:none"
               d="m 0,0 h -0.197 c 0.006,0.076 0.013,0.103 0.013,0.15 0,0.376 -0.246,0.507 -0.924,0.507 -0.224,0 -0.445,0 -0.667,-0.022 -0.144,-0.567 -0.242,-1.055 -0.356,-1.664 h 0.253 c 0.435,0 0.62,0.008 0.775,0.035 0.251,0.047 0.402,0.197 0.478,0.471 h 0.182 c -0.093,-0.404 -0.209,-0.975 -0.258,-1.322 h -0.184 c 0.008,0.047 0.014,0.088 0.014,0.115 0,0.293 -0.185,0.39 -0.744,0.39 -0.33,0 -0.453,-0.008 -0.578,-0.016 -0.034,-0.169 0,-0.019 -0.155,-0.805 -0.076,-0.379 -0.103,-0.619 -0.103,-0.74 0,-0.239 0.123,-0.301 0.579,-0.301 0.858,0 1.124,0.138 1.389,0.723 l 0.171,-0.069 c -0.153,-0.448 -0.313,-0.808 -0.409,-0.925 -0.068,-0.074 -0.156,-0.096 -0.441,-0.096 -0.24,0 -0.484,0.006 -0.724,0.014 -0.313,0.008 -0.634,0.014 -0.946,0.014 -0.32,0 -0.636,-0.006 -0.955,-0.006 l 0.027,0.142 c 0.204,0.019 0.329,0.082 0.422,0.211 0.109,0.135 0.18,0.327 0.274,0.709 0.087,0.381 0.117,0.537 0.272,1.301 l 0.109,0.537 c 0.109,0.532 0.15,0.865 0.15,1.035 0,0.3 -0.109,0.423 -0.401,0.458 l 0.028,0.149 H 0.191 C 0.117,0.688 0.047,0.321 0,0 m -1.293,1.452 -0.219,0.177 0.832,0.94 0.619,-0.149 z" />
          </g>
          <g
             transform="translate(51.0254,143.1085)"
             id="g3909">
            <path
               inkscape:connector-curvature="0"
               id="path3911"
               style="fill:#1a171b;fill-opacity:1;fill-rule:nonzero;stroke:none"
               d="m 0,0 c -0.234,0.088 -0.51,0.186 -0.799,0.267 -0.469,-0.117 -0.797,-0.463 -0.797,-0.86 0,-0.367 0.317,-0.613 0.805,-0.613 0.594,0 1.136,0.403 1.136,0.838 C 0.345,-0.204 0.244,-0.093 0,0 m -0.104,2.759 c -0.367,0 -0.666,-0.388 -0.666,-0.852 0,-0.319 0.181,-0.537 0.449,-0.537 0.362,0 0.654,0.374 0.654,0.838 0,0.341 -0.171,0.551 -0.437,0.551 M 1.195,2.609 0.734,2.615 C 0.814,2.474 0.844,2.365 0.844,2.208 0.844,1.58 0.319,1.097 -0.36,1.097 -0.49,1.097 -0.589,1.11 -0.729,1.149 -0.9,1.05 -0.954,1.001 -0.954,0.941 c 0,-0.076 0.073,-0.111 0.375,-0.204 l 0.544,-0.17 c 0.546,-0.171 0.81,-0.335 0.81,-0.73 0,-0.723 -0.714,-1.288 -1.629,-1.288 -0.748,0 -1.205,0.354 -1.205,0.933 0,0.532 0.34,0.785 0.9,0.928 -0.341,0.122 -0.415,0.177 -0.415,0.292 0,0.15 0.197,0.335 0.606,0.558 -0.212,0.151 -0.311,0.349 -0.311,0.622 0,0.645 0.515,1.136 1.195,1.136 0.176,0 0.309,-0.021 0.458,-0.074 h 0.899 z" />
          </g>
          <g
             transform="translate(41.0654,144.5875)"
             id="g3913">
            <path
               inkscape:connector-curvature="0"
               id="path3915"
               style="fill:#1a171b;fill-opacity:1;fill-rule:nonzero;stroke:none"
               d="M 0,0 C 0.458,0 0.825,0.37 0.825,0.828 0.825,1.286 0.458,1.653 0,1.653 -0.456,1.653 -0.826,1.286 -0.826,0.828 -0.826,0.37 -0.456,0 0,0" />
          </g>
          <path
             inkscape:connector-curvature="0"
             id="path3917"
             style="fill:#1a171b;fill-opacity:1;fill-rule:nonzero;stroke:none"
             d="m 17.264,140.156 h 84.949 v 0.321 H 17.264 Z" />
        </g>
      </g>
      <g
         id="g3919">
        <g
           clip-path="url(#clipPath3925)"
           id="g3921">
          <g
             transform="translate(17.164,151.7174)"
             id="g3927">
            <path
               inkscape:connector-curvature="0"
               id="path3929"
               style="fill:#004493;fill-opacity:1;fill-rule:nonzero;stroke:none"
               d="m 0,0 c 0.131,7.079 0,14.094 0.197,21.175 0.065,2.534 -0.066,5.068 -0.066,7.599 1.754,0.326 3.508,0.131 5.262,0.067 11.234,0 22.406,0.064 33.64,0 -0.777,-0.39 -1.688,-0.715 -2.271,-1.43 -0.52,-0.649 -1.039,-1.3 -1.235,-2.078 -0.845,-0.521 -1.364,-1.3 -1.82,-2.08 -0.584,-1.104 -1.428,-2.078 -1.297,-3.311 0.129,-1.04 0.39,-2.014 0.584,-3.119 0.065,-0.389 0.129,-0.715 0.258,-1.104 0.133,-0.39 0,-0.844 0.197,-1.169 0.13,-0.196 0.066,-0.456 0.322,-0.584 v -0.261 c 0.067,-0.064 0.067,-0.129 0.2,-0.129 v -0.261 c 0.518,-0.649 1.166,-1.233 1.492,-1.948 0.131,-0.39 -0.65,-0.195 -0.974,-0.065 -0.651,0.324 -1.04,0.844 -1.559,1.298 0,0 -0.065,-0.064 -0.065,-0.128 0.258,-0.454 1.233,-1.041 0.714,-1.365 -0.261,-0.13 -0.585,0.195 -0.846,-0.065 -0.063,-0.131 0,-0.26 0,-0.39 -0.387,0.259 -0.777,0.13 -1.169,0.259 -0.257,0.066 -0.326,0.587 -0.648,0.587 -0.846,0.192 -1.623,0.389 -2.469,0.453 -1.168,0.131 -2.273,0.325 -3.441,0.131 -1.041,-0.064 -1.819,-0.846 -2.469,-1.624 v -0.196 c 0.454,-0.064 0.65,0.326 1.041,0.456 0.649,0.129 1.233,0.389 1.884,0.518 0.972,0.195 1.881,0.454 2.791,0.39 0.194,0 0.456,0.064 0.648,0 -1.169,0.064 -2.206,-0.324 -3.311,-0.649 -0.77,-0.226 -1.559,-0.259 -2.274,-0.651 1.69,0.066 3.379,-0.194 5,-0.713 0.585,-0.195 1.106,-0.456 1.625,-0.781 0.262,-0.194 0.39,-0.39 0.65,-0.518 0.325,-0.194 0.781,-0.194 1.104,-0.066 h 0.325 c 0.974,0.261 2.013,0.52 2.662,1.235 0,-0.065 0.064,-0.065 0.131,-0.065 -0.194,-0.519 -0.194,-1.104 -0.585,-1.558 0,-0.066 -0.065,-0.196 0.064,-0.261 h 0.13 c -0.064,0 -0.13,0 -0.13,-0.064 0,-0.131 0.197,0 0.261,-0.131 -0.325,-0.064 -0.651,-0.131 -0.846,-0.389 0,-0.066 0.131,-0.066 0.195,-0.066 -0.131,-0.129 -0.323,-0.065 -0.387,-0.195 0,0 0.064,-0.065 0.128,-0.065 -0.064,0 -0.128,0 -0.128,-0.064 V 6.43 c -0.197,0 -0.263,-0.13 -0.392,-0.197 0.262,-0.192 0.456,0 0.715,0 -0.715,-0.256 -1.299,-0.648 -2.012,-0.843 -0.131,0 0,-0.195 -0.131,-0.195 0.196,-0.13 0.325,0.066 0.518,0.066 -0.906,-0.521 -1.817,-0.973 -2.791,-1.56 0,0 -0.129,-0.128 -0.129,-0.259 H 29.032 C 28.901,3.378 28.967,3.181 28.838,3.053 c 0.324,-0.196 0.713,0.258 0.91,0 0.064,0 -0.131,-0.065 -0.262,-0.065 -0.064,0 -0.064,-0.131 -0.131,-0.131 h -0.193 c -0.13,-0.129 -0.261,-0.196 -0.261,-0.389 -0.128,0 -0.256,0 -0.323,-0.129 1.428,0.193 2.922,0.064 4.287,0.778 1.037,0.52 2.014,1.233 2.858,2.144 0,0 0.063,-0.066 0.063,-0.13 C 35.594,4.482 35.201,4.026 34.682,3.637 34.292,3.442 34.033,3.117 33.707,2.988 33.515,2.857 33.318,2.728 33.123,2.597 30.721,1.753 27.863,2.143 25.785,0.518 c 0,0.065 -0.066,0.065 -0.131,0.065 -0.129,-0.129 -0.324,-0.194 -0.388,-0.324 0,-0.129 0.196,-0.065 0.259,-0.065 0.391,0.26 0.778,0.455 1.234,0.583 C 26.238,0.518 25.719,0.13 25.2,0 c -1.104,-0.194 -2.142,-0.13 -3.247,0 0.651,0.389 1.299,0.843 2.012,1.233 -0.193,0.13 -0.387,0.13 -0.582,0.13 -0.325,-0.066 -0.715,0.129 -1.041,0 C 21.368,0.91 20.069,1.039 19.551,0" />
          </g>
          <g
             transform="translate(39.1172,159.5777)"
             id="g3931">
            <path
               inkscape:connector-curvature="0"
               id="path3933"
               style="fill:#ffffff;fill-opacity:1;fill-rule:nonzero;stroke:none"
               d="m 0,0 c -0.199,-0.051 -0.39,-0.197 -0.323,-0.325 0.192,-0.262 0.582,0.064 0.907,0.064 -0.39,-0.131 -0.844,-0.064 -1.169,-0.39 0.262,-0.195 0.521,-0.064 0.779,-0.064 0,-0.131 0.131,-0.131 0.195,-0.197 C 0.066,-1.041 -0.193,-1.299 -0.26,-1.497 -0.39,-1.82 -0.715,-1.95 -0.91,-2.211 v -0.193 c -0.649,-0.586 -1.363,-0.974 -1.883,-1.689 0.065,0 0.065,-0.066 0.065,-0.131 -0.13,-0.194 -0.389,-0.258 -0.454,-0.455 0,-0.065 0,-0.129 0.065,-0.129 0.779,0.259 1.363,0.846 2.078,1.103 0.518,0.132 0.908,0.456 1.364,0.584 0.325,0.066 0.713,0.197 1.038,0.261 0,-0.064 0,-0.13 0.067,-0.13 H 1.948 C 1.883,-3.121 1.625,-3.055 1.689,-3.121 c 0.194,-0.192 0.584,-0.128 0.843,0 0.196,0.131 0.39,0.131 0.652,0.131 0.063,0 0.063,0.13 0.063,0.195 0.194,-0.065 0.325,-0.065 0.519,-0.065 1.56,0.325 3.054,0.649 4.484,1.363 -1.689,1.3 -3.834,1.756 -5.846,2.34 0.195,0 0.387,-0.194 0.584,0 -0.324,0.26 -0.715,0.129 -1.04,0.324 0.064,0 0.195,-0.064 0.261,0.066 -0.52,0.259 -1.04,0.259 -1.559,0.39 0.324,0.064 0.519,0.325 0.519,0.648 0,0.066 -0.131,0.066 -0.195,0.066 C 0.194,1.948 -0.323,1.233 -0.648,0.388 -0.193,0.128 0.325,0.323 0.779,0.259 0.584,0.064 0.259,0.064 0,0" />
          </g>
          <g
             transform="translate(36.4541,162.1095)"
             id="g3935">
            <path
               inkscape:connector-curvature="0"
               id="path3937"
               style="fill:#ffffff;fill-opacity:1;fill-rule:nonzero;stroke:none"
               d="m 0,0 c -0.663,-0.702 -1.364,-1.365 -2.208,-1.818 -0.586,-1.17 -1.234,-2.21 -2.078,-3.313 0,-0.066 0.064,-0.13 0.064,-0.13 1.559,1.753 2.989,3.247 5.001,4.482 0.13,0.065 -0.193,-0.195 0.066,-0.13 0.843,0.195 1.103,1.038 1.495,1.689 0.517,0.845 1.428,1.168 2.076,1.884 0,-0.065 0,-0.131 -0.063,-0.195 C 4.416,2.403 4.482,2.403 4.546,2.403 4.806,2.599 5.132,2.533 5.327,2.794 4.806,2.987 4.157,3.053 3.637,2.858 2.273,2.208 1.104,1.169 0,0" />
          </g>
          <g
             transform="translate(37.4297,160.8746)"
             id="g3939">
            <path
               inkscape:connector-curvature="0"
               id="path3941"
               style="fill:#ffffff;fill-opacity:1;fill-rule:nonzero;stroke:none"
               d="m 0,0 c 0.057,0.117 0.129,0.131 0.193,0.261 0,0.065 0,0.129 -0.064,0.129 -0.26,-0.064 -0.453,-0.326 -0.519,-0.584 0,-0.064 0.066,-0.064 0.129,-0.064 C -0.131,-0.194 -0.066,-0.13 0,0" />
          </g>
          <g
             transform="translate(42.626,155.9386)"
             id="g3943">
            <path
               inkscape:connector-curvature="0"
               id="path3945"
               style="fill:#ffffff;fill-opacity:1;fill-rule:nonzero;stroke:none"
               d="M 0,0 C -0.262,-0.131 -0.718,-0.131 -0.781,-0.454 -0.845,-0.584 -0.587,-0.52 -0.456,-0.52 0,-0.323 0.52,-0.52 0.907,-0.131 0.776,0 0.584,-0.066 0.454,0.128 0.323,0.195 0.128,0.066 0,0" />
          </g>
          <g
             transform="translate(49.7031,152.4303)"
             id="g3947">
            <path
               inkscape:connector-curvature="0"
               id="path3949"
               style="fill:#004c98;fill-opacity:1;fill-rule:nonzero;stroke:none"
               d="m 0,0 c 0.4,0.09 0.779,0.326 1.168,0.456 v -0.13 c 0.975,0.389 1.687,1.235 2.664,1.558 0.064,0 0.194,-0.129 0.326,-0.065 0.584,0.521 1.232,1.105 2.076,0.974 0,-0.064 0,-0.128 0.066,-0.128 0.065,0 0.13,0 0.13,0.064 C 6.171,2.534 5.91,2.34 5.65,2.145 5.586,2.079 5.65,2.015 5.717,2.015 6.041,2.145 6.234,2.404 6.559,2.534 6.494,2.468 6.494,2.34 6.43,2.275 5.197,1.363 4.287,0.326 3.311,-0.779 H 1.299 c 0,0.066 0,0.13 -0.067,0.13 -2.271,-0.194 -4.478,-0.13 -6.752,-0.13 1.297,0.196 2.598,0.584 3.897,0.715 0.52,0 1.04,-0.066 1.623,0.064" />
          </g>
          <g
             transform="translate(75.292,155.7437)"
             id="g3951">
            <path
               inkscape:connector-curvature="0"
               id="path3953"
               style="fill:#e1001a;fill-opacity:1;fill-rule:nonzero;stroke:none"
               d="M 0,0 C 0.155,0.469 0.326,0.974 0.062,1.43 -0.326,2.014 0.454,2.207 0.711,2.599 0.909,2.922 0.585,3.119 0.519,3.442 0.454,3.573 0.193,3.509 0.062,3.704 0.519,3.898 1.233,4.288 0.909,4.873 0.711,5.195 0.391,5.716 0.779,6.041 1.233,6.3 1.949,6.236 2.142,6.692 2.468,7.471 1.752,8.12 1.366,8.769 1.167,9.16 0.909,9.419 0.646,9.809 0.391,10.264 0.062,10.654 -0.063,11.172 -0.259,11.692 0,12.146 0,12.666 c 0.062,0.975 -0.194,1.948 -0.455,2.925 -0.192,0.453 -0.261,0.973 -0.457,1.428 -0.064,0.261 -0.128,0.52 -0.322,0.778 -0.063,0.131 -0.063,0.326 0,0.456 0.258,0.195 0.518,0.39 0.779,0.649 0.196,0.325 0.066,0.781 -0.261,0.976 -0.453,0.193 -0.388,-0.456 -0.713,-0.584 h -0.196 c -0.063,0.193 0.064,0.259 0.196,0.389 0,0.065 0,0.195 -0.065,0.195 -0.259,0 -0.52,0.064 -0.584,0.193 -0.65,0.91 -1.561,1.366 -2.535,1.755 0.264,-0.064 0.52,-0.131 0.781,-0.131 0.456,-0.064 0.975,-0.064 1.362,0.131 0.326,0.129 0.392,0.649 0.521,0.974 0.13,0.259 -0.065,0.651 -0.195,0.846 -0.326,0.518 -0.845,0.843 -1.364,1.102 H 27.275 C 27.34,15.137 27.211,5.521 27.146,-4.093 c -12.146,-0.195 -24.29,0 -36.434,0 0.39,1.3 1.105,2.534 2.274,3.378 0.258,0.131 0.584,0.195 0.91,0.261 1.103,0 2.207,-0.325 3.311,-0.456 0.13,0 0.259,-0.064 0.392,-0.128 0.387,-0.066 0.84,-0.066 1.232,0.064 C -0.716,-0.845 -0.194,-0.584 0,0" />
          </g>
          <g
             transform="translate(72.8223,168.5406)"
             id="g3955">
            <path
               inkscape:connector-curvature="0"
               id="path3957"
               style="fill:#9b9c9e;fill-opacity:1;fill-rule:nonzero;stroke:none"
               d="m 0,0 c -0.382,0.095 -0.714,0 -1.104,0 -0.519,-0.131 -0.974,-0.195 -1.427,-0.389 0.387,0.258 0.778,0.517 1.234,0.648 0.325,0.066 0.648,0.261 0.974,0.261 C 0.068,0.584 0.456,0.715 0.781,0.584 1.103,0.454 1.624,0.454 1.69,0.259 1.822,-0.131 1.494,-0.521 1.103,-0.779 1.041,-0.91 1.301,-0.974 1.301,-1.104 1.235,-1.233 1.041,-1.299 0.909,-1.299 0.781,-1.364 0.65,-1.559 0.521,-1.689 c 0.129,0 0,-0.195 0.129,-0.195 -0.258,-0.325 0.131,-0.973 -0.258,-1.104 -0.456,-0.131 -0.975,-0.131 -1.496,0 0.262,0.064 0.584,-0.065 0.781,0.195 v 0.26 c 0,0.064 -0.065,0.064 -0.127,0.064 -0.07,-0.064 -0.133,-0.064 -0.133,-0.064 0,0.13 -0.131,0.26 -0.196,0.26 -0.39,-0.066 -0.711,0.13 -0.974,0.389 0.194,0.065 0.391,0.131 0.584,0.065 0.197,0 0.131,0.325 0.327,0.455 h 0.193 c 0.391,0.521 1.17,0.649 1.299,1.169 C 0.65,-0.064 0.262,-0.064 0,0" />
          </g>
        </g>
      </g>
      <g
         id="g3959">
        <g
           clip-path="url(#clipPath3965)"
           id="g3961">
          <g
             transform="translate(0.5117,116.6461)"
             id="g3967">
            <path
               inkscape:connector-curvature="0"
               id="path3969"
               style="fill:none;stroke:#1a171b;stroke-width:1;stroke-linecap:butt;stroke-linejoin:miter;stroke-miterlimit:4;stroke-dasharray:none;stroke-opacity:1"
               d="M 0,0 H 119.056" />
          </g>
        </g>
      </g>
      <text
         id="text3985"
         style="font-variant:normal;font-weight:normal;font-stretch:normal;font-size:11px;font-family:'Times New Roman';-inkscape-font-specification:TimesNewRomanPSMT;writing-mode:lr-tb;fill:#1a171b;fill-opacity:1;fill-rule:nonzero;stroke:none"
         transform="matrix(1,0,0,-1,31.3389,94.082)">
        <tspan
           id="tspan3971"
           sodipodi:role="line"
           y="0"
           x="0 9.724 13.332 21.219 24.827 30.888 37.554001 44.220001 51.501999">MINISTRE</tspan>
        <tspan
           id="tspan3973"
           sodipodi:role="line"
           y="12.595"
           x="-16.797001 -8.9099998 -2.244 0.45100001 7.1170001 14.399 17.094 24.375999 32.263 40.150002 46.816002 52.876999 56.485001 64.372002 72.259003">DE LA COHSION</tspan>
        <tspan
           id="tspan3975"
           sodipodi:role="line"
           y="25.190001"
           x="-18.556999 -10.67 -4.0040002 2.0569999 4.5539999 11.22 17.886 25.167999 32.450001 36.057999 42.5238 50.410801 54.018799 61.3008 67.966797 74.027802">DES TERRITOIRES</tspan>
        <tspan
           id="tspan3977"
           sodipodi:role="line"
           y="37.785"
           x="-21.527 -14.861 -8.3951998 -5.7002001 2.1868 8.8528004 14.9138 17.608801 24.8908 31.556801 38.222801 44.892101 51.558102 55.1661 63.053101 70.940102 77.001099">ET DES RELATIONS</tspan>
        <tspan
           id="tspan3979"
           sodipodi:role="line"
           y="50.380001"
           x="2.5409999 9.0122995 16.8993 23.5653 30.8473 33.542301 40.208302 46.874298 52.935299">AVEC LES</tspan>
        <tspan
           id="tspan3981"
           sodipodi:role="line"
           y="62.974998"
           x="-14.069 -6.7870002 1.1 7.7659998 14.432 21.098 28.379999 35.046001 38.653999 46.541 50.148998 56.814999 63.480999 69.542">COLLECTIVITS</tspan>
        <tspan
           id="tspan3983"
           sodipodi:role="line"
           y="75.57"
           x="-12.936 -6.27 0.396 7.678 14.96 18.568001 25.0338 32.920799 40.202801 43.810799 51.6978 58.3638 65.0298">TERRITORIALES</tspan>
      </text>
    </g>
  </g>
</svg>
