<?xml version="1.0" encoding="utf-8"?>
<!-- Generator: Adobe Illustrator 15.1.0, SVG Export Plug-In . SVG Version: 6.00 Build 0)  -->
<!DOCTYPE svg PUBLIC "-//W3C//DTD SVG 1.1//EN" "http://www.w3.org/Graphics/SVG/1.1/DTD/svg11.dtd">
<svg version="1.1" id="Calque_1" xmlns="http://www.w3.org/2000/svg" xmlns:xlink="http://www.w3.org/1999/xlink" x="0px" y="0px"
	 width="2.625px" height="1.191px" viewBox="3.659 3.238 2.625 1.191" enable-background="new 3.659 3.238 2.625 1.191"
	 xml:space="preserve">
<g>
	<rect x="3.665" y="3.238" fill="#FFFFFF" width="0.768" height="0.257"/>
	<path d="M3.704,3.68c-0.002,0-0.004,0-0.007-0.002C3.695,3.677,3.692,3.672,3.691,3.669C3.688,3.665,3.686,3.66,3.683,3.656
		c-0.001,0-0.001,0-0.001,0c-0.001,0-0.001,0-0.001,0V3.66c0,0.001,0,0.004,0,0.006c0,0.004,0,0.007,0,0.008
		c0.001,0.001,0.002,0.002,0.004,0.003v0.001H3.683c-0.001,0-0.004,0-0.008,0c-0.004,0-0.006,0-0.008,0l0,0V3.678
		c0.002,0,0.002-0.001,0.003-0.002s0.002-0.002,0.002-0.004c0-0.003,0-0.003,0-0.011V3.648c0-0.009,0-0.012-0.001-0.014
		C3.67,3.633,3.669,3.632,3.667,3.632V3.63c0.002,0,0.002,0,0.004,0c0.003,0,0.005,0,0.01,0c0.005,0,0.007,0,0.008,0
		c0.005,0,0.008,0.001,0.011,0.002c0.002,0.002,0.004,0.007,0.004,0.01c0,0.007-0.004,0.012-0.011,0.014
		C3.696,3.66,3.698,3.664,3.702,3.668c0.002,0.003,0.004,0.007,0.007,0.009c0.001,0,0.002,0.001,0.003,0.001v0.001
		C3.709,3.68,3.706,3.68,3.704,3.68L3.704,3.68z M3.684,3.632c-0.001,0-0.002,0-0.004,0.001c0,0.004,0,0.013,0,0.019
		c0,0,0.002,0,0.002,0c0.007,0,0.012-0.003,0.012-0.01C3.693,3.636,3.69,3.632,3.684,3.632L3.684,3.632z"/>
	<path d="M3.729,3.633L3.727,3.632l0.007-0.009l0.007,0.001L3.729,3.633L3.729,3.633z M3.743,3.678c0,0.001,0,0.001-0.004,0.001
		c-0.002,0-0.004,0-0.007,0s-0.007,0-0.009,0s-0.006,0-0.009,0V3.678c0.002,0,0.004-0.002,0.004-0.004c0-0.001,0-0.003,0-0.007
		V3.647c0-0.003,0-0.004-0.001-0.007c0-0.002-0.001-0.002-0.003-0.002V3.637h0.03c0,0.001,0,0.003,0,0.005c0,0.002,0,0.002,0,0.004
		H3.742c0-0.004-0.002-0.007-0.01-0.007c-0.001,0-0.003,0-0.004,0c0,0.002,0,0.003,0,0.007v0.008c0.001,0,0.001,0,0.002,0
		c0.007,0,0.009-0.001,0.009-0.004h0.002c0,0.001,0,0.002,0,0.007c0,0.003,0,0.005,0,0.006H3.739c0-0.003-0.002-0.004-0.008-0.004
		c-0.001,0-0.002,0-0.003,0c0,0.003,0,0.008,0,0.012c0,0.002,0,0.003,0.001,0.003c0.001,0,0.002,0,0.004,0
		c0.007,0,0.009-0.002,0.011-0.007l0.002,0.001C3.745,3.673,3.744,3.678,3.743,3.678L3.743,3.678z"/>
	<path d="M3.77,3.66C3.769,3.66,3.769,3.66,3.77,3.66L3.767,3.657c0.007,0,0.009-0.003,0.009-0.008S3.772,3.639,3.768,3.639
		c-0.001,0-0.002,0-0.002,0c0,0.003,0,0.008,0,0.012v0.011c0,0.008,0,0.01,0,0.012c0.001,0.001,0.002,0.002,0.003,0.002v0.002H3.768
		c-0.002,0-0.003,0-0.008,0c-0.002,0-0.005,0-0.007,0H3.751V3.676c0.002,0,0.004-0.001,0.004-0.004c0-0.002,0-0.003,0-0.009V3.646
		c0-0.003,0-0.004,0-0.006C3.753,3.638,3.752,3.638,3.751,3.638V3.636c0,0,0,0,0.002,0c0.001,0,0.002,0,0.004,0
		c0.003,0,0.007,0,0.01,0c0.009,0,0.014,0.004,0.014,0.012C3.784,3.656,3.778,3.66,3.77,3.66L3.77,3.66z"/>
	<path d="M3.827,3.64c-0.001,0-0.001,0.001-0.001,0.004s0,0.004,0,0.009c0,0.001,0,0.005,0,0.01c0,0.005,0,0.008-0.002,0.01
		C3.821,3.678,3.815,3.68,3.809,3.68c-0.003,0-0.007-0.001-0.01-0.002C3.795,3.675,3.792,3.671,3.792,3.664c0-0.007,0-0.01,0-0.012
		c0-0.003,0-0.006,0-0.01c0-0.002-0.001-0.003-0.004-0.003V3.638H3.79c0.001,0,0.003,0,0.007,0c0.002,0,0.005,0,0.008,0h0.001v0.001
		c-0.001,0-0.002,0.001-0.003,0.001c0,0.001,0,0.002,0,0.005s0,0.008,0,0.012c0,0.011,0,0.012,0.001,0.015
		c0.001,0.002,0.004,0.002,0.007,0.002c0.004,0,0.008-0.001,0.01-0.006c0-0.002,0-0.004,0-0.012V3.65c0-0.007,0-0.009,0-0.011
		C3.821,3.638,3.82,3.638,3.818,3.638V3.636c0.002,0,0.003,0,0.007,0c0.003,0,0.004,0,0.006,0v0.002
		C3.828,3.639,3.828,3.639,3.827,3.64L3.827,3.64z"/>
	<path d="M3.865,3.676C3.862,3.678,3.858,3.678,3.853,3.678c-0.003,0-0.007,0-0.01,0c-0.001,0-0.003,0-0.005,0h0V3.677
		c0.002,0,0.004-0.002,0.004-0.004c0-0.001,0-0.002,0-0.009V3.652c0-0.007,0-0.008-0.001-0.01c0-0.001-0.001-0.002-0.003-0.002
		V3.638c0.002,0,0.004,0,0.009,0c0.003,0,0.009,0,0.013,0c0.005,0,0.011,0.002,0.011,0.009c0,0.004-0.002,0.008-0.009,0.01
		c0.007,0.001,0.01,0.005,0.01,0.012C3.87,3.671,3.869,3.673,3.865,3.676L3.865,3.676z M3.852,3.64c-0.001,0-0.002,0-0.003,0
		c0,0.004,0,0.011,0,0.013c0.001,0,0.002,0,0.002,0c0.007,0,0.01-0.002,0.01-0.007C3.861,3.644,3.857,3.64,3.852,3.64L3.852,3.64z
		 M3.852,3.658c-0.001,0-0.001,0-0.003,0c0,0.002,0,0.002,0,0.004v0.003c0,0.003,0,0.005,0.001,0.006
		C3.85,3.674,3.851,3.675,3.854,3.675c0.005,0,0.008-0.002,0.008-0.008C3.862,3.662,3.858,3.658,3.852,3.658L3.852,3.658z"/>
	<path d="M3.906,3.678C3.905,3.679,3.905,3.679,3.902,3.679c-0.002,0-0.003,0-0.004,0c-0.003,0-0.007,0-0.012,0
		c-0.003,0-0.005,0-0.007,0V3.678c0.001,0,0.002,0,0.002-0.001c0.001-0.001,0.001-0.002,0.001-0.008c0-0.003,0-0.005,0-0.009V3.652
		c0-0.008,0-0.01,0-0.012C3.881,3.639,3.88,3.638,3.878,3.638V3.637H3.88c0.002,0,0.003,0,0.008,0c0.002,0,0.005,0,0.007,0h0.001
		v0.001c-0.003,0-0.004,0.002-0.005,0.004c0,0.001,0,0.001,0,0.009v0.011c0,0.009,0,0.01,0.001,0.011s0.001,0.001,0.004,0.001
		c0.003,0,0.005,0,0.008-0.001c0.001-0.001,0.002-0.002,0.003-0.005l0.002,0C3.908,3.672,3.907,3.678,3.906,3.678L3.906,3.678z"/>
	<path d="M3.928,3.679c-0.002,0-0.003,0-0.008,0c-0.002,0-0.005,0-0.007,0H3.911V3.678c0.002,0,0.004-0.002,0.004-0.004
		c0-0.001,0-0.002,0-0.009V3.653c0-0.001,0-0.003,0-0.005c0-0.003,0-0.004-0.001-0.007S3.913,3.639,3.911,3.639V3.638h0.002
		c0.001,0,0.003,0,0.007,0c0.002,0,0.005,0,0.008,0h0.001v0.001c-0.002,0-0.004,0.001-0.004,0.004c0,0.001,0,0.003,0,0.009v0.011
		c0,0.009,0,0.01,0.001,0.012c0.001,0.002,0.002,0.003,0.003,0.003v0.001H3.928L3.928,3.679z"/>
	<path d="M3.987,3.691c-0.004,0-0.01-0.002-0.015-0.004C3.969,3.685,3.964,3.683,3.962,3.68c-0.002,0-0.003,0-0.005,0
		c-0.012,0-0.021-0.008-0.021-0.021c0-0.013,0.009-0.022,0.022-0.022c0.013,0,0.021,0.008,0.021,0.021
		c0,0.009-0.004,0.017-0.012,0.021c0.002,0.001,0.004,0.002,0.007,0.003c0.007,0.003,0.011,0.005,0.015,0.005
		c0.002,0,0.004,0,0.007-0.001l0.001,0.001C3.995,3.689,3.991,3.691,3.987,3.691L3.987,3.691z M3.958,3.64
		c-0.008,0-0.013,0.006-0.013,0.015c0,0.011,0.006,0.02,0.014,0.02c0.007,0,0.013-0.006,0.013-0.015
		C3.972,3.649,3.965,3.64,3.958,3.64L3.958,3.64z"/>
	<path d="M4.023,3.64c-0.001,0-0.001,0.001-0.001,0.004s0,0.004,0,0.009c0,0.001,0,0.005,0,0.01c0,0.005-0.001,0.008-0.002,0.01
		C4.018,3.678,4.012,3.68,4.006,3.68c-0.003,0-0.007-0.001-0.01-0.002C3.992,3.675,3.989,3.671,3.989,3.664c0-0.007,0-0.01,0-0.012
		c0-0.003,0-0.006,0-0.01c0-0.002-0.002-0.003-0.004-0.003V3.638h0.002c0.001,0,0.003,0,0.007,0c0.002,0,0.005,0,0.007,0h0.002
		v0.001C4.001,3.639,4.001,3.64,4,3.641C3.999,3.642,3.999,3.643,3.999,3.646s0,0.008,0,0.012c0,0.011,0,0.012,0.002,0.015
		c0.001,0.002,0.004,0.002,0.007,0.002c0.004,0,0.008-0.001,0.01-0.006c0-0.002,0-0.004,0-0.012V3.65c0-0.007,0-0.009,0-0.011
		C4.018,3.638,4.017,3.638,4.015,3.638V3.636c0.002,0,0.003,0,0.006,0c0.003,0,0.004,0,0.007,0v0.002
		C4.025,3.639,4.023,3.639,4.023,3.64L4.023,3.64z"/>
	<path d="M4.062,3.678c0,0.001,0,0.001-0.004,0.001c-0.002,0-0.004,0-0.007,0s-0.007,0-0.009,0s-0.006,0-0.009,0V3.678
		c0.002,0,0.004-0.002,0.004-0.004c0-0.001,0-0.003,0-0.007V3.647c0-0.003,0-0.004-0.001-0.007c0-0.002-0.001-0.002-0.003-0.002
		V3.637h0.03c0,0.001,0,0.003,0,0.005c0,0.002,0,0.002,0,0.004H4.06c0-0.004-0.002-0.007-0.01-0.007c-0.001,0-0.003,0-0.004,0
		c0,0.002,0,0.003,0,0.007v0.008c0.001,0,0.001,0,0.002,0c0.007,0,0.009-0.001,0.009-0.004H4.06c0,0.001,0,0.002,0,0.007
		c0,0.003,0,0.005,0,0.006H4.058c0-0.003-0.002-0.004-0.008-0.004c-0.001,0-0.002,0-0.003,0c0,0.003,0,0.008,0,0.012
		c0,0.002,0.001,0.003,0.001,0.003c0.001,0,0.003,0,0.005,0c0.007,0,0.009-0.002,0.011-0.007l0.002,0.001
		C4.063,3.673,4.063,3.678,4.062,3.678L4.062,3.678z"/>
	<path d="M4.12,3.64c0-0.005-0.003-0.008-0.012-0.008c-0.002,0-0.003,0-0.005,0c0,0.005,0,0.009,0,0.018c0.001,0,0.002,0,0.004,0
		c0.008,0,0.009,0,0.01-0.005H4.12c0,0.001,0,0.004,0,0.007s0,0.005,0,0.009H4.118C4.117,3.657,4.115,3.656,4.106,3.656
		c-0.001,0-0.001,0-0.003,0v0.009c0,0.001,0,0.003,0,0.005c0,0.004,0,0.008,0.005,0.008V3.68H4.106c-0.001,0-0.004,0-0.008,0
		c-0.003,0-0.006,0-0.008,0H4.088V3.678c0.003,0,0.004-0.002,0.005-0.005c0-0.002,0-0.003,0-0.011V3.642
		c0-0.004,0-0.007-0.001-0.007c0-0.002-0.001-0.002-0.004-0.003V3.629h0.035c0,0.002,0,0.003,0,0.008c0,0.002,0,0.003,0,0.005H4.12
		V3.64z"/>
	<path d="M4.163,3.68c-0.002,0-0.003,0-0.005-0.001C4.156,3.678,4.153,3.674,4.152,3.672C4.151,3.668,4.148,3.663,4.145,3.661H4.144
		c0,0,0,0-0.001,0v0.003c0,0.002,0,0.003,0,0.005c0,0.003,0,0.004,0.001,0.007c0,0.002,0.001,0.002,0.003,0.002V3.68H4.145
		c-0.001,0-0.003,0-0.007,0c-0.003,0-0.005,0-0.008,0H4.128V3.678c0.001,0,0.002,0,0.002,0c0.001-0.001,0.001-0.002,0.001-0.004
		c0-0.002,0-0.002,0-0.009V3.652c0-0.008,0-0.01-0.001-0.012c0-0.001-0.001-0.002-0.003-0.002V3.637c0.001,0,0.002,0,0.003,0
		c0.003,0,0.004,0,0.008,0c0.003,0,0.005,0,0.007,0c0.004,0,0.008,0.001,0.009,0.001C4.158,3.64,4.159,3.644,4.159,3.646
		c0,0.005-0.003,0.009-0.009,0.012c0.002,0.002,0.004,0.007,0.007,0.01C4.158,3.672,4.16,3.675,4.162,3.676
		c0.001,0.001,0.001,0.001,0.002,0.002v0.001C4.166,3.68,4.164,3.68,4.163,3.68L4.163,3.68z M4.146,3.64c-0.001,0-0.002,0-0.003,0
		c0,0.003,0,0.011,0,0.015c0.001,0,0.001,0,0.002,0c0.005,0,0.009-0.003,0.009-0.008C4.154,3.644,4.151,3.64,4.146,3.64L4.146,3.64z
		"/>
	<path d="M4.208,3.679c-0.002,0-0.003,0-0.007,0s-0.005,0-0.007,0H4.192V3.678c0.002,0,0.003-0.001,0.003-0.003
		c0,0,0-0.001-0.001-0.003c0-0.003,0-0.003-0.001-0.007H4.182L4.181,3.668c0,0.002-0.001,0.004-0.001,0.006
		c0,0.002,0.001,0.003,0.002,0.003v0.001c-0.002,0-0.003,0-0.007,0c-0.002,0-0.003,0-0.006,0V3.678c0,0,0,0,0.001-0.001
		s0.002-0.003,0.004-0.008l0.006-0.015c0.002-0.004,0.004-0.011,0.005-0.016H4.19c0.001,0.001,0.002,0.005,0.002,0.007l0.009,0.022
		c0.001,0.003,0.002,0.007,0.003,0.007c0.001,0.002,0.001,0.003,0.003,0.003V3.679L4.208,3.679L4.208,3.679z M4.188,3.648
		c-0.001,0.004-0.003,0.01-0.004,0.012h0.009L4.188,3.648L4.188,3.648z"/>
	<path d="M4.253,3.64c-0.001,0-0.001,0.001-0.001,0.005c0,0.005,0,0.014,0,0.019v0.01c0,0.001,0,0.003,0,0.003l-0.004,0
		C4.244,3.673,4.236,3.663,4.236,3.663C4.235,3.662,4.227,3.652,4.223,3.646c0,0.001,0,0.001,0,0.004v0.004c0,0.004,0,0.009,0,0.014
		c0,0.003,0,0.003,0.001,0.005c0.001,0,0.001,0.001,0.003,0.001v0.002c-0.002,0-0.004,0-0.007,0s-0.004,0-0.007,0V3.676
		c0.004,0,0.004-0.003,0.004-0.007c0-0.002,0-0.004,0-0.009V3.646c0-0.005,0-0.007,0-0.008C4.216,3.637,4.215,3.636,4.213,3.636
		V3.634c0.001,0,0.002,0,0.005,0s0.003,0,0.005,0C4.224,3.636,4.225,3.637,4.23,3.643C4.237,3.65,4.242,3.656,4.248,3.663V3.65
		c0-0.006,0-0.008,0-0.01C4.247,3.638,4.246,3.638,4.244,3.637V3.635c0.002,0,0.003,0,0.007,0s0.004,0,0.006,0v0.002
		C4.255,3.638,4.254,3.639,4.253,3.64L4.253,3.64z"/>
	<path d="M4.297,3.678C4.293,3.679,4.289,3.68,4.285,3.68L4.284,3.683h0.001c0.002,0,0.003,0.001,0.003,0.003
		c0,0.003-0.002,0.005-0.007,0.005c-0.001,0-0.002,0-0.003-0.001l0.001-0.002c0.001,0,0.001,0.001,0.002,0.001
		c0.002,0,0.002-0.001,0.002-0.002c0-0.001,0-0.002-0.001-0.002s-0.001,0-0.002,0.001H4.278L4.279,3.68
		c-0.005-0.001-0.01-0.002-0.013-0.007C4.263,3.67,4.26,3.664,4.26,3.658c0-0.014,0.009-0.022,0.023-0.022
		c0.004,0,0.009,0.001,0.013,0.002c0,0.001,0,0.002,0,0.004c0,0.001,0,0.003,0,0.004H4.293c-0.001-0.004-0.004-0.008-0.01-0.008
		c-0.009,0-0.014,0.007-0.014,0.016c0,0.012,0.007,0.02,0.015,0.02c0.005,0,0.009-0.002,0.01-0.008l0.003,0
		C4.298,3.671,4.297,3.674,4.297,3.678L4.297,3.678z"/>
	<path d="M4.341,3.679c-0.001,0-0.003,0-0.007,0c-0.002,0-0.005,0-0.008,0H4.324V3.678c0.001,0,0.003-0.001,0.003-0.003
		c0,0,0-0.001-0.001-0.003C4.326,3.669,4.326,3.668,4.325,3.665H4.313L4.313,3.668C4.312,3.671,4.311,3.672,4.311,3.675
		c0,0.002,0,0.003,0.002,0.003v0.001c-0.002,0-0.003,0-0.007,0c-0.002,0-0.003,0-0.007,0V3.678c0.001,0,0.001,0,0.002-0.001
		s0.002-0.003,0.004-0.008l0.007-0.015c0.001-0.004,0.004-0.011,0.005-0.016h0.004c0,0.001,0.001,0.005,0.002,0.007l0.009,0.022
		c0.001,0.003,0.002,0.007,0.003,0.007c0,0.002,0.001,0.003,0.003,0.003L4.341,3.679L4.341,3.679L4.341,3.679z M4.321,3.648
		c-0.001,0.004-0.003,0.01-0.004,0.012h0.009L4.321,3.648L4.321,3.648z"/>
	<path d="M4.361,3.679c-0.001,0-0.003,0-0.007,0c-0.003,0-0.005,0-0.008,0H4.344V3.678c0.002,0,0.004-0.002,0.004-0.004
		c0-0.001,0-0.002,0-0.009V3.653c0-0.001,0-0.003,0-0.005c0-0.003,0-0.004,0-0.007C4.347,3.64,4.346,3.639,4.344,3.639V3.638h0.001
		c0.002,0,0.003,0,0.008,0c0.002,0,0.005,0,0.007,0h0.001v0.001c-0.002,0-0.004,0.001-0.004,0.004c0,0.001,0,0.003,0,0.009v0.011
		c0,0.009,0,0.01,0.001,0.012c0,0.002,0.001,0.003,0.003,0.003v0.001H4.361L4.361,3.679z"/>
	<path d="M4.381,3.68c-0.003,0-0.007-0.001-0.011-0.002c0-0.002-0.001-0.006-0.001-0.009h0.002c0.002,0.005,0.004,0.009,0.01,0.009
		c0.004,0,0.007-0.003,0.007-0.007c0-0.002-0.001-0.004-0.004-0.007L4.378,3.66C4.374,3.658,4.371,3.653,4.371,3.648
		c0-0.008,0.005-0.012,0.014-0.012c0.003,0,0.007,0.001,0.011,0.002c0,0.001,0,0.001,0,0.003c0,0.002,0,0.002,0,0.004H4.393
		C4.392,3.643,4.389,3.639,4.384,3.639c-0.003,0-0.007,0.002-0.007,0.007c0,0.002,0.002,0.005,0.005,0.007l0.005,0.003
		C4.393,3.66,4.396,3.663,4.396,3.668C4.396,3.675,4.39,3.68,4.381,3.68L4.381,3.68z"/>
	<path d="M4.433,3.678C4.432,3.679,4.432,3.679,4.428,3.679c-0.001,0-0.004,0-0.006,0c-0.003,0-0.007,0-0.009,0s-0.007,0-0.009,0
		V3.678c0.002,0,0.004-0.002,0.004-0.004c0-0.001,0-0.003,0-0.007V3.647c0-0.003,0-0.004-0.001-0.007
		C4.406,3.638,4.405,3.638,4.403,3.638V3.637h0.03c0,0.001,0,0.003,0,0.005c0,0.002,0,0.002,0,0.004H4.431
		c0-0.004-0.002-0.007-0.01-0.007c-0.002,0-0.003,0-0.003,0C4.417,3.642,4.417,3.643,4.417,3.646v0.008c0,0,0.002,0,0.002,0
		c0.007,0,0.009-0.001,0.009-0.004h0.002c0,0.001,0,0.002,0,0.007c0,0.003,0,0.005,0,0.006H4.428c0-0.003-0.001-0.004-0.008-0.004
		c-0.001,0-0.002,0-0.002,0C4.417,3.663,4.417,3.667,4.417,3.671c0,0.002,0,0.003,0.002,0.003c0,0,0.002,0,0.004,0
		c0.008,0,0.009-0.002,0.011-0.007l0.003,0.001C4.433,3.673,4.433,3.678,4.433,3.678L4.433,3.678z"/>
	<path d="M3.687,3.571c0,0.001-0.001,0.001-0.003,0.001c-0.002,0-0.006,0-0.009,0s-0.004,0-0.007,0c-0.001,0-0.007,0-0.007,0H3.659
		V3.571c0.001,0,0.002-0.001,0.003-0.001c0-0.001,0.001-0.003,0.002-0.007c0.001-0.004,0.001-0.005,0.002-0.012l0.001-0.004
		c0-0.004,0.001-0.009,0.001-0.009c0-0.003-0.001-0.004-0.003-0.005V3.532h0.001c0.002,0,0.004,0,0.007,0c0.003,0,0.007,0,0.008,0h0
		v0.001c-0.001,0-0.002,0.001-0.003,0.002C3.678,3.537,3.678,3.539,3.676,3.551L3.675,3.555c0,0.005-0.001,0.007-0.001,0.009
		c0,0.001,0,0.002,0,0.002c0,0.002,0.001,0.002,0.005,0.002c0.008,0,0.01-0.002,0.012-0.007l0.002,0.001
		C3.689,3.566,3.688,3.57,3.687,3.571L3.687,3.571z"/>
	<path d="M3.705,3.542c-0.002,0-0.002,0-0.002-0.002c0-0.001,0.001-0.003,0.003-0.003c0.001,0,0.002,0.001,0.002,0.002
		C3.709,3.539,3.707,3.542,3.705,3.542L3.705,3.542z M3.698,3.572c-0.001,0-0.001,0-0.001-0.001s0-0.001,0-0.002
		C3.698,3.565,3.699,3.56,3.7,3.558c0-0.003,0-0.005,0-0.006c0-0.001,0-0.001,0-0.001c-0.001,0-0.001,0-0.003,0.001l0,0V3.55
		c0.003,0,0.007-0.001,0.009-0.001c0,0,0,0,0,0.001c0,0,0,0.002-0.001,0.007L3.704,3.56C3.703,3.566,3.703,3.568,3.703,3.569
		c0,0,0,0.001,0.001,0.001s0.002,0,0.003-0.001v0.002C3.703,3.572,3.7,3.572,3.698,3.572L3.698,3.572z"/>
	<path d="M3.732,3.569C3.73,3.571,3.728,3.572,3.723,3.572c-0.005,0-0.008-0.001-0.008-0.002c0,0,0,0,0-0.003l0.003-0.014
		C3.719,3.548,3.72,3.544,3.721,3.539c0.001-0.002,0.001-0.004,0.001-0.005s0-0.001-0.001-0.001c0,0-0.001,0-0.002,0.001V3.533
		h0.001c0.003-0.001,0.006-0.002,0.007-0.002s0.001,0,0.001,0.001s0,0.001-0.002,0.007L3.724,3.547
		C3.723,3.55,3.723,3.551,3.723,3.552c0.003-0.002,0.008-0.003,0.01-0.003c0.003,0,0.005,0.001,0.005,0.005
		C3.74,3.558,3.737,3.566,3.732,3.569L3.732,3.569z M3.732,3.55c-0.001,0-0.002,0-0.004,0.002C3.727,3.553,3.726,3.553,3.725,3.554
		C3.724,3.555,3.723,3.557,3.723,3.562C3.722,3.565,3.722,3.568,3.722,3.569c0,0,0.001,0.001,0.003,0.001S3.729,3.57,3.731,3.567
		c0.003-0.003,0.004-0.009,0.004-0.013C3.735,3.551,3.734,3.55,3.732,3.55L3.732,3.55z"/>
	<path d="M3.753,3.562c0,0-0.001,0-0.002,0c0,0.001,0,0.002,0,0.002c0,0.002,0.001,0.004,0.003,0.004
		c0.002,0,0.004-0.001,0.008-0.003l0.001,0.001C3.76,3.569,3.756,3.571,3.753,3.571c-0.003,0-0.007-0.002-0.007-0.007
		c0-0.01,0.008-0.019,0.014-0.019c0.003,0,0.007,0.002,0.007,0.004C3.768,3.558,3.761,3.562,3.753,3.562L3.753,3.562z M3.759,3.549
		c-0.002,0-0.007,0.004-0.008,0.01h0.001c0.005,0,0.01-0.002,0.01-0.007C3.763,3.551,3.761,3.549,3.759,3.549L3.759,3.549z"/>
	<path d="M3.792,3.555H3.79c0-0.001,0-0.002,0-0.002c0-0.001-0.001-0.002-0.002-0.002c-0.001,0-0.002,0.001-0.002,0.002
		C3.783,3.555,3.782,3.56,3.781,3.566L3.78,3.572c-0.002,0-0.002,0-0.005,0.001c0.001-0.002,0.001-0.004,0.002-0.007l0.001-0.005
		C3.779,3.558,3.78,3.555,3.78,3.554c0-0.001,0-0.001,0-0.001c0,0-0.001,0-0.002,0l-0.001,0V3.552
		C3.778,3.551,3.783,3.55,3.784,3.55c0.001,0,0.001,0,0.001,0.001s0,0.002,0,0.002C3.788,3.551,3.79,3.55,3.792,3.55
		c0.001,0,0.002,0.001,0.004,0.002C3.793,3.551,3.792,3.553,3.792,3.555L3.792,3.555z"/>
	<path d="M3.813,3.551H3.808L3.805,3.563C3.804,3.566,3.804,3.567,3.804,3.567c0,0.001,0,0.002,0.001,0.002c0,0,0.001,0,0.002-0.001
		h0V3.57C3.805,3.571,3.802,3.572,3.8,3.572c0,0-0.001-0.001-0.001-0.002c0,0,0-0.002,0.001-0.004c0-0.002,0-0.003,0.001-0.007
		L3.803,3.55H3.799V3.548c0.004-0.001,0.005-0.004,0.007-0.007L3.809,3.54L3.808,3.547h0.005V3.551L3.813,3.551z"/>
	<path d="M3.831,3.543L3.829,3.542l0.008-0.008l0.005,0.001L3.831,3.543L3.831,3.543z M3.825,3.562c0,0-0.001,0-0.002,0
		c0,0.001,0,0.002,0,0.002c0,0.002,0.001,0.004,0.003,0.004c0.001,0,0.004-0.001,0.008-0.003l0.001,0.001
		C3.832,3.569,3.828,3.571,3.825,3.571c-0.003,0-0.007-0.002-0.007-0.007c0-0.01,0.007-0.019,0.014-0.019
		c0.003,0,0.007,0.002,0.007,0.004C3.838,3.558,3.833,3.562,3.825,3.562L3.825,3.562z M3.831,3.549c-0.003,0-0.007,0.004-0.008,0.01
		h0.001c0.005,0,0.01-0.002,0.01-0.007C3.834,3.551,3.833,3.549,3.831,3.549L3.831,3.549z"/>
	<path d="M3.938,3.527L3.936,3.525l0.007-0.008l0.005,0.002L3.938,3.527L3.938,3.527z M3.949,3.539H3.947c0-0.001,0-0.001,0-0.001
		c0-0.004-0.001-0.005-0.008-0.005c-0.001,0-0.003,0-0.006,0c-0.001,0.005-0.002,0.01-0.003,0.015c0.001,0,0.001,0,0.002,0
		c0.003,0,0.005,0,0.007,0c0.003,0,0.003-0.001,0.004-0.004h0.001c0,0.003-0.001,0.009-0.002,0.012H3.941v0
		c0-0.002-0.002-0.003-0.007-0.003c-0.002,0-0.004,0-0.005,0c0,0.001,0,0-0.001,0.007C3.927,3.563,3.927,3.564,3.927,3.566
		c0,0.001,0.001,0.002,0.005,0.002c0.008,0,0.01-0.001,0.013-0.007l0.001,0.001C3.944,3.566,3.943,3.57,3.942,3.571
		c0,0.001-0.001,0.001-0.003,0.001c-0.001,0-0.004,0-0.006,0s-0.005,0-0.008,0s-0.005,0-0.009,0V3.571
		c0.001,0,0.002-0.001,0.003-0.001c0-0.001,0.001-0.003,0.002-0.007c0.001-0.003,0.001-0.004,0.002-0.012l0.001-0.004
		c0-0.004,0.001-0.009,0.001-0.009c0-0.003-0.001-0.004-0.003-0.005V3.532H3.95C3.95,3.533,3.949,3.537,3.949,3.539L3.949,3.539z"/>
	<path d="M3.979,3.551H3.975c0,0.001,0,0.002,0,0.003c0,0.005-0.004,0.01-0.011,0.01c0,0-0.001,0-0.003,0
		c-0.002,0-0.002,0-0.002,0.001s0.001,0.001,0.003,0.001l0.004,0.002C3.972,3.57,3.975,3.571,3.975,3.575
		c0,0.006-0.007,0.012-0.014,0.012c-0.008,0-0.011-0.003-0.011-0.009c0-0.005,0.002-0.007,0.008-0.008
		c-0.002,0-0.003-0.001-0.003-0.002c0-0.001,0.001-0.002,0.005-0.005C3.958,3.561,3.958,3.56,3.958,3.558
		c0-0.005,0.004-0.01,0.011-0.01c0.002,0,0.002,0,0.004,0.001h0.008L3.979,3.551L3.979,3.551z M3.967,3.549
		c-0.003,0-0.007,0.003-0.007,0.008c0,0.002,0.002,0.004,0.003,0.004c0.003,0,0.007-0.003,0.007-0.007
		C3.972,3.551,3.97,3.549,3.967,3.549L3.967,3.549z M3.968,3.574C3.967,3.573,3.964,3.572,3.961,3.572
		c-0.004,0-0.008,0.004-0.008,0.008c0,0.003,0.003,0.005,0.008,0.005s0.01-0.003,0.01-0.007C3.972,3.577,3.971,3.576,3.968,3.574
		L3.968,3.574z"/>
	<path d="M4.002,3.572c-0.001,0-0.001,0-0.001-0.003C3.997,3.572,3.993,3.572,3.99,3.572c-0.003,0-0.005-0.001-0.005-0.005
		s0.002-0.008,0.004-0.012c0.003-0.005,0.007-0.008,0.013-0.008c0.002,0,0.005,0.001,0.008,0.001v0.001
		C4.009,3.557,4.007,3.564,4.007,3.566c0,0.002,0,0.003,0.001,0.003s0.001,0,0.003-0.001V3.57C4.007,3.572,4.003,3.572,4.002,3.572
		L4.002,3.572z M3.999,3.549c-0.002,0-0.004,0.001-0.007,0.005C3.989,3.558,3.988,3.563,3.988,3.566
		c0,0.001,0.001,0.002,0.002,0.002c0.002,0,0.007-0.002,0.008-0.003C4,3.564,4.001,3.563,4.001,3.561
		c0-0.003,0.001-0.008,0.002-0.012C4.001,3.55,4,3.549,3.999,3.549L3.999,3.549z"/>
	<path d="M4.029,3.537C4.027,3.545,4.025,3.554,4.022,3.563C4.021,3.565,4.021,3.566,4.021,3.567s0,0.002,0.002,0.002
		c0.001,0,0.001,0,0.003-0.001V3.57C4.023,3.571,4.019,3.572,4.018,3.572c-0.001,0-0.002,0-0.002-0.001s0-0.001,0.001-0.005
		C4.019,3.558,4.02,3.548,4.021,3.542c0.001-0.003,0.001-0.005,0.001-0.006c0-0.001,0-0.001-0.001-0.001c0,0-0.001,0-0.002,0.001
		V3.533c0.002,0,0.007-0.001,0.008-0.001c0.001,0,0.001,0,0.001,0.001C4.03,3.532,4.03,3.533,4.029,3.537L4.029,3.537z"/>
	<path d="M4.044,3.542c-0.001,0-0.002,0-0.002-0.002c0-0.001,0.002-0.003,0.003-0.003c0.002,0,0.002,0.001,0.002,0.002
		C4.048,3.539,4.047,3.542,4.044,3.542L4.044,3.542z M4.038,3.572c0,0-0.001,0-0.001-0.001s0-0.001,0.001-0.002
		c0-0.003,0.001-0.008,0.002-0.01c0.001-0.003,0.001-0.005,0.001-0.006c0-0.001,0-0.001-0.001-0.001s-0.001,0-0.002,0.001l0,0V3.55
		c0.003,0,0.006-0.001,0.008-0.001c0.001,0,0.001,0,0.001,0.001c0,0,0,0.002-0.002,0.007L4.044,3.56
		C4.042,3.566,4.042,3.568,4.042,3.569c0,0,0.001,0.001,0.001,0.001c0.001,0,0.002,0,0.003-0.001v0.002
		C4.043,3.572,4.04,3.572,4.038,3.572L4.038,3.572z"/>
	<path d="M4.068,3.551H4.063L4.061,3.563C4.06,3.566,4.06,3.567,4.06,3.567c0,0.001,0.001,0.002,0.001,0.002s0.001,0,0.002-0.001h0
		V3.57C4.061,3.571,4.058,3.572,4.056,3.572c0,0-0.001-0.001-0.001-0.002c0,0,0-0.002,0.001-0.004c0-0.002,0-0.003,0.001-0.007
		L4.058,3.55H4.055V3.548C4.059,3.547,4.06,3.544,4.063,3.541L4.065,3.54L4.063,3.547h0.005V3.551L4.068,3.551z"/>
	<path d="M4.087,3.543L4.086,3.542l0.007-0.008l0.005,0.001L4.087,3.543L4.087,3.543z M4.081,3.562c0,0-0.001,0-0.002,0
		c0,0.001,0,0.002,0,0.002c0,0.002,0.001,0.004,0.003,0.004c0.001,0,0.004-0.001,0.008-0.003l0.001,0.001
		C4.087,3.569,4.083,3.571,4.081,3.571c-0.003,0-0.007-0.002-0.007-0.007c0-0.01,0.007-0.019,0.014-0.019
		c0.003,0,0.007,0.002,0.007,0.004C4.095,3.558,4.088,3.562,4.081,3.562L4.081,3.562z M4.087,3.549c-0.002,0-0.006,0.004-0.007,0.01
		h0.001c0.005,0,0.01-0.002,0.01-0.007C4.09,3.551,4.088,3.549,4.087,3.549L4.087,3.549z"/>
	<path d="M4.203,3.539H4.202c0-0.001,0-0.001,0-0.001c0-0.001,0-0.002-0.001-0.003c0-0.001-0.003-0.002-0.008-0.002
		c0,0-0.002,0-0.004,0c-0.001,0.005-0.002,0.01-0.003,0.015c0.001,0,0.002,0,0.002,0c0.008,0,0.009-0.001,0.011-0.004H4.2
		C4.199,3.547,4.198,3.553,4.197,3.556H4.196v0c0-0.001,0-0.002-0.001-0.002c0-0.001-0.002-0.001-0.006-0.001
		c-0.002,0-0.002,0-0.004,0L4.183,3.556c0,0.007-0.001,0.009-0.001,0.011c0,0.003,0.001,0.003,0.003,0.003v0.001H4.184
		c-0.001,0-0.003,0-0.005,0c-0.002,0-0.007,0-0.008,0H4.17V3.57c0.002,0,0.002,0,0.003-0.001s0.001-0.002,0.002-0.007
		C4.177,3.558,4.177,3.557,4.178,3.55l0.001-0.004C4.18,3.542,4.181,3.538,4.181,3.537c0-0.002,0-0.003-0.003-0.004V3.531h0.026
		C4.206,3.533,4.204,3.537,4.203,3.539L4.203,3.539z"/>
	<path d="M4.225,3.555H4.223c0-0.001,0-0.002,0-0.002c0-0.001,0-0.002-0.002-0.002c0,0-0.001,0.001-0.002,0.002
		C4.216,3.555,4.215,3.56,4.214,3.566L4.213,3.572c-0.002,0-0.002,0-0.005,0.001c0-0.002,0-0.004,0.001-0.007l0.002-0.005
		c0-0.003,0.001-0.006,0.001-0.007c0-0.001,0-0.001-0.001-0.001c0,0,0,0-0.001,0l-0.002,0V3.552C4.212,3.551,4.216,3.55,4.217,3.55
		c0.001,0,0.001,0,0.001,0.001s0,0.002,0,0.002C4.221,3.551,4.223,3.55,4.226,3.55c0.001,0,0.003,0.001,0.004,0.002
		C4.226,3.551,4.225,3.553,4.225,3.555L4.225,3.555z"/>
	<path d="M4.249,3.572c0,0-0.001,0-0.001-0.003C4.243,3.572,4.239,3.572,4.237,3.572c-0.003,0-0.005-0.001-0.005-0.005
		s0.002-0.008,0.004-0.012c0.003-0.005,0.007-0.008,0.013-0.008c0.002,0,0.005,0.001,0.008,0.001v0.001
		C4.256,3.557,4.254,3.564,4.254,3.566c0,0.002,0,0.003,0,0.003c0.001,0,0.002,0,0.003-0.001V3.57
		C4.253,3.572,4.251,3.572,4.249,3.572L4.249,3.572z M4.247,3.549c-0.002,0-0.004,0.001-0.007,0.005
		C4.237,3.558,4.236,3.563,4.236,3.566c0,0.001,0.001,0.002,0.002,0.002c0.002,0,0.007-0.002,0.008-0.003
		c0.001-0.001,0.002-0.001,0.002-0.004c0-0.003,0.001-0.008,0.002-0.012C4.249,3.55,4.248,3.549,4.247,3.549L4.247,3.549z"/>
	<path d="M4.278,3.551H4.273L4.271,3.563C4.27,3.566,4.27,3.567,4.27,3.567c0,0.001,0,0.002,0.001,0.002c0,0,0.001,0,0.002-0.001
		h0.001V3.57C4.271,3.571,4.268,3.572,4.266,3.572c0,0-0.001-0.001-0.001-0.002c0,0,0-0.002,0.001-0.004
		c0-0.002,0-0.003,0.001-0.007L4.269,3.55H4.265V3.548C4.269,3.547,4.27,3.544,4.272,3.541L4.275,3.54L4.273,3.547h0.005V3.551
		L4.278,3.551z"/>
	<path d="M4.291,3.562c0,0-0.001,0-0.002,0c0,0.001,0,0.002,0,0.002c0,0.002,0.001,0.004,0.003,0.004
		c0.001,0,0.004-0.001,0.008-0.003l0.001,0.001C4.297,3.569,4.293,3.571,4.291,3.571c-0.003,0-0.007-0.002-0.007-0.007
		c0-0.01,0.007-0.019,0.014-0.019c0.003,0,0.007,0.002,0.007,0.004C4.304,3.558,4.298,3.562,4.291,3.562L4.291,3.562z M4.297,3.549
		c-0.002,0-0.006,0.004-0.007,0.01h0.001c0.005,0,0.01-0.002,0.01-0.007C4.3,3.551,4.298,3.549,4.297,3.549L4.297,3.549z"/>
	<path d="M4.328,3.555H4.327c0-0.001,0-0.002,0-0.002c0-0.001-0.001-0.002-0.002-0.002c-0.001,0-0.002,0.001-0.002,0.002
		C4.319,3.555,4.318,3.56,4.317,3.566l0,0.006c-0.003,0-0.003,0-0.005,0.001c0.001-0.002,0.001-0.004,0.002-0.007l0.001-0.005
		c0.001-0.003,0.001-0.006,0.001-0.007c0-0.001,0-0.001-0.001-0.001c0,0-0.001,0-0.001,0l-0.002,0V3.552
		C4.314,3.551,4.318,3.55,4.32,3.55c0.001,0,0.001,0,0.001,0.001s0,0.002,0,0.002C4.323,3.551,4.326,3.55,4.328,3.55
		c0.001,0,0.003,0.001,0.004,0.002C4.331,3.551,4.33,3.553,4.328,3.555L4.328,3.555z"/>
	<path d="M4.354,3.572c0,0-0.001,0-0.001-0.001s0-0.001,0.001-0.005l0-0.002c0.002-0.008,0.002-0.01,0.002-0.012
		c0-0.001,0-0.002,0-0.002c-0.001,0-0.003,0.001-0.005,0.002C4.35,3.553,4.348,3.554,4.348,3.555c-0.001,0-0.001,0.002-0.002,0.005
		c0,0.004-0.001,0.007-0.001,0.011c-0.002,0-0.002,0-0.005,0.001c0-0.004,0.001-0.008,0.002-0.013c0-0.004,0-0.006,0-0.007
		c0-0.002,0-0.002-0.001-0.002c-0.001,0-0.001,0-0.002,0.001V3.549c0.002-0.001,0.007-0.002,0.007-0.002
		c0.002,0,0.002,0.001,0.002,0.003v0.001C4.352,3.549,4.356,3.547,4.36,3.547c0.002,0,0.002,0.001,0.002,0.002
		c0,0,0,0.003-0.001,0.008C4.36,3.56,4.359,3.563,4.359,3.565S4.358,3.567,4.358,3.568S4.359,3.57,4.36,3.57
		c0.001,0,0.002,0,0.003,0v0.001C4.358,3.572,4.355,3.572,4.354,3.572L4.354,3.572z"/>
	<path d="M4.379,3.542c-0.002,0-0.003,0-0.003-0.002c0-0.001,0.002-0.003,0.003-0.003c0.002,0,0.002,0.001,0.002,0.002
		C4.383,3.539,4.382,3.542,4.379,3.542L4.379,3.542z M4.373,3.572c-0.001,0-0.002,0-0.002-0.001s0-0.001,0.001-0.002
		c0.001-0.003,0.002-0.008,0.002-0.01c0.001-0.003,0.001-0.005,0.001-0.006c0-0.001,0-0.001-0.001-0.001c0,0,0,0-0.002,0.001l0,0
		V3.55c0.003,0,0.007-0.001,0.008-0.001c0.001,0,0.001,0,0.001,0.001c0,0,0,0.002-0.001,0.007L4.378,3.56
		C4.376,3.566,4.376,3.568,4.376,3.569c0,0,0.001,0.001,0.002,0.001s0.001,0,0.003-0.001v0.002C4.378,3.572,4.375,3.572,4.373,3.572
		L4.373,3.572z"/>
	<path d="M4.403,3.551H4.398L4.396,3.563C4.395,3.566,4.395,3.567,4.395,3.567c0,0.001,0,0.002,0.001,0.002c0,0,0.001,0,0.002-0.001
		h0.001V3.57C4.396,3.571,4.393,3.572,4.391,3.572c0,0-0.001-0.001-0.001-0.002c0,0,0-0.002,0.001-0.004
		c0-0.002,0-0.003,0.001-0.007L4.394,3.55H4.39V3.548c0.004-0.001,0.005-0.004,0.007-0.007L4.4,3.54L4.398,3.547h0.005V3.551
		L4.403,3.551z"/>
	<path d="M4.422,3.543L4.421,3.542l0.007-0.008l0.005,0.001L4.422,3.543L4.422,3.543z M4.416,3.562c-0.001,0-0.001,0-0.002,0
		c0,0.001,0,0.002,0,0.002c0,0.002,0.001,0.004,0.003,0.004c0.001,0,0.004-0.001,0.008-0.003l0.001,0.001
		C4.422,3.569,4.418,3.571,4.416,3.571c-0.003,0-0.007-0.002-0.007-0.007c0-0.01,0.007-0.019,0.014-0.019
		c0.003,0,0.007,0.002,0.007,0.004C4.429,3.558,4.423,3.562,4.416,3.562L4.416,3.562z M4.422,3.549c-0.002,0-0.006,0.004-0.007,0.01
		h0.001c0.005,0,0.01-0.002,0.01-0.007C4.425,3.551,4.424,3.549,4.422,3.549L4.422,3.549z"/>
	<path d="M4.134,3.561c0.004,0,0.007-0.003,0.007-0.008c0-0.004-0.003-0.007-0.007-0.007c-0.004,0-0.008,0.003-0.008,0.007
		C4.127,3.558,4.13,3.561,4.134,3.561L4.134,3.561z"/>
	<path d="M3.879,3.561c0.004,0,0.007-0.003,0.007-0.008c0-0.004-0.003-0.007-0.007-0.007c-0.004,0-0.008,0.003-0.008,0.007
		C3.871,3.558,3.874,3.561,3.879,3.561L3.879,3.561z"/>
	<line fill="none" x1="3.664" y1="3.6" x2="4.43" y2="3.6"/>
	<rect x="3.664" y="3.598" width="0.767" height="0.002"/>
	<g>
		<g>
			<g>
				<defs>
					<rect id="SVGID_1_" x="3.665" y="3.238" width="0.768" height="0.257"/>
				</defs>
				<clipPath id="SVGID_2_">
					<use xlink:href="#SVGID_1_"  overflow="visible"/>
				</clipPath>
				<path clip-path="url(#SVGID_2_)" fill="#004A99" d="M3.663,3.498c0.001-0.064,0-0.127,0.002-0.191
					c0.001-0.022-0.001-0.046-0.001-0.068C3.68,3.236,3.696,3.237,3.712,3.237c0.102,0,0.202,0,0.303,0
					C4.007,3.241,4,3.244,3.994,3.25C3.99,3.257,3.985,3.262,3.983,3.269C3.976,3.273,3.971,3.281,3.967,3.288
					c-0.005,0.01-0.012,0.02-0.011,0.03c0,0.009,0.003,0.019,0.005,0.027c0.001,0.003,0.001,0.007,0.002,0.01
					c0.001,0.003,0,0.007,0.001,0.011c0.001,0.001,0.001,0.004,0.002,0.005c0,0.001,0,0.002,0,0.002
					c0.001,0.001,0.001,0.001,0.002,0.001c0,0.001,0,0.001,0,0.002C3.973,3.384,3.98,3.388,3.982,3.396
					c0.001,0.003-0.007,0.001-0.009,0C3.967,3.394,3.964,3.389,3.959,3.385l0,0.001C3.961,3.39,3.969,3.395,3.965,3.398
					C3.962,3.399,3.96,3.396,3.958,3.399c-0.001,0,0,0.002,0,0.002C3.954,3.4,3.95,3.402,3.947,3.4
					c-0.002,0-0.002-0.005-0.007-0.005C3.933,3.394,3.926,3.392,3.917,3.391c-0.011,0-0.021-0.002-0.032,0
					c-0.009,0-0.016,0.007-0.022,0.014c0,0,0,0.001,0,0.001C3.868,3.407,3.87,3.403,3.873,3.402C3.879,3.401,3.883,3.398,3.89,3.397
					c0.009-0.001,0.018-0.004,0.025-0.003c0.001,0,0.004,0,0.007,0c-0.011,0-0.02,0.002-0.03,0.007l0,0
					C3.884,3.402,3.877,3.403,3.871,3.408c0.015-0.001,0.031,0.001,0.045,0.006c0.005,0.002,0.01,0.004,0.014,0.008
					c0.002,0.001,0.003,0.003,0.006,0.004c0.002,0.002,0.008,0.002,0.01,0.001h0.002c0.009-0.002,0.018-0.004,0.024-0.011
					c0,0,0.001,0,0.001,0c-0.001,0.004-0.001,0.01-0.005,0.014c0,0.001-0.001,0.002,0.001,0.002c0,0,0,0,0,0c0,0,0,0,0,0.001
					s0.001,0,0.002,0.001C3.97,3.436,3.966,3.436,3.965,3.438c0,0,0.001,0,0.002,0C3.966,3.44,3.964,3.44,3.963,3.441l0.001,0
					c-0.001,0-0.001,0-0.001,0.001s0,0.001,0,0.002c-0.001,0-0.002,0-0.003,0.001c0.002,0.001,0.004,0,0.007,0
					C3.96,3.448,3.955,3.453,3.948,3.453c-0.001,0,0,0.002-0.001,0.002C3.949,3.456,3.95,3.454,3.952,3.454
					C3.943,3.458,3.936,3.463,3.927,3.468c0,0-0.001,0.001-0.001,0.002c-0.001,0-0.001,0-0.002,0
					C3.922,3.472,3.922,3.473,3.922,3.474c0.002,0.001,0.006-0.002,0.008,0c0,0-0.001,0.001-0.002,0.001c-0.001,0-0.001,0-0.001,0
					c-0.001,0-0.001,0-0.002,0c0,0.001-0.002,0.002-0.002,0.003c0,0-0.002,0-0.002,0.001c0.013-0.001,0.026-0.001,0.039-0.007
					c0.009-0.004,0.018-0.011,0.026-0.02l0,0C3.983,3.46,3.98,3.463,3.975,3.467C3.972,3.468,3.968,3.471,3.966,3.473
					C3.964,3.474,3.962,3.476,3.961,3.477C3.939,3.484,3.913,3.481,3.894,3.496c0,0,0,0,0,0c-0.001,0-0.003,0.001-0.003,0.002
					c0,0.001,0.001,0.001,0.002,0.001C3.896,3.496,3.9,3.494,3.903,3.493C3.899,3.496,3.894,3.499,3.889,3.501
					c-0.01,0.001-0.019,0-0.03,0C3.866,3.498,3.871,3.493,3.877,3.49C3.876,3.489,3.874,3.489,3.873,3.489
					c-0.002,0.001-0.007-0.001-0.009,0C3.854,3.493,3.842,3.492,3.838,3.501"/>
			</g>
		</g>
		<g>
			<g>
				<defs>
					<rect id="SVGID_3_" x="3.665" y="3.238" width="0.768" height="0.257"/>
				</defs>
				<clipPath id="SVGID_4_">
					<use xlink:href="#SVGID_3_"  overflow="visible"/>
				</clipPath>
				<path clip-path="url(#SVGID_4_)" fill="#FFFFFF" d="M3.861,3.426C3.859,3.427,3.857,3.428,3.858,3.428
					c0.001,0.002,0.005,0,0.008,0c-0.003,0-0.007,0-0.011,0.003C3.858,3.433,3.86,3.432,3.863,3.432
					c0,0.001,0.001,0.001,0.002,0.001C3.862,3.434,3.86,3.437,3.858,3.438C3.857,3.441,3.854,3.442,3.852,3.445
					c0,0.001,0,0.001,0,0.002C3.845,3.452,3.839,3.456,3.834,3.462c0.001,0,0.001,0,0.001,0C3.834,3.464,3.832,3.465,3.831,3.467
					c0,0,0,0,0,0c0.008-0.002,0.013-0.007,0.019-0.01c0.004-0.001,0.009-0.004,0.013-0.005C3.866,3.452,3.87,3.451,3.873,3.45
					c0,0,0,0,0.001,0c0.001,0,0.002,0,0.004,0C3.876,3.452,3.875,3.452,3.875,3.452c0.001,0.001,0.005,0.001,0.007,0
					c0.002-0.001,0.003-0.001,0.007-0.001c0.001,0,0.001,0,0.001-0.001C3.892,3.45,3.893,3.45,3.894,3.45
					c0.014-0.003,0.028-0.007,0.041-0.013C3.92,3.426,3.901,3.422,3.882,3.417c0.001,0,0.003,0.002,0.005,0
					c-0.002-0.002-0.007,0-0.009-0.002c0.001,0,0.002,0.001,0.002-0.001C3.876,3.411,3.871,3.411,3.866,3.41
					C3.868,3.409,3.87,3.408,3.87,3.403c0-0.001-0.001-0.001-0.002-0.001c-0.007,0.003-0.012,0.01-0.014,0.019
					c0.004,0.002,0.009,0.001,0.013,0.001C3.867,3.425,3.863,3.425,3.861,3.426L3.861,3.426z"/>
			</g>
		</g>
		<g>
			<g>
				<defs>
					<rect id="SVGID_5_" x="3.665" y="3.238" width="0.768" height="0.257"/>
				</defs>
				<clipPath id="SVGID_6_">
					<use xlink:href="#SVGID_5_"  overflow="visible"/>
				</clipPath>
				<path clip-path="url(#SVGID_6_)" fill="#FFFFFF" d="M3.837,3.402C3.83,3.409,3.824,3.415,3.817,3.418
					c-0.005,0.011-0.011,0.02-0.02,0.03c0,0.001,0.001,0.001,0.001,0.001c0.014-0.016,0.027-0.03,0.045-0.041
					c0.001,0-0.001,0.002,0.001,0.001C3.852,3.408,3.854,3.4,3.857,3.394C3.862,3.387,3.87,3.383,3.876,3.376
					c0,0.001,0,0.001,0,0.002c0,0,0,0,0.001,0c0.002-0.001,0.005,0,0.007-0.003C3.881,3.374,3.874,3.374,3.87,3.375
					C3.857,3.383,3.847,3.393,3.837,3.402L3.837,3.402z"/>
			</g>
		</g>
		<g>
			<g>
				<defs>
					<rect id="SVGID_7_" x="3.665" y="3.238" width="0.768" height="0.257"/>
				</defs>
				<clipPath id="SVGID_8_">
					<use xlink:href="#SVGID_7_"  overflow="visible"/>
				</clipPath>
				<path clip-path="url(#SVGID_8_)" fill="#FFFFFF" d="M3.846,3.414c0.001-0.001,0.001-0.001,0.002-0.002
					c0-0.001,0-0.001-0.001-0.001C3.844,3.412,3.842,3.413,3.842,3.416c0,0,0.001,0,0.001,0C3.845,3.416,3.845,3.415,3.846,3.414
					L3.846,3.414z"/>
			</g>
		</g>
		<g>
			<g>
				<defs>
					<rect id="SVGID_9_" x="3.665" y="3.238" width="0.768" height="0.257"/>
				</defs>
				<clipPath id="SVGID_10_">
					<use xlink:href="#SVGID_9_"  overflow="visible"/>
				</clipPath>
				<path clip-path="url(#SVGID_10_)" fill="#FFFFFF" d="M3.893,3.458c-0.002,0-0.007,0-0.008,0.004
					c0,0.001,0.002,0.001,0.003,0.001c0.004-0.001,0.009,0,0.012-0.003c0-0.001-0.002-0.001-0.004-0.002
					C3.895,3.457,3.894,3.458,3.893,3.458L3.893,3.458z"/>
			</g>
		</g>
		<g>
			<g>
				<defs>
					<rect id="SVGID_11_" x="3.665" y="3.238" width="0.768" height="0.257"/>
				</defs>
				<clipPath id="SVGID_12_">
					<use xlink:href="#SVGID_11_"  overflow="visible"/>
				</clipPath>
				<path clip-path="url(#SVGID_12_)" fill="#004A99" d="M3.957,3.49C3.96,3.489,3.964,3.487,3.967,3.486c0,0.001,0,0.001,0,0.001
					c0.009-0.003,0.015-0.011,0.024-0.014c0.001,0,0.001,0,0.002,0c0.005-0.004,0.011-0.01,0.019-0.009c0,0,0,0,0.001,0
					s0.001,0,0.001,0C4.013,3.466,4.011,3.467,4.007,3.469c0,0.001,0,0.001,0.001,0.001c0.002-0.001,0.004-0.003,0.007-0.004
					c0,0.001,0,0.001,0,0.002c-0.011,0.008-0.02,0.019-0.028,0.027c-0.006,0-0.012,0-0.018,0c0,0,0,0-0.001,0
					c-0.021,0.001-0.041,0-0.061,0c0.011-0.001,0.023-0.005,0.035-0.006C3.947,3.491,3.951,3.492,3.957,3.49L3.957,3.49z"/>
			</g>
		</g>
		<g>
			<g>
				<defs>
					<rect id="SVGID_13_" x="3.665" y="3.238" width="0.768" height="0.257"/>
				</defs>
				<clipPath id="SVGID_14_">
					<use xlink:href="#SVGID_13_"  overflow="visible"/>
				</clipPath>
				<path clip-path="url(#SVGID_14_)" fill="#E63329" d="M4.188,3.46C4.189,3.456,4.19,3.451,4.188,3.447
					C4.185,3.442,4.192,3.44,4.195,3.437c0.002-0.002,0-0.004-0.001-0.007C4.192,3.428,4.191,3.428,4.189,3.427
					C4.193,3.425,4.2,3.422,4.197,3.416C4.195,3.413,4.192,3.408,4.196,3.405C4.2,3.402,4.207,3.403,4.208,3.398
					c0.002-0.008-0.003-0.013-0.008-0.02C4.199,3.376,4.197,3.373,4.194,3.37C4.192,3.366,4.189,3.362,4.188,3.357
					C4.186,3.354,4.188,3.348,4.188,3.344c0-0.009-0.002-0.019-0.004-0.026C4.183,3.314,4.182,3.309,4.18,3.306
					C4.179,3.303,4.179,3.302,4.178,3.298c-0.001-0.001-0.001-0.002,0-0.004C4.18,3.292,4.182,3.291,4.185,3.288
					C4.187,3.285,4.186,3.28,4.183,3.278C4.178,3.277,4.179,3.283,4.176,3.283c-0.001,0-0.001,0-0.001,0
					c-0.001-0.001,0-0.002,0.001-0.003c0,0,0-0.001-0.001-0.001c-0.002,0-0.004-0.001-0.005-0.001
					C4.163,3.269,4.156,3.264,4.147,3.261C4.15,3.262,4.152,3.262,4.155,3.262c0.004,0.001,0.009,0.001,0.013-0.001
					C4.17,3.26,4.171,3.254,4.172,3.251c0-0.002-0.001-0.006-0.002-0.007C4.167,3.24,4.163,3.237,4.158,3.234
					c0.092,0,0.185,0,0.278,0c0,0.086-0.001,0.173-0.001,0.26c-0.11,0.001-0.219,0-0.329,0c0.003-0.012,0.01-0.022,0.021-0.031
					C4.13,3.462,4.132,3.462,4.136,3.461c0.01,0,0.02,0.002,0.03,0.004c0,0,0.002,0.001,0.003,0.001
					C4.172,3.467,4.177,3.467,4.18,3.465C4.181,3.468,4.186,3.466,4.188,3.46L4.188,3.46z"/>
			</g>
		</g>
		<g>
			<g>
				<defs>
					<rect id="SVGID_15_" x="3.665" y="3.238" width="0.768" height="0.257"/>
				</defs>
				<clipPath id="SVGID_16_">
					<use xlink:href="#SVGID_15_"  overflow="visible"/>
				</clipPath>
				<path clip-path="url(#SVGID_16_)" fill="#808080" d="M4.165,3.345c-0.003-0.001-0.007,0-0.01,0
					c-0.004,0-0.009,0.001-0.012,0.003C4.146,3.346,4.15,3.344,4.153,3.342C4.156,3.341,4.16,3.339,4.163,3.339
					c0.003-0.001,0.007-0.002,0.01-0.001S4.18,3.339,4.181,3.341C4.182,3.344,4.179,3.348,4.176,3.35
					c-0.001,0,0.002,0.001,0.002,0.002C4.177,3.354,4.175,3.354,4.174,3.354C4.173,3.355,4.172,3.356,4.171,3.357
					c0.001,0,0,0.002,0.001,0.002c-0.003,0.002,0,0.009-0.003,0.01c-0.004,0.001-0.009,0.001-0.013,0
					C4.158,3.368,4.161,3.37,4.163,3.368c0-0.001,0-0.002,0-0.002c0-0.001,0-0.001,0-0.001C4.162,3.365,4.162,3.365,4.162,3.365
					c0-0.001-0.001-0.003-0.001-0.003c-0.003,0.001-0.007,0-0.009-0.003c0.001-0.001,0.003-0.001,0.005-0.001
					c0.002,0,0.001-0.002,0.002-0.004c0.001,0,0.001,0,0.002,0C4.163,3.35,4.171,3.348,4.172,3.343
					C4.17,3.346,4.167,3.346,4.165,3.345L4.165,3.345z"/>
			</g>
		</g>
	</g>
</g>
<g>
	<g>
		<g>
			<path fill="#FFFFFF" d="M5.481,4.296C5.445,4.377,5.368,4.428,5.278,4.428c-0.125,0-0.228-0.091-0.228-0.219
				c0-0.123,0.105-0.216,0.225-0.216c0.09,0,0.174,0.051,0.205,0.135H5.418C5.389,4.078,5.334,4.046,5.275,4.046
				c-0.092,0-0.17,0.068-0.17,0.163c0,0.092,0.072,0.165,0.166,0.165c0.064,0,0.109-0.027,0.146-0.078H5.481L5.481,4.296z"/>
			<path fill="#FFFFFF" d="M5.521,3.855h0.057v0.096H5.521V3.855z M5.521,4.001h0.057v0.417H5.521V4.001z"/>
			<path fill="#FFFFFF" d="M5.695,4.053H5.649V4.001h0.046V3.855h0.057v0.146h0.096v0.051H5.752v0.366H5.695V4.053z"/>
			<path fill="#FFFFFF" d="M5.908,4.23C5.91,4.31,5.987,4.374,6.064,4.374c0.062,0,0.125-0.035,0.15-0.091h0.059
				C6.244,4.368,6.159,4.429,6.07,4.429c-0.123,0-0.219-0.096-0.219-0.218c0-0.121,0.096-0.218,0.217-0.218
				c0.066,0,0.126,0.03,0.168,0.081C6.275,4.122,6.283,4.17,6.284,4.231L5.908,4.23L5.908,4.23z M6.229,4.179
				C6.213,4.105,6.146,4.047,6.069,4.047c-0.079,0-0.148,0.055-0.161,0.132H6.229z"/>
		</g>
		<rect x="5.965" y="3.909" fill="#FFFFFF" width="0.224" height="0.042"/>
	</g>
	<g>
		<g>
			<path fill="#7AB51D" d="M3.716,4.23c0.003,0.08,0.08,0.144,0.158,0.144c0.061,0,0.125-0.035,0.149-0.091h0.059
				C4.053,4.368,3.967,4.429,3.878,4.429c-0.123,0-0.218-0.096-0.218-0.218c0-0.121,0.096-0.218,0.216-0.218
				c0.066,0,0.126,0.03,0.167,0.081c0.04,0.048,0.048,0.097,0.048,0.158L3.716,4.23L3.716,4.23z M4.037,4.179
				C4.021,4.105,3.955,4.047,3.877,4.047c-0.078,0-0.148,0.055-0.162,0.132H4.037z"/>
			<path fill="#7AB51D" d="M4.553,4.296C4.517,4.377,4.44,4.428,4.35,4.428c-0.125,0-0.228-0.091-0.228-0.219
				c0-0.123,0.105-0.216,0.225-0.216c0.089,0,0.174,0.051,0.205,0.135H4.489C4.46,4.078,4.405,4.046,4.348,4.046
				c-0.093,0-0.17,0.068-0.17,0.163c0,0.092,0.072,0.165,0.165,0.165c0.065,0,0.11-0.027,0.147-0.078H4.553L4.553,4.296z"/>
			<path fill="#7AB51D" d="M5.019,4.208c0,0.119-0.097,0.221-0.216,0.221c-0.117,0-0.219-0.096-0.219-0.216
				c0-0.121,0.097-0.221,0.219-0.221C4.918,3.993,5.019,4.092,5.019,4.208z M4.639,4.212c0,0.089,0.073,0.162,0.163,0.162
				c0.093,0,0.161-0.077,0.161-0.167c0-0.046-0.016-0.083-0.049-0.116c-0.029-0.027-0.07-0.046-0.111-0.046
				C4.709,4.047,4.639,4.122,4.639,4.212z"/>
		</g>
		<rect x="3.763" y="3.9" fill="#7AB51D" width="0.224" height="0.042"/>
	</g>
</g>
</svg>
