<svg xmlns="http://www.w3.org/2000/svg" xmlns:xlink="http://www.w3.org/1999/xlink" viewBox="0 0 275.37 324.06"><defs><style>.cls-1{fill:none;}.cls-2{clip-path:url(#clip-path);}.cls-3{fill:#262626;}.cls-4{fill:#1da7ff;}</style><clipPath id="clip-path" transform="translate(0 -0.9)"><rect class="cls-1" width="276" height="325.92"/></clipPath></defs><title>Fichier 1</title><g id="Calque_2" data-name="Calque 2"><g id="Layer_1" data-name="Layer 1"><g class="cls-2"><path class="cls-3" d="M274.45,270.56l-47.36-83.2c4.8-2.24,7.68-7.36,7.36-13.12l-3.52-29.44,20.16-21.12c4.48-4.48,4.8-12.16.32-17.6L231.25,84.32l4.16-29.76a13.24,13.24,0,0,0-10.24-14.08L196,34.72,182,8.8a12.59,12.59,0,0,0-16.32-6.08h-.32L138.45,15.2,112.2,2.4a12.46,12.46,0,0,0-17,5.12L80.85,33.44,51.72,38.56A13.13,13.13,0,0,0,41.17,53L44.69,82.4,24.52,103.52c-4.48,4.48-4.8,12.16-.32,17.6l20.16,21.76L40.2,172.64a13.18,13.18,0,0,0,8.32,13.44L.85,270.56c-1.28,1.92-1,4.48,0,6.4a6.6,6.6,0,0,0,5.44,3.2h51.2L80.85,320.8a6.6,6.6,0,0,0,5.44,3.2,6.19,6.19,0,0,0,5.44-3.2l45.76-78.08,45.76,79a6.59,6.59,0,0,0,5.44,3.2,6.19,6.19,0,0,0,5.44-3.2l23.36-41.6h51.2a6.2,6.2,0,0,0,5.44-3.2,5.3,5.3,0,0,0,.32-6.4ZM86.61,304.8,66.77,270.56a6.6,6.6,0,0,0-5.44-3.2H17.17l44.16-78.08,18.24,3.2L93.65,218.4A12.59,12.59,0,0,0,110,224.48h.32l13.12-6.08,6.4,11.2ZM105.17,213h-.32L90.77,186.4a11.94,11.94,0,0,0-9-6.08l-29.44-5.44,4.16-29.44a12.46,12.46,0,0,0-3.2-10.56L33.49,113.12,53.65,92a12,12,0,0,0,3.52-10.56L53.65,52.32a1,1,0,0,1,.32-.64l29.12-5.12a13,13,0,0,0,9-6.4l14.4-25.92L132.69,27a12.25,12.25,0,0,0,11.52,0l26.56-12.16h.32l14.08,26.56c1.92,3.2,5.12,5.76,8.64,6.08l29.12,5.76-4.16,29.44A12.44,12.44,0,0,0,222,93.28L242.13,115l-20.48,21.12a12,12,0,0,0-3.52,10.56l3.52,29.44-28.8,4.8a13,13,0,0,0-9,6.4l-14.4,25.92-26.24-12.8a12.26,12.26,0,0,0-11.52,0ZM214,267.36a6.19,6.19,0,0,0-5.44,3.2l-19.84,35.2-45.12-78.08a5.11,5.11,0,0,0-1.28-2.24l-7-12.48,2.24-1,26.24,12.8a13.17,13.17,0,0,0,17-5.12l14.4-25.92,19.2-3.52,43.84,77.12Zm0,0" transform="translate(0 -0.9)"/></g><path class="cls-3" d="M201.49,113.76a64,64,0,1,0-64,64,64.19,64.19,0,0,0,64-64Zm-64,51.2a51.2,51.2,0,1,1,51.2-51.2,51.35,51.35,0,0,1-51.2,51.2Zm0,0" transform="translate(0 -0.9)"/><path class="cls-4" d="M137.49,165a51.2,51.2,0,1,1,51.2-51.2,51.35,51.35,0,0,1-51.2,51.2Z" transform="translate(0 -0.9)"/></g></g></svg>