<?xml version="1.0" encoding="utf-8"?>
<!-- Generator: Adobe Illustrator 18.0.0, SVG Export Plug-In . SVG Version: 6.00 Build 0)  -->
<!DOCTYPE svg PUBLIC "-//W3C//DTD SVG 1.1//EN" "http://www.w3.org/Graphics/SVG/1.1/DTD/svg11.dtd">
<svg version="1.1" id="Calque_1" xmlns="http://www.w3.org/2000/svg" xmlns:xlink="http://www.w3.org/1999/xlink" x="0px" y="0px"
	 viewBox="0 0 24.3 17.8" enable-background="new 0 0 24.3 17.8" xml:space="preserve">
<g>
	<path fill="#FFFFFF" d="M0.8,9.7h22.7c0.4,0,0.8-0.4,0.8-0.8s-0.4-0.8-0.8-0.8H0.8C0.4,8.1,0,8.4,0,8.9S0.4,9.7,0.8,9.7"/>
	<path fill="#FFFFFF" d="M0.3,9.5l8.1,8c0.3,0.3,0.8,0.3,1.2,0c0.3-0.3,0.3-0.8,0-1.1l-8.1-8C1.1,8,0.6,8,0.3,8.4
		C0,8.7,0,9.2,0.3,9.5"/>
	<path fill="#FFFFFF" d="M0.3,9.4c0.3,0.3,0.8,0.3,1.2,0l8.1-8c0.3-0.3,0.3-0.8,0-1.1c-0.3-0.3-0.8-0.3-1.2,0l-8.1,8
		C0,8.6,0,9.1,0.3,9.4"/>
	<path fill="#FFFFFF" d="M24,9.5c0.3-0.3,0.3-0.8,0-1.1c-0.3-0.3-0.8-0.3-1.2,0L24,9.5z"/>
	<path fill="#FFFFFF" d="M24,9.5c0.3-0.3,0.3-0.8,0-1.1c-0.3-0.3-0.8-0.3-1.2,0L24,9.5z"/>
</g>
</svg>
