<?xml version="1.0" encoding="utf-8"?>
<!-- Generator: Adobe Illustrator 18.0.0, SVG Export Plug-In . SVG Version: 6.00 Build 0)  -->
<!DOCTYPE svg PUBLIC "-//W3C//DTD SVG 1.1//EN" "http://www.w3.org/Graphics/SVG/1.1/DTD/svg11.dtd">
<svg version="1.1" id="Calque_1" xmlns="http://www.w3.org/2000/svg" xmlns:xlink="http://www.w3.org/1999/xlink" x="0px" y="0px"
	 viewBox="0 0 24.3 17.8" enable-background="new 0 0 24.3 17.8" xml:space="preserve">
<g>
	<path fill="#FFFFFF" d="M23.5,8.1H0.8C0.4,8.1,0,8.4,0,8.9s0.4,0.8,0.8,0.8h22.7c0.4,0,0.8-0.4,0.8-0.8S23.9,8.1,23.5,8.1"/>
	<path fill="#FFFFFF" d="M24,8.3l-8.1-8c-0.3-0.3-0.8-0.3-1.2,0c-0.3,0.3-0.3,0.8,0,1.1l8.1,8c0.3,0.3,0.8,0.3,1.2,0
		C24.3,9.1,24.3,8.6,24,8.3"/>
	<path fill="#FFFFFF" d="M24,8.4c-0.3-0.3-0.8-0.3-1.2,0l-8.1,8c-0.3,0.3-0.3,0.8,0,1.1c0.3,0.3,0.8,0.3,1.2,0l8.1-8
		C24.3,9.2,24.3,8.7,24,8.4"/>
	<path fill="#FFFFFF" d="M0.3,8.3C0,8.6,0,9.1,0.3,9.4s0.8,0.3,1.2,0L0.3,8.3z"/>
	<path fill="#FFFFFF" d="M0.3,8.3C0,8.6,0,9.1,0.3,9.4s0.8,0.3,1.2,0L0.3,8.3z"/>
</g>
</svg>
