<?xml version="1.0" encoding="utf-8"?>
<!-- Generator: Adobe Illustrator 18.0.0, SVG Export Plug-In . SVG Version: 6.00 Build 0)  -->
<!DOCTYPE svg PUBLIC "-//W3C//DTD SVG 1.1//EN" "http://www.w3.org/Graphics/SVG/1.1/DTD/svg11.dtd">
<svg version="1.1" id="Calque_1" xmlns="http://www.w3.org/2000/svg" xmlns:xlink="http://www.w3.org/1999/xlink" x="0px" y="0px"
	 viewBox="0 0 14.5 8.4" enable-background="new 0 0 14.5 8.4" xml:space="preserve">
<g>
	<path fill="#1D1D1B" d="M0.1,1.5l6.8,6.8C7,8.4,7.1,8.4,7.2,8.4c0.1,0,0.2,0,0.3-0.1l6.8-6.8c0.1-0.1,0.1-0.2,0.1-0.3
		c0-0.1,0-0.2-0.1-0.3l-0.7-0.7C13.5,0,13.4,0,13.3,0c-0.1,0-0.2,0-0.3,0.1L7.2,5.8L1.5,0.1C1.4,0,1.3,0,1.2,0S1,0,0.9,0.1L0.1,0.9
		C0,1,0,1.1,0,1.2C0,1.3,0,1.4,0.1,1.5"/>
</g>
</svg>
