<?xml version="1.0" encoding="utf-8"?>
<!-- Generator: Adobe Illustrator 18.0.0, SVG Export Plug-In . SVG Version: 6.00 Build 0)  -->
<!DOCTYPE svg PUBLIC "-//W3C//DTD SVG 1.1//EN" "http://www.w3.org/Graphics/SVG/1.1/DTD/svg11.dtd">
<svg version="1.1" id="Calque_1" xmlns="http://www.w3.org/2000/svg" xmlns:xlink="http://www.w3.org/1999/xlink" x="0px" y="0px"
	 viewBox="0 0 14.5 8.4" enable-background="new 0 0 14.5 8.4" xml:space="preserve">
<g>
	<path fill="#1D1D1B" d="M14.3,6.9L7.6,0.1C7.5,0,7.4,0,7.2,0C7.1,0,7,0,6.9,0.1L0.1,6.9C0,7,0,7.1,0,7.2c0,0.1,0,0.2,0.1,0.3
		l0.7,0.7C1,8.4,1.1,8.4,1.2,8.4c0.1,0,0.2,0,0.3-0.1l5.7-5.7l5.7,5.7c0.1,0.1,0.2,0.1,0.3,0.1c0.1,0,0.2,0,0.3-0.1l0.7-0.7
		c0.1-0.1,0.1-0.2,0.1-0.3C14.5,7.1,14.4,7,14.3,6.9"/>
</g>
</svg>
