<svg xmlns="http://www.w3.org/2000/svg" xmlns:xlink="http://www.w3.org/1999/xlink" viewBox="0 0 333.86 409.6"><defs><style>.cls-1{fill:none;}.cls-2{clip-path:url(#clip-path);}.cls-3{fill:#1da7ff;}.cls-4{fill:#262626;}</style><clipPath id="clip-path" transform="translate(0 -0.32)"><rect class="cls-1" width="333.84" height="410.88"/></clipPath></defs><title>2</title><g id="Calque_2" data-name="Calque 2"><g id="Layer_1" data-name="Layer 1"><g class="cls-2"><path class="cls-3" d="M20.89,97.88,151.5,190.62c8.21,5.84,22.62,5.84,30.84,0L313,97.88c2.87-2,4.5-4.34,4.38-6.16s-2.07-3.87-5.18-5.48l-127-65.63c-4.85-2.5-11.53-3.76-18.22-3.76s-13.36,1.25-18.21,3.76L21.7,86.24c-3.1,1.61-5,3.66-5.16,5.49s1.5,4.13,4.35,6.15Zm0,0" transform="translate(0 -0.32)"/><path class="cls-4" d="M11.32,111.36,141.93,204.1c7,5,16,7.46,25,7.46s18-2.49,25-7.46l130.61-92.74c7.72-5.48,11.84-13.06,11.3-20.8s-5.68-14.66-14.09-19l-127-65.62c-14.46-7.49-37.13-7.49-51.6,0l-127,65.62C5.72,75.9.59,82.83,0,90.57s3.57,15.32,11.27,20.79ZM21.7,86.24l127-65.63c4.85-2.51,11.53-3.76,18.21-3.76s13.36,1.25,18.22,3.76l127,65.63c3.12,1.61,5.05,3.66,5.18,5.48s-1.51,4.13-4.37,6.16L182.34,190.62c-8.22,5.84-22.63,5.84-30.84,0L20.89,97.88c-2.86-2-4.48-4.33-4.35-6.15s2.06-3.88,5.16-5.49Zm0,0" transform="translate(0 -0.32)"/><path class="cls-4" d="M319.73,137.68l-7.59,14.68c3.12,1.61,5.05,3.66,5.18,5.48S315.82,162,313,164L182.34,256.74c-8.22,5.84-22.63,5.84-30.84,0L20.89,164c-2.86-2-4.48-4.32-4.35-6.15s2.06-3.88,5.16-5.49l-7.59-14.68C5.72,142,.59,148.95,0,156.69S3.61,172,11.32,177.48l130.61,92.74c7,5,16,7.46,25,7.46s18-2.49,25-7.46l130.61-92.74c7.72-5.48,11.84-13.06,11.3-20.8s-5.68-14.66-14.09-19Zm0,0" transform="translate(0 -0.32)"/><path class="cls-4" d="M319.73,203.8l-7.59,14.68c3.12,1.61,5.05,3.66,5.18,5.48s-1.51,4.13-4.37,6.16L182.34,322.86c-8.22,5.84-22.63,5.84-30.84,0L20.89,230.12c-2.86-2-4.48-4.33-4.35-6.15s2.06-3.88,5.16-5.49L14.11,203.8C5.72,208.14.59,215.07,0,222.81s3.57,15.32,11.27,20.79l130.61,92.74c7,5,16,7.46,25,7.46s18-2.49,25-7.46L322.52,243.6c7.72-5.48,11.84-13.06,11.3-20.8s-5.68-14.66-14.09-19Zm0,0" transform="translate(0 -0.32)"/><path class="cls-4" d="M319.73,269.92l-7.59,14.68c3.12,1.61,5.05,3.66,5.18,5.48s-1.51,4.13-4.37,6.16L182.34,389c-8.22,5.84-22.63,5.84-30.84,0L20.89,296.24c-2.86-2-4.48-4.33-4.35-6.15s2.06-3.88,5.16-5.49l-7.59-14.68C5.72,274.26.59,281.19,0,288.93s3.57,15.32,11.27,20.79l130.61,92.74c7,5,16,7.46,25,7.46s18-2.49,25-7.46l130.61-92.74c7.72-5.48,11.84-13.06,11.3-20.79s-5.68-14.66-14.09-19Zm0,0" transform="translate(0 -0.32)"/></g></g></g></svg>