<svg xmlns="http://www.w3.org/2000/svg" xmlns:xlink="http://www.w3.org/1999/xlink" viewBox="0 0 392.01 257.59"><defs><style>.cls-1{fill:none;}.cls-2{clip-path:url(#clip-path);}.cls-3{fill:#1da7ff;}.cls-4{fill:#262626;}.cls-5{fill:#fff;}</style><clipPath id="clip-path" transform="translate(0 -0.41)"><rect class="cls-1" width="392.88" height="258.96"/></clipPath></defs><title>3</title><g id="Calque_2" data-name="Calque 2"><g id="Layer_1" data-name="Layer 1"><g class="cls-2"><path class="cls-3" d="M7.29,130.43,49.38,7.69,99.55,24.89,57.46,147.63Zm0,0" transform="translate(0 -0.41)"/><path class="cls-4" d="M136,18.08l-4.88,2.4a25.46,25.46,0,0,1-19.52,1.12l-8.16-2.88A6.06,6.06,0,0,0,102,18L51.75.8a7.27,7.27,0,0,0-9.2,4.48L.4,128.08a7.21,7.21,0,0,0,4.48,9.2L55,154.48a8.26,8.26,0,0,0,2.32.4A7.31,7.31,0,0,0,64.23,150L104,34.32l2.72,1a40.37,40.37,0,0,0,30.8-1.76l4.88-2.4a25.4,25.4,0,0,1,19.36-1.2L254,61.68c-1,3.84-2.88,8.4-6.4,10.88-3.92,2.72-9.76,2.72-17.44.08L189,58.56a7.24,7.24,0,0,0-5.76.48,7.61,7.61,0,0,0-3.6,4.56c-.08.24-5.76,21.52-23.92,31.28-11.44,6.16-25.68,6.4-42.4.72a7.23,7.23,0,1,0-4.72,13.68,84,84,0,0,0,27,5,55.68,55.68,0,0,0,26.88-6.56C178.79,99,187.2,83.68,191,74.56l34.32,11.76c12.24,4.24,22.48,3.6,30.4-1.92C268.48,75.6,269.11,57.76,269.2,57a7.26,7.26,0,0,0-4.88-7L166.4,16.16A40.48,40.48,0,0,0,136,18.08ZM53,138.4,16.48,125.92l37.36-109L90.32,29.36Zm0,0" transform="translate(0 -0.41)"/><path class="cls-5" d="M337,148.36,280,31.82,327.63,8.51l57,116.54Zm0,0" transform="translate(0 -0.41)"/><path class="cls-4" d="M328.16,146.64,311,162.48a219.76,219.76,0,0,1-52.24,35.68L167.43,242.8a8.14,8.14,0,0,1-7.12-14.64l1.12-.56,49.92-24.4a7.24,7.24,0,1,0-6.32-13l-49.92,24.4L130,226.88a8.11,8.11,0,0,1-10.88-3.76,7.89,7.89,0,0,1-.4-6.16,8.06,8.06,0,0,1,4.08-4.64l19-9.28L196,176.48a7.24,7.24,0,0,0-6.32-13l-54.32,26.64-2.08,1-25.92,12.72a7.87,7.87,0,0,1-6.16.4,8.1,8.1,0,0,1-.88-15l9-4.4,18.32-9,5.12-2.48,42.08-20.64a7.24,7.24,0,1,0-6.32-13l-45.6,22.32L103,171.84a8.17,8.17,0,0,1-10.88-3.76,7.85,7.85,0,0,1-.4-6.16,8.06,8.06,0,0,1,4.08-4.64l34.8-17a7.25,7.25,0,0,0-6.32-13l-34.8,17A22.28,22.28,0,0,0,78,157.2a22.36,22.36,0,0,0,8,25.52,22.69,22.69,0,0,0-2.4,23.76,22.3,22.3,0,0,0,13,11.44,22.61,22.61,0,0,0,7.2,1.2,21.86,21.86,0,0,0,2.32,10.48,22.65,22.65,0,0,0,20.32,12.64,22,22,0,0,0,9.92-2.32l5.12-2.48a23.44,23.44,0,0,0,2.16,7.92A22.65,22.65,0,0,0,163.91,258a22,22,0,0,0,9.92-2.32L265.11,211a234,234,0,0,0,55.68-38l20.4-18.8,46.72-22.88a7.23,7.23,0,0,0,3.36-9.68L334.16,5.28a7.27,7.27,0,0,0-9.68-3.36L276.79,25.2a7.24,7.24,0,0,0-3.36,9.68ZM324.32,18.16,375,121.76l-34.64,17L289.68,35.12Zm0,0" transform="translate(0 -0.41)"/></g></g></g></svg>