<?xml version="1.0" encoding="utf-8"?>
<!-- Generator: Adobe Illustrator 18.1.0, SVG Export Plug-In . SVG Version: 6.00 Build 0)  -->
<svg version="1.1"
	 id="svg6189" xmlns:cc="http://creativecommons.org/ns#" xmlns:dc="http://purl.org/dc/elements/1.1/" xmlns:sodipodi="http://sodipodi.sourceforge.net/DTD/sodipodi-0.dtd" xmlns:svg="http://www.w3.org/2000/svg" xmlns:rdf="http://www.w3.org/1999/02/22-rdf-syntax-ns#" xmlns:inkscape="http://www.inkscape.org/namespaces/inkscape" sodipodi:docname="New document 17" inkscape:version="0.48.4 r9939"
	 xmlns="http://www.w3.org/2000/svg" xmlns:xlink="http://www.w3.org/1999/xlink" x="0px" y="0px" viewBox="0 0 198.3 100"
	 enable-background="new 0 0 198.3 100" xml:space="preserve">
<sodipodi:namedview  bordercolor="#666666" pagecolor="#ffffff" borderopacity="1.0" inkscape:zoom="0.7" inkscape:cx="263.57143" showgrid="false" fit-margin-top="0" id="base" inkscape:cy="520.00002" fit-margin-left="0" inkscape:window-maximized="1" inkscape:window-y="-8" inkscape:window-x="-8" inkscape:window-height="1018" inkscape:window-width="1920" inkscape:current-layer="layer1" inkscape:document-units="px" inkscape:pageopacity="0.0" fit-margin-right="0" inkscape:pageshadow="2" fit-margin-bottom="0">
	</sodipodi:namedview>
<g id="layer1" transform="translate(0,-782.67468)" inkscape:label="Layer 1" inkscape:groupmode="layer">
	<path id="path7033" inkscape:connector-curvature="0" fill="#999999" d="M34.5,797.7C15.5,797.7,0,813,0,831.9
		c0,18.9,15.5,34.3,34.5,34.3c8.1,0,15.5-2.7,21.4-7.3c5.9,4.6,13.3,7.3,21.4,7.3c8.1,0,15.5-2.7,21.4-7.3
		c5.9,4.6,13.3,7.3,21.4,7.3c8.1,0,15.5-2.7,21.4-7.3c5.9,4.6,13.3,7.3,21.4,7.3c19.1,0,34.5-15.3,34.5-34.3
		c0-18.9-15.5-34.3-34.5-34.3c-8.1,0-15.5,2.7-21.4,7.3c-5.9-4.6-13.3-7.3-21.4-7.3c-8.1,0-15.5,2.7-21.4,7.3
		c-5.9-4.6-13.3-7.3-21.4-7.3c-8.1,0-15.5,2.7-21.4,7.3C50,800.4,42.6,797.7,34.5,797.7z M34.5,806.2c5.7,0,11,1.9,15.3,5.1
		c-4.4,5.7-7,12.9-7,20.7c0,7.7,2.6,14.8,6.9,20.6c-4.3,3.2-9.5,5-15.2,5c-14.1,0-25.6-11.5-25.6-25.7
		C8.9,817.7,20.3,806.2,34.5,806.2z M77.2,806.2c5.7,0,11,1.9,15.3,5.1c-4.4,5.8-7,12.9-7,20.7c0,7.7,2.6,14.9,6.9,20.6
		c-4.3,3.2-9.5,5-15.2,5c-5.6,0-10.9-1.8-15.1-4.9c4.4-5.7,7-12.9,7-20.7c0-7.8-2.6-15-7.1-20.8C66.3,808,71.5,806.2,77.2,806.2z
		 M119.9,806.2c5.7,0,11,1.9,15.3,5.1c-4.4,5.7-7,12.9-7,20.7c0,7.7,2.6,14.8,6.9,20.6c-4.3,3.2-9.5,5-15.2,5
		c-5.6,0-10.9-1.8-15.1-4.9c4.4-5.7,7-12.9,7-20.7c0-7.8-2.6-15-7.1-20.8C109,808,114.3,806.2,119.9,806.2z M162.7,806.2
		c14.1,0,25.6,11.5,25.6,25.7c0,14.2-11.5,25.7-25.6,25.7c-5.6,0-10.9-1.8-15.1-4.9c4.4-5.7,7-12.9,7-20.7c0-7.8-2.6-15-7.1-20.8
		C151.7,808,157,806.2,162.7,806.2z M98.6,817.7c2.7,4.1,4.2,8.9,4.2,14.2s-1.6,10.1-4.2,14.2c-2.7-4.1-4.2-8.9-4.2-14.2
		S95.9,821.8,98.6,817.7z M55.8,817.7c2.7,4.1,4.2,8.9,4.2,14.1c0,5.2-1.6,10.1-4.2,14.1c-2.7-4.1-4.2-8.9-4.2-14.1
		C51.6,826.6,53.2,821.8,55.8,817.7z M141.3,817.7c2.7,4.1,4.2,8.9,4.2,14.1c0,5.2-1.6,10.1-4.2,14.1c-2.7-4.1-4.2-8.9-4.2-14.1
		C137.1,826.6,138.6,821.8,141.3,817.7z"/>
</g>
</svg>
