<?xml version="1.0" encoding="utf-8"?>
<!-- Generator: Adobe Illustrator 15.1.0, SVG Export Plug-In . SVG Version: 6.00 Build 0)  -->
<!DOCTYPE svg PUBLIC "-//W3C//DTD SVG 1.1//EN" "http://www.w3.org/Graphics/SVG/1.1/DTD/svg11.dtd">
<svg version="1.1" id="Calque_1" xmlns="http://www.w3.org/2000/svg" xmlns:xlink="http://www.w3.org/1999/xlink" x="0px" y="0px"
	 width="8px" height="8px" viewBox="0 0 8 8" enable-background="new 0 0 8 8" xml:space="preserve">
<g>
	<path fill="#FFFFFF" d="M4.263,7.736V0.263C4.263,0.132,4.165,0,4,0S3.737,0.132,3.737,0.263v7.473C3.737,7.868,3.868,8,4,8
		S4.263,7.868,4.263,7.736"/>
	<path fill="#FFFFFF" d="M4.198,7.901l2.633-2.667c0.099-0.099,0.099-0.264,0-0.395c-0.099-0.1-0.264-0.1-0.362,0L3.835,7.506
		c-0.099,0.1-0.099,0.264,0,0.396C3.934,8,4.099,8,4.198,7.901"/>
	<path fill="#FFFFFF" d="M4.165,7.901c0.099-0.099,0.099-0.264,0-0.396L1.531,4.84c-0.1-0.1-0.264-0.1-0.362,0
		c-0.099,0.099-0.099,0.264,0,0.395l2.634,2.667C3.901,8,4.066,8,4.165,7.901"/>
	<path fill="#FFFFFF" d="M4.198,0.099C4.099,0,3.934,0,3.835,0.099c-0.099,0.099-0.099,0.264,0,0.395L4.198,0.099z"/>
	<path fill="#FFFFFF" d="M4.198,0.099C4.099,0,3.934,0,3.835,0.099c-0.099,0.099-0.099,0.264,0,0.395L4.198,0.099z"/>
</g>
</svg>
