<?xml version="1.0" encoding="utf-8"?>
<!-- Generator: Adobe Illustrator 15.1.0, SVG Export Plug-In . SVG Version: 6.00 Build 0)  -->
<!DOCTYPE svg PUBLIC "-//W3C//DTD SVG 1.1//EN" "http://www.w3.org/Graphics/SVG/1.1/DTD/svg11.dtd">
<svg version="1.1" id="Calque_1" xmlns="http://www.w3.org/2000/svg" xmlns:xlink="http://www.w3.org/1999/xlink" x="0px" y="0px"
	 width="8px" height="8px" viewBox="0 0 8 8" enable-background="new 0 0 8 8" xml:space="preserve">
<g>
	<g>
		<defs>
			<rect id="SVGID_1_" x="0.06" width="7.881" height="8"/>
		</defs>
		<clipPath id="SVGID_2_">
			<use xlink:href="#SVGID_1_"  overflow="visible"/>
		</clipPath>
		<path clip-path="url(#SVGID_2_)" fill="#FF0" d="M3.075,0.627c0.597,0,1.224,0.239,1.702,0.716
			c0.925,0.925,0.925,2.418,0.03,3.374l0,0c0,0-0.03,0-0.03,0.029c-0.926,0.926-2.448,0.926-3.374,0
			c-0.925-0.925-0.925-2.448,0-3.373C1.851,0.866,2.478,0.627,3.075,0.627z M3.075,0c-0.776,0-1.552,0.298-2.12,0.896
			c-1.194,1.164-1.194,3.075,0,4.239C2.06,6.238,3.791,6.299,4.984,5.344l0,0l2.418,2.537C7.522,8,7.731,8,7.851,7.881
			c0.12-0.119,0.12-0.328,0-0.448L5.402,4.896c0.956-1.194,0.896-2.925-0.209-4.03C4.627,0.298,3.851,0,3.075,0"/>
	</g>
</g>
</svg>
