<svg xmlns="http://www.w3.org/2000/svg" xmlns:xlink="http://www.w3.org/1999/xlink" viewBox="0 0 392.28 363.6"><defs><style>.cls-1{fill:none;}.cls-2{clip-path:url(#clip-path);}.cls-3{fill:#1da7ff;}.cls-4{fill:#262626;}</style><clipPath id="clip-path" transform="translate(0 -0.24)"><rect id="SVGID" class="cls-1" width="392.88" height="364.8"/></clipPath></defs><title>4</title><g id="Calque_2" data-name="Calque 2"><g id="Layer_1" data-name="Layer 1"><g class="cls-2"><path class="cls-3" d="M243,117.2A109.68,109.68,0,1,1,133.33,7.52,109.68,109.68,0,0,1,243,117.2Zm0,0" transform="translate(0 -0.24)"/><path class="cls-4" d="M392.28,288a2.29,2.29,0,0,0-.08-.72,2.39,2.39,0,0,0-.16-.72c-.08-.24-.08-.48-.16-.64a2.36,2.36,0,0,0-.32-.64,2.41,2.41,0,0,0-.32-.64,1.42,1.42,0,0,0-.4-.56c-.16-.16-.24-.4-.4-.56a3.55,3.55,0,0,0-.56-.48l-.48-.48a4,4,0,0,0-.64-.4,3.3,3.3,0,0,0-.56-.32L300,238.32a2.4,2.4,0,0,0-.8-.32c-1.52-.56-37.92-13.28-67.68.08l-65.68,23.76c-.16.08-.4.16-.56.24a21.93,21.93,0,0,0,8,41.84h.16c.64,0,3.52-.16,33.44-2.08,13-.8,26.48-1.68,27.68-1.76a7.24,7.24,0,0,0-.16-14.48c-.4,0-.4,0-28.4,1.76-14,.88-29.68,1.92-32.32,2.08a7.44,7.44,0,0,1-2.56-14.08l65.6-23.76a4,4,0,0,1,.56-.24c23-10.48,53.12-1,56.72.08l39.28,19.36-21.6,51A43.86,43.86,0,0,0,276,317l-88.16,26.48a41.5,41.5,0,0,1-31.76-3.28L18,265.44a6.39,6.39,0,0,1-3-8.4,6.08,6.08,0,0,1,7.6-3.92L130,288.88a7.26,7.26,0,1,0,4.64-13.76L27.09,239.2a.7.7,0,0,0-.4-.08,21.15,21.15,0,0,0-15.52,39l138.16,75a55.84,55.84,0,0,0,42.8,4.4l88.16-26.48a29,29,0,0,1,23.92,3.28l45,28.32a2.36,2.36,0,0,0,.64.32c.08,0,.08.08.16.08H350c.08.08.16.08.32.08l.56.24c.08,0,.24.08.32.08s.4.08.56.16a.48.48,0,0,1,.32.08c.32,0,.56.08.88.08a3.77,3.77,0,0,0,1-.08.48.48,0,0,0,.32-.08,1.91,1.91,0,0,0,.64-.16c.08,0,.24-.08.32-.08s.4-.16.56-.24.24-.08.32-.16a5,5,0,0,0,.56-.32.58.58,0,0,1,.32-.16c.16-.08.32-.24.48-.32s.24-.16.32-.24l.4-.4.32-.32a1.7,1.7,0,0,0,.32-.48c.08-.08.16-.24.24-.32a.08.08,0,0,1,.08-.08.27.27,0,0,1,.08-.16,4.19,4.19,0,0,0,.32-.64l32-68.16c.08-.24.16-.4.24-.64a4.68,4.68,0,0,1,.24-.64,2.29,2.29,0,0,0,.08-.72c0-.24.08-.48.08-.72a2.27,2.27,0,0,0,.08-.72Zm-16.8,3.68L350,346l-25.84-16.32,22.16-52.32Zm0,0" transform="translate(0 -0.24)"/></g><path class="cls-4" d="M123.09,124.48h20.32a15,15,0,0,1,0,30.08H106.85a7.28,7.28,0,1,0,0,14.56H126v14.32a7.28,7.28,0,1,0,14.56,0V169.12h3a29.6,29.6,0,0,0,0-59.2H123.17a15,15,0,1,1,0-30.08h35.92a7.28,7.28,0,0,0,0-14.56H140.6v-14a7.28,7.28,0,0,0-14.56,0V65.36h-3a29.56,29.56,0,1,0,0,59.12Zm0,0" transform="translate(0 -0.24)"/><path class="cls-4" d="M133.33,234.08A117,117,0,0,0,250.21,117.2c0-64.4-52.48-117-116.88-117s-117,52.48-117,117,52.48,116.88,117,116.88Zm0-219.28A102.4,102.4,0,1,1,30.93,117.2,102.49,102.49,0,0,1,133.33,14.8Zm0,0" transform="translate(0 -0.24)"/></g></g></svg>