<?xml version="1.0" encoding="utf-8"?>
<!-- Generator: Adobe Illustrator 15.1.0, SVG Export Plug-In . SVG Version: 6.00 Build 0)  -->
<!DOCTYPE svg PUBLIC "-//W3C//DTD SVG 1.1//EN" "http://www.w3.org/Graphics/SVG/1.1/DTD/svg11.dtd">
<svg version="1.1" id="Calque_1" xmlns="http://www.w3.org/2000/svg" xmlns:xlink="http://www.w3.org/1999/xlink" x="0px" y="0px"
	 width="9.14px" height="2px" viewBox="0 0 9.14 2" enable-background="new 0 0 9.14 2" xml:space="preserve">
<g>
	<g>
		<g>
			<path fill="#0C2232" d="M6.344,1.536C6.218,1.82,5.949,1.995,5.636,1.995c-0.436,0-0.792-0.316-0.792-0.762
				c0-0.429,0.367-0.753,0.782-0.753c0.313,0,0.605,0.179,0.714,0.47H6.122C6.021,0.777,5.83,0.665,5.626,0.665
				c-0.32,0-0.592,0.238-0.592,0.566c0,0.321,0.251,0.575,0.578,0.575c0.225,0,0.381-0.094,0.51-0.271H6.344L6.344,1.536z"/>
			<path fill="#0C2232" d="M6.483,0h0.197v0.333H6.483V0z M6.483,0.51h0.197v1.452H6.483V0.51z"/>
			<path fill="#0C2232" d="M7.089,0.689h-0.16V0.51h0.16V0h0.197v0.51h0.333v0.179H7.286v1.273H7.089V0.689z"/>
			<path fill="#0C2232" d="M7.83,1.306c0.007,0.279,0.275,0.502,0.544,0.502c0.215,0,0.436-0.121,0.524-0.316h0.204
				C9,1.786,8.704,2,8.395,2C7.966,2,7.633,1.667,7.633,1.24c0-0.422,0.333-0.76,0.755-0.76c0.231,0,0.438,0.104,0.585,0.281
				C9.109,0.929,9.136,1.097,9.14,1.31L7.83,1.306L7.83,1.306z M8.945,1.129C8.892,0.871,8.66,0.668,8.392,0.668
				c-0.275,0-0.518,0.19-0.562,0.461H8.945z"/>
		</g>
		<rect x="8.027" y="0.189" fill="#0C2232" width="0.779" height="0.145"/>
	</g>
	<g>
		<g>
			<path fill="#7AB62A" d="M0.194,1.306c0.012,0.279,0.279,0.502,0.549,0.502c0.211,0,0.436-0.121,0.519-0.316h0.206
				C1.368,1.786,1.07,2,0.76,2C0.333,2,0,1.667,0,1.24c0-0.422,0.333-0.76,0.753-0.76c0.229,0,0.439,0.104,0.583,0.281
				C1.475,0.929,1.503,1.097,1.505,1.31L0.194,1.306L0.194,1.306z M1.312,1.129C1.259,0.871,1.027,0.668,0.757,0.668
				c-0.272,0-0.517,0.19-0.563,0.461H1.312z"/>
			<path fill="#7AB62A" d="M3.109,1.536C2.983,1.82,2.716,1.995,2.403,1.995c-0.436,0-0.792-0.316-0.792-0.762
				c0-0.429,0.365-0.753,0.784-0.753c0.31,0,0.605,0.179,0.714,0.47H2.888C2.786,0.777,2.594,0.665,2.395,0.665
				c-0.323,0-0.592,0.238-0.592,0.566c0,0.321,0.252,0.575,0.573,0.575c0.228,0,0.384-0.094,0.512-0.271H3.109L3.109,1.536z"/>
			<path fill="#7AB62A" d="M4.731,1.228c0,0.415-0.337,0.769-0.752,0.769c-0.408,0-0.762-0.333-0.762-0.751
				c0-0.42,0.337-0.769,0.762-0.769C4.381,0.479,4.731,0.825,4.731,1.228z M3.408,1.245c0,0.311,0.255,0.563,0.568,0.563
				c0.323,0,0.562-0.268,0.562-0.583c0-0.16-0.055-0.289-0.17-0.403c-0.102-0.095-0.245-0.16-0.388-0.16
				C3.653,0.668,3.408,0.929,3.408,1.245z"/>
		</g>
		<rect x="0.359" y="0.156" fill="#7AB62A" width="0.781" height="0.145"/>
	</g>
</g>
</svg>
